<mxfile host="app.diagrams.net" modified="2022-12-01T16:05:04.745Z" agent="5.0 (Windows NT 10.0; Win64; x64) AppleWebKit/537.36 (KHTML, like Gecko) Chrome/108.0.0.0 Safari/537.36" etag="NWoJquy_woakh6fR4BGs" version="20.6.0" type="github">
  <diagram name="Page-1" id="c9db0220-8083-56f3-ca83-edcdcd058819">
    <mxGraphModel dx="164" dy="377" grid="1" gridSize="10" guides="1" tooltips="1" connect="1" arrows="1" fold="1" page="1" pageScale="1.5" pageWidth="826" pageHeight="1169" background="#ffffff" math="0" shadow="0">
      <root>
        <mxCell id="0" style=";html=1;" />
        <mxCell id="1" style=";html=1;" parent="0" />
        <mxCell id="sAv-Mwyu1UvNk6a1ePmx-3" value="" style="shape=image;verticalLabelPosition=bottom;labelBackgroundColor=default;verticalAlign=top;aspect=fixed;imageAspect=0;image=data:image/svg+xml,PHN2ZyB4bWxuczp4bGluaz0iaHR0cDovL3d3dy53My5vcmcvMTk5OS94bGluayIgeG1sbnM9Imh0dHA6Ly93d3cudzMub3JnLzIwMDAvc3ZnIiB4bWw6c3BhY2U9InByZXNlcnZlIiBzdHlsZT0iZW5hYmxlLWJhY2tncm91bmQ6bmV3OyIgdmlld0JveD0iMCAwIDEwMDAgMjYyLjUiIHk9IjBweCIgeD0iMHB4IiBpZD0iQ29sb3IgdGVtcGVyYXR1cmUgbG9nIGdyYWRpZW50IiB2ZXJzaW9uPSIxLjEiPiYjeGE7JiN4YTsgPGRlZnM+JiN4YTsgICAgPHN0eWxlIHR5cGU9InRleHQvY3NzIj4mI3hhOwkJbGluZS5ncmlkIHsmI3hhOyAgICAgICAgCXN0cm9rZTogYmxhY2s7JiN4YTsgICAgICAgIAlzdHJva2Utd2lkdGg6IDEuNTsmI3hhOyAgICAgICAgCXN0cm9rZS1saW5lY2FwOiBidXR0OyYjeGE7ICAgIAl9JiN4YTsmI3hhOyAgICAJbGluZS5oaWRkZW4geyYjeGE7ICAgICAgICAJc3Ryb2tlOiBibGFjazsmI3hhOyAgICAgICAgCXN0cm9rZS13aWR0aDogMS41OyYjeGE7ICAgICAgICAJc3Ryb2tlLWxpbmVjYXA6IGJ1dHQ7JiN4YTsgICAgICAgIAlzdHJva2Utb3BhY2l0eTogMDsmI3hhOyAgICAgICAgCXN0cm9rZS1kYXNoYXJyYXk6IDYuNjY2IDMuMzMzOyYjeGE7ICAgIAl9JiN4YTsmI3hhOyAgICAJcGF0aCB7JiN4YTsgICAgICAgIAlmaWxsOiBibGFjazsmI3hhOyAgICAJfSYjeGE7JiN4YTsJICAgIGxpbmUuaGlkZGVuOmhvdmVyIHsmI3hhOyAgICAgICAgCXN0cm9rZS1vcGFjaXR5OiAxOyYjeGE7ICAgICAgICB9JiN4YTsmI3hhOyAgICAgICAgcmVjdCB7JiN4YTsgICAgICAgIAlmaWxsOiB1cmwoI0cxKTsmI3hhOyAgICAgICAgfSYjeGE7ICAgIDwvc3R5bGU+JiN4YTsgIDwvZGVmcz4mI3hhOyYjeGE7PGxpbmVhckdyYWRpZW50IHN0eWxlPSJjb2xvci1yZW5kZXJpbmc6IG9wdGltaXplUXVhbGl0eTsiIHNwcmVhZE1ldGhvZD0iUGFkIiB4Mj0iOTkwIiB4MT0iMTAiIGdyYWRpZW50VW5pdHM9InVzZXJTcGFjZU9uVXNlIiBpZD0iRzEiPiYjeGE7PHN0b3Agc3R5bGU9InN0b3AtY29sb3I6I0ZGMDMwMCIgb2Zmc2V0PSIwIi8+JiN4YTs8c3RvcCBzdHlsZT0ic3RvcC1jb2xvcjojRkYwNDAwIiBvZmZzZXQ9IjcuMTk5MzAwOTE3NDgwNzdFLTA1Ii8+JiN4YTs8c3RvcCBzdHlsZT0ic3RvcC1jb2xvcjojRkYwNTAwIiBvZmZzZXQ9IjAuMDAwMTY4MDE1MTc3MjI1MTgzIi8+JiN4YTs8c3RvcCBzdHlsZT0ic3RvcC1jb2xvcjojRkYwNjAwIiBvZmZzZXQ9IjAuMDAwMjY0MDc1MTU4Mjk3Mjc0Ii8+JiN4YTs8c3RvcCBzdHlsZT0ic3RvcC1jb2xvcjojRkYwNzAwIiBvZmZzZXQ9IjAuMDAwMzg0MjA1MzI3NTEyMTkxIi8+JiN4YTs8c3RvcCBzdHlsZT0ic3RvcC1jb2xvcjojRkYwODAwIiBvZmZzZXQ9IjAuMDAwNTUyNDg3MDE5Mjk5MzI2Ii8+JiN4YTs8c3RvcCBzdHlsZT0ic3RvcC1jb2xvcjojRkYwOTAwIiBvZmZzZXQ9IjAuMDAwNzQ0OTQ4MDUyMDA2ODUzIi8+JiN4YTs8c3RvcCBzdHlsZT0ic3RvcC1jb2xvcjojRkYwQTAwIiBvZmZzZXQ9IjAuMDAwOTYxNjUxOTQ0NjYwMDYzIi8+JiN4YTs8c3RvcCBzdHlsZT0ic3RvcC1jb2xvcjojRkYwQjAwIiBvZmZzZXQ9IjAuMDAxMjAyNjU2MDg1NTU5MSIvPiYjeGE7PHN0b3Agc3R5bGU9InN0b3AtY29sb3I6I0ZGMEMwMCIgb2Zmc2V0PSIwLjAwMTQ2ODA0MDMyNjE1NTM0Ii8+JiN4YTs8c3RvcCBzdHlsZT0ic3RvcC1jb2xvcjojRkYwRDAwIiBvZmZzZXQ9IjAuMDAxNzU3ODc1Mjk0MDU5NTMiLz4mI3hhOzxzdG9wIHN0eWxlPSJzdG9wLWNvbG9yOiNGRjBFMDAiIG9mZnNldD0iMC4wMDIwNzIyNTc0ODAzNjQ3NSIvPiYjeGE7PHN0b3Agc3R5bGU9InN0b3AtY29sb3I6I0ZGMEYwMCIgb2Zmc2V0PSIwLjAwMjQxMTI3MTA1MDI2NzIiLz4mI3hhOzxzdG9wIHN0eWxlPSJzdG9wLWNvbG9yOiNGRjEwMDAiIG9mZnNldD0iMC4wMDI3NzUwMjk1MDg2OTU2MiIvPiYjeGE7PHN0b3Agc3R5bGU9InN0b3AtY29sb3I6I0ZGMTEwMCIgb2Zmc2V0PSIwLjAwMzE4Nzk0NTkzNjA1MzMxIi8+JiN4YTs8c3RvcCBzdHlsZT0ic3RvcC1jb2xvcjojRkYxMjAwIiBvZmZzZXQ9IjAuMDAzNjI1OTA3NDgwNjM5MjYiLz4mI3hhOzxzdG9wIHN0eWxlPSJzdG9wLWNvbG9yOiNGRjEzMDAiIG9mZnNldD0iMC4wMDQwODkwNjI2MDIzNzYxOCIvPiYjeGE7PHN0b3Agc3R5bGU9InN0b3AtY29sb3I6I0ZGMTQwMCIgb2Zmc2V0PSIwLjAwNDU3NzUzODA3NTgyMzA5Ii8+JiN4YTs8c3RvcCBzdHlsZT0ic3RvcC1jb2xvcjojRkYxNTAwIiBvZmZzZXQ9IjAuMDA1MDkxNTAwODcwODkxMDUiLz4mI3hhOzxzdG9wIHN0eWxlPSJzdG9wLWNvbG9yOiNGRjE2MDAiIG9mZnNldD0iMC4wMDU2NTU2NTc4NTQ3ODAxNSIvPiYjeGE7PHN0b3Agc3R5bGU9InN0b3AtY29sb3I6I0ZGMTcwMCIgb2Zmc2V0PSIwLjAwNjI0NTcyNzkwOTE2MTgyIi8+JiN4YTs8c3RvcCBzdHlsZT0ic3RvcC1jb2xvcjojRkYxODAwIiBvZmZzZXQ9IjAuMDA2ODYxOTE2MjE1NTA0MjciLz4mI3hhOzxzdG9wIHN0eWxlPSJzdG9wLWNvbG9yOiNGRjE5MDAiIG9mZnNldD0iMC4wMDc1MDQzOTY2ODQwNzE0NSIvPiYjeGE7PHN0b3Agc3R5bGU9InN0b3AtY29sb3I6I0ZGMUEwMCIgb2Zmc2V0PSIwLjAwODE0ODU3MzgwNTkwOTY4Ii8+JiN4YTs8c3RvcCBzdHlsZT0ic3RvcC1jb2xvcjojRkYxQjAwIiBvZmZzZXQ9IjAuMDA4ODQ0MjM0NDQ1NzU4OTEiLz4mI3hhOzxzdG9wIHN0eWxlPSJzdG9wLWNvbG9yOiNGRjFDMDAiIG9mZnNldD0iMC4wMDk1OTE3Njc4ODUwNDY3NyIvPiYjeGE7PHN0b3Agc3R5bGU9InN0b3AtY29sb3I6I0ZGMUQwMCIgb2Zmc2V0PSIwLjAxMDM0MTU5OTE3NzMwMjEiLz4mI3hhOzxzdG9wIHN0eWxlPSJzdG9wLWNvbG9yOiNGRjFFMDAiIG9mZnNldD0iMC4wMTExMTg4NjcyNzkwMTUxIi8+JiN4YTs8c3RvcCBzdHlsZT0ic3RvcC1jb2xvcjojRkYxRjAwIiBvZmZzZXQ9IjAuMDExOTIzODAxMDQ2MjMzNCIvPiYjeGE7PHN0b3Agc3R5bGU9InN0b3AtY29sb3I6I0ZGMjAwMCIgb2Zmc2V0PSIwLjAxMjc1NjY5NDczNTUyMDQiLz4mI3hhOzxzdG9wIHN0eWxlPSJzdG9wLWNvbG9yOiNGRjIxMDAiIG9mZnNldD0iMC4wMTM2MTc3OTc2MDE1MTM1Ii8+JiN4YTs8c3RvcCBzdHlsZT0ic3RvcC1jb2xvcjojRkYyMjAwIiBvZmZzZXQ9IjAuMDE0NTA3NDI5MTczMDI4NCIvPiYjeGE7PHN0b3Agc3R5bGU9InN0b3AtY29sb3I6I0ZGMjMwMCIgb2Zmc2V0PSIwLjAxNTQyNTg2MDM0NzM5MzQiLz4mI3hhOzxzdG9wIHN0eWxlPSJzdG9wLWNvbG9yOiNGRjI0MDAiIG9mZnNldD0iMC4wMTYzNzM0Mzc0MDQ4NTM5Ii8+JiN4YTs8c3RvcCBzdHlsZT0ic3RvcC1jb2xvcjojRkYyNTAwIiBvZmZzZXQ9IjAuMDE3MzUwNDU0MjcwMTU3MiIvPiYjeGE7PHN0b3Agc3R5bGU9InN0b3AtY29sb3I6I0ZGMjYwMCIgb2Zmc2V0PSIwLjAxODM1NzI4NTYxODQzMDkiLz4mI3hhOzxzdG9wIHN0eWxlPSJzdG9wLWNvbG9yOiNGRjI3MDAiIG9mZnNldD0iMC4wMTkzOTQyNDk5NDI2MTA4Ii8+JiN4YTs8c3RvcCBzdHlsZT0ic3RvcC1jb2xvcjojRkYyODAwIiBvZmZzZXQ9IjAuMDIwNDYxNzUyMTM4MzQ2NiIvPiYjeGE7PHN0b3Agc3R5bGU9InN0b3AtY29sb3I6I0ZGMjkwMCIgb2Zmc2V0PSIwLjAyMTU2MDEzNjk4MTI2MSIvPiYjeGE7PHN0b3Agc3R5bGU9InN0b3AtY29sb3I6I0ZGMkEwMCIgb2Zmc2V0PSIwLjAyMjY2MzQ5MDAxMDM5NTciLz4mI3hhOzxzdG9wIHN0eWxlPSJzdG9wLWNvbG9yOiNGRjJCMDAiIG9mZnNldD0iMC4wMjM3OTgzMjgwODYwMDMyIi8+JiN4YTs8c3RvcCBzdHlsZT0ic3RvcC1jb2xvcjojRkYyQzAwIiBvZmZzZXQ9IjAuMDI0OTY1MDI3Nzk0NzQ0NSIvPiYjeGE7PHN0b3Agc3R5bGU9InN0b3AtY29sb3I6I0ZGMkQwMCIgb2Zmc2V0PSIwLjAyNjEzNzMzNDQ4ODEyODkiLz4mI3hhOzxzdG9wIHN0eWxlPSJzdG9wLWNvbG9yOiNGRjJFMDAiIG9mZnNldD0iMC4wMjczNDIxNjI2ODYwODQ2Ii8+JiN4YTs8c3RvcCBzdHlsZT0ic3RvcC1jb2xvcjojRkYyRjAwIiBvZmZzZXQ9IjAuMDI4NTc5OTIzODcyNTc5NiIvPiYjeGE7PHN0b3Agc3R5bGU9InN0b3AtY29sb3I6I0ZGMzAwMCIgb2Zmc2V0PSIwLjAyOTg1MTEzNzAwNDM2NDkiLz4mI3hhOzxzdG9wIHN0eWxlPSJzdG9wLWNvbG9yOiNGRjMxMDAiIG9mZnNldD0iMC4wMzExNTYyNDcwNjA1MTYzIi8+JiN4YTs8c3RvcCBzdHlsZT0ic3RvcC1jb2xvcjojRkYzMjAwIiBvZmZzZXQ9IjAuMDMyNDY4Mzc3MzgyNTMwOSIvPiYjeGE7PHN0b3Agc3R5bGU9InN0b3AtY29sb3I6I0ZGMzMwMCIgb2Zmc2V0PSIwLjAzMzc4NzYwMzkwNDA5NzMiLz4mI3hhOzxzdG9wIHN0eWxlPSJzdG9wLWNvbG9yOiNGRjM0MDAiIG9mZnNldD0iMC4wMzUxNDE3Mzk2Nzc1MjMxIi8+JiN4YTs8c3RvcCBzdHlsZT0ic3RvcC1jb2xvcjojRkYzNTAwIiBvZmZzZXQ9IjAuMDM2NTMxMjc3MzMyOTA5NyIvPiYjeGE7PHN0b3Agc3R5bGU9InN0b3AtY29sb3I6I0ZGMzYwMCIgb2Zmc2V0PSIwLjAzNzkyODc3NTY5MDExNyIvPiYjeGE7PHN0b3Agc3R5bGU9InN0b3AtY29sb3I6I0ZGMzcwMCIgb2Zmc2V0PSIwLjAzOTMzNDMyNjQ4OTQxODUiLz4mI3hhOzxzdG9wIHN0eWxlPSJzdG9wLWNvbG9yOiNGRjM4MDAiIG9mZnNldD0iMC4wNDA3NzY0MDg3NTg1MzE3Ii8+JiN4YTs8c3RvcCBzdHlsZT0ic3RvcC1jb2xvcjojRkYzOTAwIiBvZmZzZXQ9IjAuMDQyMjU1NTY5MTUwNzA4NCIvPiYjeGE7PHN0b3Agc3R5bGU9InN0b3AtY29sb3I6I0ZGM0EwMCIgb2Zmc2V0PSIwLjA0Mzc0Mzc1MzYwNTA1OTkiLz4mI3hhOzxzdG9wIHN0eWxlPSJzdG9wLWNvbG9yOiNGRjNCMDAiIG9mZnNldD0iMC4wNDUyNDEwNzI5MDYxNTQxIi8+JiN4YTs8c3RvcCBzdHlsZT0ic3RvcC1jb2xvcjojRkYzQzAwIiBvZmZzZXQ9IjAuMDQ2Nzc2NzM0MzEwMTQyNyIvPiYjeGE7PHN0b3Agc3R5bGU9InN0b3AtY29sb3I6I0ZGM0QwMCIgb2Zmc2V0PSIwLjA0ODMyMjA2MzA0MzY3ODEiLz4mI3hhOzxzdG9wIHN0eWxlPSJzdG9wLWNvbG9yOiNGRjNFMDAiIG9mZnNldD0iMC4wNDk4NzczMDYzMTM0NjM0Ii8+JiN4YTs8c3RvcCBzdHlsZT0ic3RvcC1jb2xvcjojRkYzRjAwIiBvZmZzZXQ9IjAuMDUxNDcyMTI2MjcwNzI1NSIvPiYjeGE7PHN0b3Agc3R5bGU9InN0b3AtY29sb3I6I0ZGNDAwMCIgb2Zmc2V0PSIwLjA1MzA3NzQ0MTcxMzM2NDYiLz4mI3hhOzxzdG9wIHN0eWxlPSJzdG9wLWNvbG9yOiNGRjQxMDAiIG9mZnNldD0iMC4wNTQ3MjM0NTE3Njk0MjM1Ii8+JiN4YTs8c3RvcCBzdHlsZT0ic3RvcC1jb2xvcjojRkY0MjAwIiBvZmZzZXQ9IjAuMDU2MzgwNTc2MDIyNzIwMSIvPiYjeGE7PHN0b3Agc3R5bGU9InN0b3AtY29sb3I6I0ZGNDMwMCIgb2Zmc2V0PSIwLjA1ODA0OTEwMzkxNTI0MjYiLz4mI3hhOzxzdG9wIHN0eWxlPSJzdG9wLWNvbG9yOiNGRjQ0MDAiIG9mZnNldD0iMC4wNTk3MjkwNTMyMzI1MjEyIi8+JiN4YTs8c3RvcCBzdHlsZT0ic3RvcC1jb2xvcjojRkY0NTAwIiBvZmZzZXQ9IjAuMDYxNDIwNzIzNjExMjc4OSIvPiYjeGE7PHN0b3Agc3R5bGU9InN0b3AtY29sb3I6I0ZGNDYwMCIgb2Zmc2V0PSIwLjA2MzE1NTI1NDAyMDMxMDYiLz4mI3hhOzxzdG9wIHN0eWxlPSJzdG9wLWNvbG9yOiNGRjQ3MDAiIG9mZnNldD0iMC4wNjQ5MDIyMDY1MDE5NzU2Ii8+JiN4YTs8c3RvcCBzdHlsZT0ic3RvcC1jb2xvcjojRkY0ODAwIiBvZmZzZXQ9IjAuMDY2NjYxNzYwMjY1OTM0OSIvPiYjeGE7PHN0b3Agc3R5bGU9InN0b3AtY29sb3I6I0ZGNDkwMCIgb2Zmc2V0PSIwLjA2ODQzNDA5ODQyODE3MDgiLz4mI3hhOzxzdG9wIHN0eWxlPSJzdG9wLWNvbG9yOiNGRjRBMDAiIG9mZnNldD0iMC4wNzAyMTk0MDgxMjUzNDk0Ii8+JiN4YTs8c3RvcCBzdHlsZT0ic3RvcC1jb2xvcjojRkY0QjAwIiBvZmZzZXQ9IjAuMDcyMDE3ODgwNjMzMzk4OCIvPiYjeGE7PHN0b3Agc3R5bGU9InN0b3AtY29sb3I6I0ZGNEMwMCIgb2Zmc2V0PSIwLjA3Mzg2MjIyOTMxMTMyNTciLz4mI3hhOzxzdG9wIHN0eWxlPSJzdG9wLWNvbG9yOiNGRjREMDAiIG9mZnNldD0iMC4wNzU3MjA1NDY0MDQ1OTgxIi8+JiN4YTs8c3RvcCBzdHlsZT0ic3RvcC1jb2xvcjojRkY0RTAwIiBvZmZzZXQ9IjAuMDc3NTYwMTkzNjMxMzIwOSIvPiYjeGE7PHN0b3Agc3R5bGU9InN0b3AtY29sb3I6I0ZGNEYwMCIgb2Zmc2V0PSIwLjA3OTQ0NzA5MjA3OTk0NjIiLz4mI3hhOzxzdG9wIHN0eWxlPSJzdG9wLWNvbG9yOiNGRjUwMDAiIG9mZnNldD0iMC4wODEzNDg2MTM0NTI1MDE1Ii8+JiN4YTs8c3RvcCBzdHlsZT0ic3RvcC1jb2xvcjojRkY1MTAwIiBvZmZzZXQ9IjAuMDgzMjMxMzY0OTIyMDY4OSIvPiYjeGE7PHN0b3Agc3R5bGU9InN0b3AtY29sb3I6I0ZGNTIwMCIgb2Zmc2V0PSIwLjA4NTE2MjgyMjgwMTcyODEiLz4mI3hhOzxzdG9wIHN0eWxlPSJzdG9wLWNvbG9yOiNGRjUzMDAiIG9mZnNldD0iMC4wODcxMDk2MDUyMTc3OTE2Ii8+JiN4YTs8c3RvcCBzdHlsZT0ic3RvcC1jb2xvcjojRkY1NDAwIiBvZmZzZXQ9IjAuMDg5MDcyMTQxOTUyNTUwOCIvPiYjeGE7PHN0b3Agc3R5bGU9InN0b3AtY29sb3I6I0ZGNTUwMCIgb2Zmc2V0PSIwLjA5MTA1MDUwMjM4NzU4MTgiLz4mI3hhOzxzdG9wIHN0eWxlPSJzdG9wLWNvbG9yOiNGRjU2MDAiIG9mZnNldD0iMC4wOTMwMDk5NTI4MTE1NTM0Ii8+JiN4YTs8c3RvcCBzdHlsZT0ic3RvcC1jb2xvcjojRkY1NzAwIiBvZmZzZXQ9IjAuMDk1MDIwNzM4NzE3OTg3MSIvPiYjeGE7PHN0b3Agc3R5bGU9InN0b3AtY29sb3I6I0ZGNTgwMCIgb2Zmc2V0PSIwLjA5NzA0ODEzOTI0NjA2OTMiLz4mI3hhOzxzdG9wIHN0eWxlPSJzdG9wLWNvbG9yOiNGRjU5MDAiIG9mZnNldD0iMC4wOTkwOTI2MzE2NTU3MTcxIi8+JiN4YTs8c3RvcCBzdHlsZT0ic3RvcC1jb2xvcjojRkY1QTAwIiBvZmZzZXQ9IjAuMTAxMTU0MzAyNzU4NDMiLz4mI3hhOzxzdG9wIHN0eWxlPSJzdG9wLWNvbG9yOiNGRjVCMDAiIG9mZnNldD0iMC4xMDMxOTY5NjY2NzQxOTMiLz4mI3hhOzxzdG9wIHN0eWxlPSJzdG9wLWNvbG9yOiNGRjVDMDAiIG9mZnNldD0iMC4xMDUyNTY4ODAxNjQzNjkiLz4mI3hhOzxzdG9wIHN0eWxlPSJzdG9wLWNvbG9yOiNGRjVEMDAiIG9mZnNldD0iMC4xMDczNzE2NDk4MjgzNzciLz4mI3hhOzxzdG9wIHN0eWxlPSJzdG9wLWNvbG9yOiNGRjVFMDAiIG9mZnNldD0iMC4xMDk1MDQ4MDQ4MDcxNTkiLz4mI3hhOzxzdG9wIHN0eWxlPSJzdG9wLWNvbG9yOiNGRjVGMDAiIG9mZnNldD0iMC4xMTE2MTg5MTQ2NTM2OTMiLz4mI3hhOzxzdG9wIHN0eWxlPSJzdG9wLWNvbG9yOiNGRjYwMDAiIG9mZnNldD0iMC4xMTM3NTE1MDczMjM1NjciLz4mI3hhOzxzdG9wIHN0eWxlPSJzdG9wLWNvbG9yOiNGRjYxMDAiIG9mZnNldD0iMC4xMTU5MDI5MDg4NDczMDEiLz4mI3hhOzxzdG9wIHN0eWxlPSJzdG9wLWNvbG9yOiNGRjYyMDAiIG9mZnNldD0iMC4xMTgwNzM0NTM5NTg4ODkiLz4mI3hhOzxzdG9wIHN0eWxlPSJzdG9wLWNvbG9yOiNGRjYzMDAiIG9mZnNldD0iMC4xMjAyNjM0ODY0MDgzNzIiLz4mI3hhOzxzdG9wIHN0eWxlPSJzdG9wLWNvbG9yOiNGRjY0MDAiIG9mZnNldD0iMC4xMjI0NzMzNTkyODg1NzIiLz4mI3hhOzxzdG9wIHN0eWxlPSJzdG9wLWNvbG9yOiNGRjY1MDAiIG9mZnNldD0iMC4xMjQ3MDM0MzUzNzY3NjEiLz4mI3hhOzxzdG9wIHN0eWxlPSJzdG9wLWNvbG9yOiNGRjY2MDAiIG9mZnNldD0iMC4xMjY5NTQwODc0OTIwOTciLz4mI3hhOzxzdG9wIHN0eWxlPSJzdG9wLWNvbG9yOiNGRjY3MDAiIG9mZnNldD0iMC4xMjkxODQ4ODU5MjcwMTIiLz4mI3hhOzxzdG9wIHN0eWxlPSJzdG9wLWNvbG9yOiNGRjY4MDAiIG9mZnNldD0iMC4xMzE0MzYzOTk3Mjk5ODgiLz4mI3hhOzxzdG9wIHN0eWxlPSJzdG9wLWNvbG9yOiNGRjY5MDAiIG9mZnNldD0iMC4xMzM3NTAzMzg3NzgyMDEiLz4mI3hhOzxzdG9wIHN0eWxlPSJzdG9wLWNvbG9yOiNGRjZBMDAiIG9mZnNldD0iMC4xMzYwNDQ0NTkzNDk3NzIiLz4mI3hhOzxzdG9wIHN0eWxlPSJzdG9wLWNvbG9yOiNGRjZCMDAiIG9mZnNldD0iMC4xMzgzNjA0OTM4MDM1MzYiLz4mI3hhOzxzdG9wIHN0eWxlPSJzdG9wLWNvbG9yOiNGRjZDMDAiIG9mZnNldD0iMC4xNDA2OTg1OTMxNDU3OTUiLz4mI3hhOzxzdG9wIHN0eWxlPSJzdG9wLWNvbG9yOiNGRjZEMDAiIG9mZnNldD0iMC4xNDMwMTYyNjA3NTczMjIiLz4mI3hhOzxzdG9wIHN0eWxlPSJzdG9wLWNvbG9yOiNGRjZFMDAiIG9mZnNldD0iMC4xNDUzOTk3NzU2ODY1MjIiLz4mI3hhOzxzdG9wIHN0eWxlPSJzdG9wLWNvbG9yOiNGRjZGMDAiIG9mZnNldD0iMC4xNDc4MDY2NjY1MTk3OTciLz4mI3hhOzxzdG9wIHN0eWxlPSJzdG9wLWNvbG9yOiNGRjcwMDAiIG9mZnNldD0iMC4xNTAxOTMxOTk4MDk4NzkiLz4mI3hhOzxzdG9wIHN0eWxlPSJzdG9wLWNvbG9yOiNGRjcxMDAiIG9mZnNldD0iMC4xNTI2MDMzMTI4NTQxMDciLz4mI3hhOzxzdG9wIHN0eWxlPSJzdG9wLWNvbG9yOiNGRjcyMDAiIG9mZnNldD0iMC4xNTUwMzc0NzYyNjE4NDEiLz4mI3hhOzxzdG9wIHN0eWxlPSJzdG9wLWNvbG9yOiNGRjczMDAiIG9mZnNldD0iMC4xNTc0OTYxNzQ4NzM0NjUiLz4mI3hhOzxzdG9wIHN0eWxlPSJzdG9wLWNvbG9yOiNGRjc0MDAiIG9mZnNldD0iMC4xNTk5Nzk5MDgzNDAwMjMiLz4mI3hhOzxzdG9wIHN0eWxlPSJzdG9wLWNvbG9yOiNGRjc1MDAiIG9mZnNldD0iMC4xNjI0ODkxOTE3MzI2NzciLz4mI3hhOzxzdG9wIHN0eWxlPSJzdG9wLWNvbG9yOiNGRjc2MDAiIG9mZnNldD0iMC4xNjQ5NzcyODQwNzkyMzMiLz4mI3hhOzxzdG9wIHN0eWxlPSJzdG9wLWNvbG9yOiNGRjc3MDAiIG9mZnNldD0iMC4xNjc0OTExNzk1MTE4ODUiLz4mI3hhOzxzdG9wIHN0eWxlPSJzdG9wLWNvbG9yOiNGRjc4MDAiIG9mZnNldD0iMC4xNzAwNzkzNDk2NDY4NzciLz4mI3hhOzxzdG9wIHN0eWxlPSJzdG9wLWNvbG9yOiNGRjc5MDAiIG9mZnNldD0iMC4xNzI2NDY0OTA4MzI3MTciLz4mI3hhOzxzdG9wIHN0eWxlPSJzdG9wLWNvbG9yOiNGRjdBMDAiIG9mZnNldD0iMC4xNzUyNDExMDk4MDgwNzIiLz4mI3hhOzxzdG9wIHN0eWxlPSJzdG9wLWNvbG9yOiNGRjdCMDAiIG9mZnNldD0iMC4xNzc4NjM0NDY1MDQ1OTkiLz4mI3hhOzxzdG9wIHN0eWxlPSJzdG9wLWNvbG9yOiNGRjdDMDAiIG9mZnNldD0iMC4xODA0NjQwODUzMDQ2NzkiLz4mI3hhOzxzdG9wIHN0eWxlPSJzdG9wLWNvbG9yOiNGRjdEMDAiIG9mZnNldD0iMC4xODMxNDM2NzI5MDUxODEiLz4mI3hhOzxzdG9wIHN0eWxlPSJzdG9wLWNvbG9yOiNGRjdFMDAiIG9mZnNldD0iMC4xODU4NTI4MzM3MzY0NDUiLz4mI3hhOzxzdG9wIHN0eWxlPSJzdG9wLWNvbG9yOiNGRjdGMDAiIG9mZnNldD0iMC4xODg1NDA1MzkwNzk4NzYiLz4mI3hhOzxzdG9wIHN0eWxlPSJzdG9wLWNvbG9yOiNGRjgwMDAiIG9mZnNldD0iMC4xOTEyNTgxODg1Mjg1MjYiLz4mI3hhOzxzdG9wIHN0eWxlPSJzdG9wLWNvbG9yOiNGRjgxMDAiIG9mZnNldD0iMC4xOTQwMDY0NTY4MzcwNTciLz4mI3hhOzxzdG9wIHN0eWxlPSJzdG9wLWNvbG9yOiNGRjgyMDAiIG9mZnNldD0iMC4xOTY3ODYwNDE4Mjc3MTIiLz4mI3hhOzxzdG9wIHN0eWxlPSJzdG9wLWNvbG9yOiNGRjgzMDAiIG9mZnNldD0iMC4xOTk1OTc2NjU0NTM5MjUiLz4mI3hhOzxzdG9wIHN0eWxlPSJzdG9wLWNvbG9yOiNGRjg0MDAiIG9mZnNldD0iMC4yMDI0NDIwNzQ5MjU5NTgiLz4mI3hhOzxzdG9wIHN0eWxlPSJzdG9wLWNvbG9yOiNGRjg1MDAiIG9mZnNldD0iMC4yMDUzMjAwNDM5MDI5MzkiLz4mI3hhOzxzdG9wIHN0eWxlPSJzdG9wLWNvbG9yOiNGRjg2MDAiIG9mZnNldD0iMC4yMDc2MTI0MjQ0MDMwNDkiLz4mI3hhOzxzdG9wIHN0eWxlPSJzdG9wLWNvbG9yOiNGRjg2MDMiIG9mZnNldD0iMC4yMDg1MTI3NzkyMzAwNzIiLz4mI3hhOzxzdG9wIHN0eWxlPSJzdG9wLWNvbG9yOiNGRjg2MDQiIG9mZnNldD0iMC4yMDg2MjU2MTgyNzcxMzMiLz4mI3hhOzxzdG9wIHN0eWxlPSJzdG9wLWNvbG9yOiNGRjg2MDUiIG9mZnNldD0iMC4yMDg3Mzg1MDk1NDU0MjkiLz4mI3hhOzxzdG9wIHN0eWxlPSJzdG9wLWNvbG9yOiNGRjg2MDYiIG9mZnNldD0iMC4yMDg4NTE0NTMwODMzMTciLz4mI3hhOzxzdG9wIHN0eWxlPSJzdG9wLWNvbG9yOiNGRjg2MDciIG9mZnNldD0iMC4yMDkwMjA5NzMwNTA0MzIiLz4mI3hhOzxzdG9wIHN0eWxlPSJzdG9wLWNvbG9yOiNGRjg2MDgiIG9mZnNldD0iMC4yMDkyNDcxNzQzNDk3MTkiLz4mI3hhOzxzdG9wIHN0eWxlPSJzdG9wLWNvbG9yOiNGRjg3MDkiIG9mZnNldD0iMC4yMDk0NzM1ODU2MDEyNTMiLz4mI3hhOzxzdG9wIHN0eWxlPSJzdG9wLWNvbG9yOiNGRjg3MEEiIG9mZnNldD0iMC4yMDk3MDAyMDcxOTUxMzUiLz4mI3hhOzxzdG9wIHN0eWxlPSJzdG9wLWNvbG9yOiNGRjg3MEIiIG9mZnNldD0iMC4yMDk5ODM3OTE1Nzg3MjUiLz4mI3hhOzxzdG9wIHN0eWxlPSJzdG9wLWNvbG9yOiNGRjg3MEMiIG9mZnNldD0iMC4yMTAzMjQ1MTUzODU2ODkiLz4mI3hhOzxzdG9wIHN0eWxlPSJzdG9wLWNvbG9yOiNGRjg3MEQiIG9mZnNldD0iMC4yMTA2NjU3MTU3NzY3MDIiLz4mI3hhOzxzdG9wIHN0eWxlPSJzdG9wLWNvbG9yOiNGRjg3MEUiIG9mZnNldD0iMC4yMTEwNjQ0MDI1NjkxMjkiLz4mI3hhOzxzdG9wIHN0eWxlPSJzdG9wLWNvbG9yOiNGRjg3MEYiIG9mZnNldD0iMC4yMTE0MDY2MTM0Nzc0MDciLz4mI3hhOzxzdG9wIHN0eWxlPSJzdG9wLWNvbG9yOiNGRjg4MEYiIG9mZnNldD0iMC4yMTE2MzUwMzg4ODY1MzIiLz4mI3hhOzxzdG9wIHN0eWxlPSJzdG9wLWNvbG9yOiNGRjg4MTAiIG9mZnNldD0iMC4yMTE5NzgxMDU0MDc0NTIiLz4mI3hhOzxzdG9wIHN0eWxlPSJzdG9wLWNvbG9yOiNGRjg4MTEiIG9mZnNldD0iMC4yMTI0MzYyNDM0NTk0NjgiLz4mI3hhOzxzdG9wIHN0eWxlPSJzdG9wLWNvbG9yOiNGRjg4MTIiIG9mZnNldD0iMC4yMTI5NTI2OTk2NDkyNCIvPiYjeGE7PHN0b3Agc3R5bGU9InN0b3AtY29sb3I6I0ZGODgxMyIgb2Zmc2V0PSIwLjIxMzQ3MDIxMDkzMTU1MSIvPiYjeGE7PHN0b3Agc3R5bGU9InN0b3AtY29sb3I6I0ZGODkxMyIgb2Zmc2V0PSIwLjIxMzc1ODE2OTU4MzQwNCIvPiYjeGE7PHN0b3Agc3R5bGU9InN0b3AtY29sb3I6I0ZGODkxNCIgb2Zmc2V0PSIwLjIxNDEwNDI2NDc1MTkwOCIvPiYjeGE7PHN0b3Agc3R5bGU9InN0b3AtY29sb3I6I0ZGODkxNSIgb2Zmc2V0PSIwLjIxNDY4MjA5MjM1NzkzNSIvPiYjeGE7PHN0b3Agc3R5bGU9InN0b3AtY29sb3I6I0ZGODkxNiIgb2Zmc2V0PSIwLjIxNTMxOTMxMjkyMTM2Ii8+JiN4YTs8c3RvcCBzdHlsZT0ic3RvcC1jb2xvcjojRkY4OTE3IiBvZmZzZXQ9IjAuMjE1NzgzNzAxNjEyNDM3Ii8+JiN4YTs8c3RvcCBzdHlsZT0ic3RvcC1jb2xvcjojRkY4QTE3IiBvZmZzZXQ9IjAuMjE2MTMyNjU3MzQ4NzY1Ii8+JiN4YTs8c3RvcCBzdHlsZT0ic3RvcC1jb2xvcjojRkY4QTE4IiBvZmZzZXQ9IjAuMjE2NzE1MzYyMDM0MzYyIi8+JiN4YTs8c3RvcCBzdHlsZT0ic3RvcC1jb2xvcjojRkY4QTE5IiBvZmZzZXQ9IjAuMjE3NDE2Mzk0MTk1MDg4Ii8+JiN4YTs8c3RvcCBzdHlsZT0ic3RvcC1jb2xvcjojRkY4QTFBIiBvZmZzZXQ9IjAuMjE3ODg0Nzk1NjE2NzUiLz4mI3hhOzxzdG9wIHN0eWxlPSJzdG9wLWNvbG9yOiNGRjhCMUEiIG9mZnNldD0iMC4yMTgyOTU1MDExNDc2NDgiLz4mI3hhOzxzdG9wIHN0eWxlPSJzdG9wLWNvbG9yOiNGRjhCMUIiIG9mZnNldD0iMC4yMTkwMDExNTI1MjQ4OTgiLz4mI3hhOzxzdG9wIHN0eWxlPSJzdG9wLWNvbG9yOiNGRjhCMUMiIG9mZnNldD0iMC4yMTk4MjY5MzQ0MDQwMyIvPiYjeGE7PHN0b3Agc3R5bGU9InN0b3AtY29sb3I6I0ZGOEMxRCIgb2Zmc2V0PSIwLjIyMDY1NTUyMTI3NDkyNiIvPiYjeGE7PHN0b3Agc3R5bGU9InN0b3AtY29sb3I6I0ZGOEMxRSIgb2Zmc2V0PSIwLjIyMTQ4NjkzMjI1ODQiLz4mI3hhOzxzdG9wIHN0eWxlPSJzdG9wLWNvbG9yOiNGRjhDMUYiIG9mZnNldD0iMC4yMjIxNDIwOTczMDQxMDYiLz4mI3hhOzxzdG9wIHN0eWxlPSJzdG9wLWNvbG9yOiNGRjhEMUYiIG9mZnNldD0iMC4yMjI1NTk5NzI0OTQ1NjQiLz4mI3hhOzxzdG9wIHN0eWxlPSJzdG9wLWNvbG9yOiNGRjhEMjAiIG9mZnNldD0iMC4yMjMyMTgyNDQ5ODQ2MzUiLz4mI3hhOzxzdG9wIHN0eWxlPSJzdG9wLWNvbG9yOiNGRjhEMjEiIG9mZnNldD0iMC4yMjQxMTg1NDA1MzI4NjYiLz4mI3hhOzxzdG9wIHN0eWxlPSJzdG9wLWNvbG9yOiNGRjhEMjIiIG9mZnNldD0iMC4yMjQ1OTk5NjA5MzE2OSIvPiYjeGE7PHN0b3Agc3R5bGU9InN0b3AtY29sb3I6I0ZGOEUyMiIgb2Zmc2V0PSIwLjIyNTA4MjU3MTkxMzA5OCIvPiYjeGE7PHN0b3Agc3R5bGU9InN0b3AtY29sb3I6I0ZGOEUyMyIgb2Zmc2V0PSIwLjIyNTk4OTg2MjI1ODMxMSIvPiYjeGE7PHN0b3Agc3R5bGU9InN0b3AtY29sb3I6I0ZGOEUyNCIgb2Zmc2V0PSIwLjIyNjY1NzE5MzUxODA2NiIvPiYjeGE7PHN0b3Agc3R5bGU9InN0b3AtY29sb3I6I0ZGOEYyNCIgb2Zmc2V0PSIwLjIyNzE0MzgxNTkzNjU0NCIvPiYjeGE7PHN0b3Agc3R5bGU9InN0b3AtY29sb3I6I0ZGOEYyNSIgb2Zmc2V0PSIwLjIyNzk5NzgxOTg3NjYyOCIvPiYjeGE7PHN0b3Agc3R5bGU9InN0b3AtY29sb3I6I0ZGOEYyNiIgb2Zmc2V0PSIwLjIyODc5MzIxMDE2NTI0MyIvPiYjeGE7PHN0b3Agc3R5bGU9InN0b3AtY29sb3I6I0ZGOTAyNiIgb2Zmc2V0PSIwLjIyOTI4NDA3NTg4NDk3MSIvPiYjeGE7PHN0b3Agc3R5bGU9InN0b3AtY29sb3I6I0ZGOTAyNyIgb2Zmc2V0PSIwLjIzMDAyMjM1NTk3NTAzMyIvPiYjeGE7PHN0b3Agc3R5bGU9InN0b3AtY29sb3I6I0ZGOTAyOCIgb2Zmc2V0PSIwLjIzMDg4NjI5Nzk1ODYzNyIvPiYjeGE7PHN0b3Agc3R5bGU9InN0b3AtY29sb3I6I0ZGOTEyOCIgb2Zmc2V0PSIwLjIzMTQ0MzI4NTQ5NjMwMyIvPiYjeGE7PHN0b3Agc3R5bGU9InN0b3AtY29sb3I6I0ZGOTEyOSIgb2Zmc2V0PSIwLjIzMjEyNjAxMTQ0MTQ1MiIvPiYjeGE7PHN0b3Agc3R5bGU9InN0b3AtY29sb3I6I0ZGOTEyQSIgb2Zmc2V0PSIwLjIzMzA1OTg1MzU5MzM3MiIvPiYjeGE7PHN0b3Agc3R5bGU9InN0b3AtY29sb3I6I0ZGOTIyQSIgb2Zmc2V0PSIwLjIzMzYyMTc4MzQxNTQyNyIvPiYjeGE7PHN0b3Agc3R5bGU9InN0b3AtY29sb3I6I0ZGOTIyQiIgb2Zmc2V0PSIwLjIzNDMxMDcwMjkwMTI1MSIvPiYjeGE7PHN0b3Agc3R5bGU9InN0b3AtY29sb3I6I0ZGOTIyQyIgb2Zmc2V0PSIwLjIzNTI1Mjg4MTA0Mjc4MyIvPiYjeGE7PHN0b3Agc3R5bGU9InN0b3AtY29sb3I6I0ZGOTMyQyIgb2Zmc2V0PSIwLjIzNTc1Njg0NTg3OTI2MiIvPiYjeGE7PHN0b3Agc3R5bGU9InN0b3AtY29sb3I6I0ZGOTMyRCIgb2Zmc2V0PSIwLjIzNjQ1MTgzMjE1NDkzOSIvPiYjeGE7PHN0b3Agc3R5bGU9InN0b3AtY29sb3I6I0ZGOTMyRSIgb2Zmc2V0PSIwLjIzNzQ2NTg3NDM3NTMzNyIvPiYjeGE7PHN0b3Agc3R5bGU9InN0b3AtY29sb3I6I0ZGOTQyRSIgb2Zmc2V0PSIwLjIzODAzODA1NTk3Nzc1NCIvPiYjeGE7PHN0b3Agc3R5bGU9InN0b3AtY29sb3I6I0ZGOTQyRiIgb2Zmc2V0PSIwLjIzODczOTU4MzQ3MzczNiIvPiYjeGE7PHN0b3Agc3R5bGU9InN0b3AtY29sb3I6I0ZGOTQzMCIgb2Zmc2V0PSIwLjIzOTY5OTA1NTgyNTkxNyIvPiYjeGE7PHN0b3Agc3R5bGU9InN0b3AtY29sb3I6I0ZGOTUzMCIgb2Zmc2V0PSIwLjI0MDI3NjU1NTQ4MTI5NyIvPiYjeGE7PHN0b3Agc3R5bGU9InN0b3AtY29sb3I6I0ZGOTUzMSIgb2Zmc2V0PSIwLjI0MTA0ODk5MzkzODE1MSIvPiYjeGE7PHN0b3Agc3R5bGU9InN0b3AtY29sb3I6I0ZGOTUzMiIgb2Zmc2V0PSIwLjI0MjAxNzYxMDAzMDgyNSIvPiYjeGE7PHN0b3Agc3R5bGU9InN0b3AtY29sb3I6I0ZGOTYzMiIgb2Zmc2V0PSIwLjI0MjYwMDYzMDc1OTM1NyIvPiYjeGE7PHN0b3Agc3R5bGU9InN0b3AtY29sb3I6I0ZGOTYzMyIgb2Zmc2V0PSIwLjI0MzM4MDQ3NzU4NTIxNyIvPiYjeGE7PHN0b3Agc3R5bGU9InN0b3AtY29sb3I6I0ZGOTYzNCIgb2Zmc2V0PSIwLjI0NDI5MzA1NDc2MzY4NiIvPiYjeGE7PHN0b3Agc3R5bGU9InN0b3AtY29sb3I6I0ZGOTczNCIgb2Zmc2V0PSIwLjI0NDg4MTU5NzkyOTAyOCIvPiYjeGE7PHN0b3Agc3R5bGU9InN0b3AtY29sb3I6I0ZGOTczNSIgb2Zmc2V0PSIwLjI0NTczNDQ2MDQzODc3NiIvPiYjeGE7PHN0b3Agc3R5bGU9InN0b3AtY29sb3I6I0ZGOTczNiIgb2Zmc2V0PSIwLjI0NjU4OTkzMDQ1OTI5OCIvPiYjeGE7PHN0b3Agc3R5bGU9InN0b3AtY29sb3I6I0ZGOTgzNiIgb2Zmc2V0PSIwLjI0NzE4NDEwMTY5OTIzNiIvPiYjeGE7PHN0b3Agc3R5bGU9InN0b3AtY29sb3I6I0ZGOTgzNyIgb2Zmc2V0PSIwLjI0ODExMTM4MDk3NjY5NSIvPiYjeGE7PHN0b3Agc3R5bGU9InN0b3AtY29sb3I6I0ZGOTgzOCIgb2Zmc2V0PSIwLjI0ODkwODY0NDc1MTY3MiIvPiYjeGE7PHN0b3Agc3R5bGU9InN0b3AtY29sb3I6I0ZGOTkzOCIgb2Zmc2V0PSIwLjI0OTU3NTMzMDgzODcxOSIvPiYjeGE7PHN0b3Agc3R5bGU9InN0b3AtY29sb3I6I0ZGOTkzOSIgb2Zmc2V0PSIwLjI1MDY0NTczNjIyMjc5NiIvPiYjeGE7PHN0b3Agc3R5bGU9InN0b3AtY29sb3I6I0ZGOTkzQSIgb2Zmc2V0PSIwLjI1MTMxNjgyNDM0Mjc5NiIvPiYjeGE7PHN0b3Agc3R5bGU9InN0b3AtY29sb3I6I0ZGOUEzQSIgb2Zmc2V0PSIwLjI1MTkyMjgwNDAwNjExNiIvPiYjeGE7PHN0b3Agc3R5bGU9InN0b3AtY29sb3I6I0ZGOUEzQiIgb2Zmc2V0PSIwLjI1MzAwMzQ4NDAwMzE0MyIvPiYjeGE7PHN0b3Agc3R5bGU9InN0b3AtY29sb3I6I0ZGOUIzQiIgb2Zmc2V0PSIwLjI1MzYxMzI3ODg0Mzg4OCIvPiYjeGE7PHN0b3Agc3R5bGU9InN0b3AtY29sb3I6I0ZGOUIzQyIgb2Zmc2V0PSIwLjI1NDI5MzA5NDc4Mzg0MiIvPiYjeGE7PHN0b3Agc3R5bGU9InN0b3AtY29sb3I6I0ZGOUIzRCIgb2Zmc2V0PSIwLjI1NTM4NDI0ODU5MTcwNiIvPiYjeGE7PHN0b3Agc3R5bGU9InN0b3AtY29sb3I6I0ZGOUMzRCIgb2Zmc2V0PSIwLjI1NjAwMDA4NzMxNzAxMyIvPiYjeGE7PHN0b3Agc3R5bGU9InN0b3AtY29sb3I6I0ZGOUMzRSIgb2Zmc2V0PSIwLjI1Njc1NTMyMTgwNDExOSIvPiYjeGE7PHN0b3Agc3R5bGU9InN0b3AtY29sb3I6I0ZGOUMzRiIgb2Zmc2V0PSIwLjI1NzcxOTQyNDYyMDAxMiIvPiYjeGE7PHN0b3Agc3R5bGU9InN0b3AtY29sb3I6I0ZGOUQzRiIgb2Zmc2V0PSIwLjI1ODM0MTMxMDc3MjA4MiIvPiYjeGE7PHN0b3Agc3R5bGU9InN0b3AtY29sb3I6I0ZGOUQ0MCIgb2Zmc2V0PSIwLjI1OTI0MjY1NTc4OTA5MiIvPiYjeGE7PHN0b3Agc3R5bGU9InN0b3AtY29sb3I6I0ZGOUQ0MSIgb2Zmc2V0PSIwLjI2MDE0NjkxMzcwNzI1NCIvPiYjeGE7PHN0b3Agc3R5bGU9InN0b3AtY29sb3I6I0ZGOUU0MSIgb2Zmc2V0PSIwLjI2MDc3NTA4NzEwNDE3OSIvPiYjeGE7PHN0b3Agc3R5bGU9InN0b3AtY29sb3I6I0ZGOUU0MiIgb2Zmc2V0PSIwLjI2MTc1NTYxNDA0MzI5NSIvPiYjeGE7PHN0b3Agc3R5bGU9InN0b3AtY29sb3I6I0ZGOUU0MyIgb2Zmc2V0PSIwLjI2MjUyODM5NDA5MTM1NSIvPiYjeGE7PHN0b3Agc3R5bGU9InN0b3AtY29sb3I6I0ZGOUY0MyIgb2Zmc2V0PSIwLjI2MzE2Mjg2MDk2NjkyNSIvPiYjeGE7PHN0b3Agc3R5bGU9InN0b3AtY29sb3I6I0ZGOUY0NCIgb2Zmc2V0PSIwLjI2NDI5NDczMDAyNTY5OSIvPiYjeGE7PHN0b3Agc3R5bGU9InN0b3AtY29sb3I6I0ZGQTA0NSIgb2Zmc2V0PSIwLjI2NTU3NDI2ODQ1NDY3NyIvPiYjeGE7PHN0b3Agc3R5bGU9InN0b3AtY29sb3I6I0ZGQTA0NiIgb2Zmc2V0PSIwLjI2NjcxNzE4NTg5NTI4OSIvPiYjeGE7PHN0b3Agc3R5bGU9InN0b3AtY29sb3I6I0ZGQTE0NiIgb2Zmc2V0PSIwLjI2NzM2MjM0MjQ5ODkwNyIvPiYjeGE7PHN0b3Agc3R5bGU9InN0b3AtY29sb3I6I0ZGQTE0NyIgb2Zmc2V0PSIwLjI2ODE1MzY1ODI4NDM2Ii8+JiN4YTs8c3RvcCBzdHlsZT0ic3RvcC1jb2xvcjojRkZBMTQ4IiBvZmZzZXQ9IjAuMjY5MTYzOTY2NTA2Mzg4Ii8+JiN4YTs8c3RvcCBzdHlsZT0ic3RvcC1jb2xvcjojRkZBMjQ4IiBvZmZzZXQ9IjAuMjY5ODE1NzYzMTM2NTg4Ii8+JiN4YTs8c3RvcCBzdHlsZT0ic3RvcC1jb2xvcjojRkZBMjQ5IiBvZmZzZXQ9IjAuMjcwNjg3NzYwMjUzMzMzIi8+JiN4YTs8c3RvcCBzdHlsZT0ic3RvcC1jb2xvcjojRkZBMjRBIiBvZmZzZXQ9IjAuMjcxNTYyNTM3MDA1Mjg4Ii8+JiN4YTs8c3RvcCBzdHlsZT0ic3RvcC1jb2xvcjojRkZBMzRBIiBvZmZzZXQ9IjAuMjcyMjIwODQ4NTM0NzExIi8+JiN4YTs8c3RvcCBzdHlsZT0ic3RvcC1jb2xvcjojRkZBMzRCIiBvZmZzZXQ9IjAuMjczMjQ4NTg4NjcxMjAxIi8+JiN4YTs8c3RvcCBzdHlsZT0ic3RvcC1jb2xvcjojRkZBMzRDIiBvZmZzZXQ9IjAuMjczOTg0OTAzNzYyMTEzIi8+JiN4YTs8c3RvcCBzdHlsZT0ic3RvcC1jb2xvcjojRkZBNDRDIiBvZmZzZXQ9IjAuMjc0NjQ5OTk2MjAzODM1Ii8+JiN4YTs8c3RvcCBzdHlsZT0ic3RvcC1jb2xvcjojRkZBNDREIiBvZmZzZXQ9IjAuMjc1ODM2NDU5MjY0Njg5Ii8+JiN4YTs8c3RvcCBzdHlsZT0ic3RvcC1jb2xvcjojRkZBNTRFIiBvZmZzZXQ9IjAuMjc3MTAzNDk2NDI0NTMyIi8+JiN4YTs8c3RvcCBzdHlsZT0ic3RvcC1jb2xvcjojRkZBNTRGIiBvZmZzZXQ9IjAuMjc4MjI2NzMxNjI3NDM1Ii8+JiN4YTs8c3RvcCBzdHlsZT0ic3RvcC1jb2xvcjojRkZBNjRGIiBvZmZzZXQ9IjAuMjc4ODI3ODgwMzUxNzcyIi8+JiN4YTs8c3RvcCBzdHlsZT0ic3RvcC1jb2xvcjojRkZBNjUwIiBvZmZzZXQ9IjAuMjc5NjU3MzU2NjMwMzE1Ii8+JiN4YTs8c3RvcCBzdHlsZT0ic3RvcC1jb2xvcjojRkZBNjUxIiBvZmZzZXQ9IjAuMjgwNjQwNjg3MTYxNjUyIi8+JiN4YTs8c3RvcCBzdHlsZT0ic3RvcC1jb2xvcjojRkZBNzUxIiBvZmZzZXQ9IjAuMjgxMjQ3OTQ2NjQ2MzM1Ii8+JiN4YTs8c3RvcCBzdHlsZT0ic3RvcC1jb2xvcjojRkZBNzUyIiBvZmZzZXQ9IjAuMjgyMjM4MjM3NTk3NjU2Ii8+JiN4YTs8c3RvcCBzdHlsZT0ic3RvcC1jb2xvcjojRkZBNzUzIiBvZmZzZXQ9IjAuMjgzMTU1NDA3MTA2NTg4Ii8+JiN4YTs8c3RvcCBzdHlsZT0ic3RvcC1jb2xvcjojRkZBODUzIiBvZmZzZXQ9IjAuMjgzNzY5MDMxNTMzMDQ1Ii8+JiN4YTs8c3RvcCBzdHlsZT0ic3RvcC1jb2xvcjojRkZBODU0IiBvZmZzZXQ9IjAuMjg0ODQ2NzE3MjI2Njk3Ii8+JiN4YTs8c3RvcCBzdHlsZT0ic3RvcC1jb2xvcjojRkZBODU1IiBvZmZzZXQ9IjAuMjg1NjE4OTI4NTQyNTc5Ii8+JiN4YTs8c3RvcCBzdHlsZT0ic3RvcC1jb2xvcjojRkZBOTU1IiBvZmZzZXQ9IjAuMjg2MjM4OTIxNTA0Nzg5Ii8+JiN4YTs8c3RvcCBzdHlsZT0ic3RvcC1jb2xvcjojRkZBOTU2IiBvZmZzZXQ9IjAuMjg3NDA1MzY0MTU3Nzc1Ii8+JiN4YTs8c3RvcCBzdHlsZT0ic3RvcC1jb2xvcjojRkZBQTU3IiBvZmZzZXQ9IjAuMjg4NjU1NjgxOTUxNjQxIi8+JiN4YTs8c3RvcCBzdHlsZT0ic3RvcC1jb2xvcjojRkZBQTU4IiBvZmZzZXQ9IjAuMjg5NzU0ODczNDg1OTc3Ii8+JiN4YTs8c3RvcCBzdHlsZT0ic3RvcC1jb2xvcjojRkZBQjU4IiBvZmZzZXQ9IjAuMjkwNDY0MDgyMjc5Mjg2Ii8+JiN4YTs8c3RvcCBzdHlsZT0ic3RvcC1jb2xvcjojRkZBQjU5IiBvZmZzZXQ9IjAuMjkxMzM0MDc4OTAyOTczIi8+JiN4YTs8c3RvcCBzdHlsZT0ic3RvcC1jb2xvcjojRkZBQjVBIiBvZmZzZXQ9IjAuMjkyMjg2MjUzNjk3NTc3Ii8+JiN4YTs8c3RvcCBzdHlsZT0ic3RvcC1jb2xvcjojRkZBQzVBIiBvZmZzZXQ9IjAuMjkyOTIzMjQ2MTA5MjA2Ii8+JiN4YTs8c3RvcCBzdHlsZT0ic3RvcC1jb2xvcjojRkZBQzVCIiBvZmZzZXQ9IjAuMjkzODgyMDc0NjEyMTY4Ii8+JiN4YTs8c3RvcCBzdHlsZT0ic3RvcC1jb2xvcjojRkZBQzVDIiBvZmZzZXQ9IjAuMjk0NzYzODg4ODc0MjA4Ii8+JiN4YTs8c3RvcCBzdHlsZT0ic3RvcC1jb2xvcjojRkZBRDVDIiBvZmZzZXQ9IjAuMjk1NDA3NDYzNjAxOTM1Ii8+JiN4YTs8c3RvcCBzdHlsZT0ic3RvcC1jb2xvcjojRkZBRDVEIiBvZmZzZXQ9IjAuMjk2NDU2OTY2NDY1ODEiLz4mI3hhOzxzdG9wIHN0eWxlPSJzdG9wLWNvbG9yOiNGRkFENUUiIG9mZnNldD0iMC4yOTcxODU3OTU2NjM3MjgiLz4mI3hhOzxzdG9wIHN0eWxlPSJzdG9wLWNvbG9yOiNGRkFFNUUiIG9mZnNldD0iMC4yOTc4MzU5NDU4NDIzNjkiLz4mI3hhOzxzdG9wIHN0eWxlPSJzdG9wLWNvbG9yOiNGRkFFNUYiIG9mZnNldD0iMC4yOTkwNTkzMjgzNDkzMTUiLz4mI3hhOzxzdG9wIHN0eWxlPSJzdG9wLWNvbG9yOiNGRkFGNjAiIG9mZnNldD0iMC4zMDAyODg3Mzk2MjYxNTYiLz4mI3hhOzxzdG9wIHN0eWxlPSJzdG9wLWNvbG9yOiNGRkFGNjEiIG9mZnNldD0iMC4zMDE0NDE4NzIwOTQ5MTEiLz4mI3hhOzxzdG9wIHN0eWxlPSJzdG9wLWNvbG9yOiNGRkIwNjEiIG9mZnNldD0iMC4zMDIxMDMwMzU5MDkyNzUiLz4mI3hhOzxzdG9wIHN0eWxlPSJzdG9wLWNvbG9yOiNGRkIwNjIiIG9mZnNldD0iMC4zMDI4NDk1NDMzMDg5ODIiLz4mI3hhOzxzdG9wIHN0eWxlPSJzdG9wLWNvbG9yOiNGRkIwNjMiIG9mZnNldD0iMC4zMDM5MzEyNjYzMjQzNjciLz4mI3hhOzxzdG9wIHN0eWxlPSJzdG9wLWNvbG9yOiNGRkIxNjMiIG9mZnNldD0iMC4zMDQ1OTkzNzE1ODQ3NDkiLz4mI3hhOzxzdG9wIHN0eWxlPSJzdG9wLWNvbG9yOiNGRkIxNjQiIG9mZnNldD0iMC4zMDU0MzczNzI3OTgwNzIiLz4mI3hhOzxzdG9wIHN0eWxlPSJzdG9wLWNvbG9yOiNGRkIxNjUiIG9mZnNldD0iMC4zMDYzNjIxMzk1ODg5NTciLz4mI3hhOzxzdG9wIHN0eWxlPSJzdG9wLWNvbG9yOiNGRkIyNjUiIG9mZnNldD0iMC4zMDcwMzcwMjIzNzk2MDUiLz4mI3hhOzxzdG9wIHN0eWxlPSJzdG9wLWNvbG9yOiNGRkIyNjYiIG9mZnNldD0iMC4zMDgwNTMwOTY0ODE0MTciLz4mI3hhOzxzdG9wIHN0eWxlPSJzdG9wLWNvbG9yOiNGRkIyNjciIG9mZnNldD0iMC4zMDg5MDI1NzYzNDgxMzQiLz4mI3hhOzxzdG9wIHN0eWxlPSJzdG9wLWNvbG9yOiNGRkIzNjciIG9mZnNldD0iMC4zMDk0OTkyODk1MzcxNiIvPiYjeGE7PHN0b3Agc3R5bGU9InN0b3AtY29sb3I6I0ZGQjM2OCIgb2Zmc2V0PSIwLjMxMDYxMTM2MDEyNDE3OSIvPiYjeGE7PHN0b3Agc3R5bGU9InN0b3AtY29sb3I6I0ZGQjM2OSIgb2Zmc2V0PSIwLjMxMTM4Mzc4MjE0NTM1Ii8+JiN4YTs8c3RvcCBzdHlsZT0ic3RvcC1jb2xvcjojRkZCNDY5IiBvZmZzZXQ9IjAuMzExOTg2Njc1NTI2OTE3Ii8+JiN4YTs8c3RvcCBzdHlsZT0ic3RvcC1jb2xvcjojRkZCNDZBIiBvZmZzZXQ9IjAuMzEzMTEwMDM5MjEwNzQ0Ii8+JiN4YTs8c3RvcCBzdHlsZT0ic3RvcC1jb2xvcjojRkZCNDZCIiBvZmZzZXQ9IjAuMzEzODAzNjMxODA3MjY2Ii8+JiN4YTs8c3RvcCBzdHlsZT0ic3RvcC1jb2xvcjojRkZCNTZCIiBvZmZzZXQ9IjAuMzE0NDk5Njk4MzY4NzYyIi8+JiN4YTs8c3RvcCBzdHlsZT0ic3RvcC1jb2xvcjojRkZCNTZDIiBvZmZzZXQ9IjAuMzE1NjM0NTg2OTI5NzYiLz4mI3hhOzxzdG9wIHN0eWxlPSJzdG9wLWNvbG9yOiNGRkI2NkMiIG9mZnNldD0iMC4zMTYyNDc3MjczMjU1MzIiLz4mI3hhOzxzdG9wIHN0eWxlPSJzdG9wLWNvbG9yOiNGRkI2NkQiIG9mZnNldD0iMC4zMTY5NTA4MTU4MjMwNDkiLz4mI3hhOzxzdG9wIHN0eWxlPSJzdG9wLWNvbG9yOiNGRkI2NkUiIG9mZnNldD0iMC4zMTgwOTcxOTE4NDE3OTYiLz4mI3hhOzxzdG9wIHN0eWxlPSJzdG9wLWNvbG9yOiNGRkI3NkUiIG9mZnNldD0iMC4zMTg3MTY1NTk0ODc5NTIiLz4mI3hhOzxzdG9wIHN0eWxlPSJzdG9wLWNvbG9yOiNGRkI3NkYiIG9mZnNldD0iMC4zMTk1MTU3ODkwMzU1MzciLz4mI3hhOzxzdG9wIHN0eWxlPSJzdG9wLWNvbG9yOiNGRkI3NzAiIG9mZnNldD0iMC4zMjA1ODQ4MDI0NzU2NTEiLz4mI3hhOzxzdG9wIHN0eWxlPSJzdG9wLWNvbG9yOiNGRkI4NzAiIG9mZnNldD0iMC4zMjEyMTA2Nzc5NTA3NSIvPiYjeGE7PHN0b3Agc3R5bGU9InN0b3AtY29sb3I6I0ZGQjg3MSIgb2Zmc2V0PSIwLjMyMjEwNzg1NjE1OTIzNyIvPiYjeGE7PHN0b3Agc3R5bGU9InN0b3AtY29sb3I6I0ZGQjg3MiIgb2Zmc2V0PSIwLjMyMzA5ODE1MjA1NTg2NiIvPiYjeGE7PHN0b3Agc3R5bGU9InN0b3AtY29sb3I6I0ZGQjk3MiIgb2Zmc2V0PSIwLjMyMzczMDUxNzUxOTExMiIvPiYjeGE7PHN0b3Agc3R5bGU9InN0b3AtY29sb3I6I0ZGQjk3MyIgb2Zmc2V0PSIwLjMyNDYzNzAzMTI2OTYxNSIvPiYjeGE7PHN0b3Agc3R5bGU9InN0b3AtY29sb3I6I0ZGQjk3NCIgb2Zmc2V0PSIwLjMyNTU0NjQ3NDA5MTMzOSIvPiYjeGE7PHN0b3Agc3R5bGU9InN0b3AtY29sb3I6I0ZGQkE3NCIgb2Zmc2V0PSIwLjMyNjE4NTMwNjE3MzY1MiIvPiYjeGE7PHN0b3Agc3R5bGU9InN0b3AtY29sb3I6I0ZGQkE3NSIgb2Zmc2V0PSIwLjMyNzE5MjcwNDU4Nzg3MSIvPiYjeGE7PHN0b3Agc3R5bGU9InN0b3AtY29sb3I6I0ZGQkE3NiIgb2Zmc2V0PSIwLjMyODAxOTYyOTYxNTE3MSIvPiYjeGE7PHN0b3Agc3R5bGU9InN0b3AtY29sb3I6I0ZGQkI3NiIgb2Zmc2V0PSIwLjMyODY2NTA2MTk4MDQzOCIvPiYjeGE7PHN0b3Agc3R5bGU9InN0b3AtY29sb3I6I0ZGQkI3NyIgb2Zmc2V0PSIwLjMyOTY4MjY0ODA1MTU1NCIvPiYjeGE7PHN0b3Agc3R5bGU9InN0b3AtY29sb3I6I0ZGQkI3OCIgb2Zmc2V0PSIwLjMzMDQyNTE1MDA5NTY5MiIvPiYjeGE7PHN0b3Agc3R5bGU9InN0b3AtY29sb3I6I0ZGQkM3OCIgb2Zmc2V0PSIwLjMzMTA3Njk4ODU2NDExIi8+JiN4YTs8c3RvcCBzdHlsZT0ic3RvcC1jb2xvcjojRkZCQzc5IiBvZmZzZXQ9IjAuMzMyMTk4NDI0MDgwNDkyIi8+JiN4YTs8c3RvcCBzdHlsZT0ic3RvcC1jb2xvcjojRkZCQzdBIiBvZmZzZXQ9IjAuMzMyOTQ4NTM3MDYxMTU4Ii8+JiN4YTs8c3RvcCBzdHlsZT0ic3RvcC1jb2xvcjojRkZCRDdBIiBvZmZzZXQ9IjAuMzMzNjA3MjQ4Nzk4MTE2Ii8+JiN4YTs8c3RvcCBzdHlsZT0ic3RvcC1jb2xvcjojRkZCRDdCIiBvZmZzZXQ9IjAuMzM0NzQwMjU5MzczNjM0Ii8+JiN4YTs8c3RvcCBzdHlsZT0ic3RvcC1jb2xvcjojRkZCRDdDIiBvZmZzZXQ9IjAuMzM1NDAzNDA1MzIyMzIxIi8+JiN4YTs8c3RvcCBzdHlsZT0ic3RvcC1jb2xvcjojRkZCRTdDIiBvZmZzZXQ9IjAuMzM2MDY4NzkwODQxNDYyIi8+JiN4YTs8c3RvcCBzdHlsZT0ic3RvcC1jb2xvcjojRkZCRTdEIiBvZmZzZXQ9IjAuMzM3MzA5MDIxMDE3MDQ3Ii8+JiN4YTs8c3RvcCBzdHlsZT0ic3RvcC1jb2xvcjojRkZCRjdFIiBvZmZzZXQ9IjAuMzM4NTU1NDI1ODAyMjQ1Ii8+JiN4YTs8c3RvcCBzdHlsZT0ic3RvcC1jb2xvcjojRkZCRjdGIiBvZmZzZXQ9IjAuMzM5ODA4Mzk2OTUxMDU5Ii8+JiN4YTs8c3RvcCBzdHlsZT0ic3RvcC1jb2xvcjojRkZDMDgwIiBvZmZzZXQ9IjAuMzQxMDY3NjcwNTQ4NDA5Ii8+JiN4YTs8c3RvcCBzdHlsZT0ic3RvcC1jb2xvcjojRkZDMDgxIiBvZmZzZXQ9IjAuMzQyMjM1OTUyNjI5MTczIi8+JiN4YTs8c3RvcCBzdHlsZT0ic3RvcC1jb2xvcjojRkZDMTgxIiBvZmZzZXQ9IjAuMzQyOTE5ODE0MzkxNTg2Ii8+JiN4YTs8c3RvcCBzdHlsZT0ic3RvcC1jb2xvcjojRkZDMTgyIiBvZmZzZXQ9IjAuMzQzNjA2MDU4MDg0MDUxIi8+JiN4YTs8c3RvcCBzdHlsZT0ic3RvcC1jb2xvcjojRkZDMTgzIiBvZmZzZXQ9IjAuMzQ0Nzg2NTkwNDY1NDM1Ii8+JiN4YTs8c3RvcCBzdHlsZT0ic3RvcC1jb2xvcjojRkZDMjg0IiBvZmZzZXQ9IjAuMzQ2MDcyMDY4MjE1Nzg4Ii8+JiN4YTs8c3RvcCBzdHlsZT0ic3RvcC1jb2xvcjojRkZDMjg1IiBvZmZzZXQ9IjAuMzQ3MjY0NDYyNTg5NDgiLz4mI3hhOzxzdG9wIHN0eWxlPSJzdG9wLWNvbG9yOiNGRkMzODUiIG9mZnNldD0iMC4zNDc4NjI3NzAyOTU2MTYiLz4mI3hhOzxzdG9wIHN0eWxlPSJzdG9wLWNvbG9yOiNGRkMzODYiIG9mZnNldD0iMC4zNDg1NjMwODY1MzAxNTMiLz4mI3hhOzxzdG9wIHN0eWxlPSJzdG9wLWNvbG9yOiNGRkMzODciIG9mZnNldD0iMC4zNDk2NjcyMDgxNDUzMTIiLz4mI3hhOzxzdG9wIHN0eWxlPSJzdG9wLWNvbG9yOiNGRkM0ODciIG9mZnNldD0iMC4zNTAzNzIzNDQyNTk5NTciLz4mI3hhOzxzdG9wIHN0eWxlPSJzdG9wLWNvbG9yOiNGRkM0ODgiIG9mZnNldD0iMC4zNTExODExMDkwMzExMTQiLz4mI3hhOzxzdG9wIHN0eWxlPSJzdG9wLWNvbG9yOiNGRkM0ODkiIG9mZnNldD0iMC4zNTIyOTcxNzA5MzE2MjciLz4mI3hhOzxzdG9wIHN0eWxlPSJzdG9wLWNvbG9yOiNGRkM1ODkiIG9mZnNldD0iMC4zNTI5MDc5NjI5NDgxNjEiLz4mI3hhOzxzdG9wIHN0eWxlPSJzdG9wLWNvbG9yOiNGRkM1OEEiIG9mZnNldD0iMC4zNTM2MjI5NDA5Njk4MiIvPiYjeGE7PHN0b3Agc3R5bGU9InN0b3AtY29sb3I6I0ZGQzU4QiIgb2Zmc2V0PSIwLjM1NDc1MDI1NjIwMTM0MSIvPiYjeGE7PHN0b3Agc3R5bGU9InN0b3AtY29sb3I6I0ZGQzY4QiIgb2Zmc2V0PSIwLjM1NTM2NzIyNzYxNzE1MyIvPiYjeGE7PHN0b3Agc3R5bGU9InN0b3AtY29sb3I6I0ZGQzY4QyIgb2Zmc2V0PSIwLjM1NjA4OTQ2MzU3MzkxMiIvPiYjeGE7PHN0b3Agc3R5bGU9InN0b3AtY29sb3I6I0ZGQzY4RCIgb2Zmc2V0PSIwLjM1NzIyODI2MTM4NTA0OSIvPiYjeGE7PHN0b3Agc3R5bGU9InN0b3AtY29sb3I6I0ZGQzc4RCIgb2Zmc2V0PSIwLjM1Nzg1MTUzODUxMjQ4OCIvPiYjeGE7PHN0b3Agc3R5bGU9InN0b3AtY29sb3I6I0ZGQzc4RSIgb2Zmc2V0PSIwLjM1ODU4MTE4MTI3MDI5NSIvPiYjeGE7PHN0b3Agc3R5bGU9InN0b3AtY29sb3I6I0ZGQzc4RiIgb2Zmc2V0PSIwLjM1OTczMTY5Nzk4NzAxNiIvPiYjeGE7PHN0b3Agc3R5bGU9InN0b3AtY29sb3I6I0ZGQzg4RiIgb2Zmc2V0PSIwLjM2MDM2MTQxMTA1MTMzNSIvPiYjeGE7PHN0b3Agc3R5bGU9InN0b3AtY29sb3I6I0ZGQzg5MCIgb2Zmc2V0PSIwLjM2MTA5ODYxNDEwMzY0Ii8+JiN4YTs8c3RvcCBzdHlsZT0ic3RvcC1jb2xvcjojRkZDODkxIiBvZmZzZXQ9IjAuMzYyMjYxMDkzNDIzNjMxIi8+JiN4YTs8c3RvcCBzdHlsZT0ic3RvcC1jb2xvcjojRkZDOTkxIiBvZmZzZXQ9IjAuMzYyODk3Mzc2NzI2Mjg0Ii8+JiN4YTs8c3RvcCBzdHlsZT0ic3RvcC1jb2xvcjojRkZDOTkyIiBvZmZzZXQ9IjAuMzYzNjQyMjk4Mzg3ODQiLz4mI3hhOzxzdG9wIHN0eWxlPSJzdG9wLWNvbG9yOiNGRkM5OTMiIG9mZnNldD0iMC4zNjQ4MTY5OTE2OTAzMjEiLz4mI3hhOzxzdG9wIHN0eWxlPSJzdG9wLWNvbG9yOiNGRkNBOTQiIG9mZnNldD0iMC4zNjU5OTc1NDIzNzA4OTkiLz4mI3hhOzxzdG9wIHN0eWxlPSJzdG9wLWNvbG9yOiNGRkNBOTUiIG9mZnNldD0iMC4zNjcxODM2NTk0ODY4MzQiLz4mI3hhOzxzdG9wIHN0eWxlPSJzdG9wLWNvbG9yOiNGRkNCOTUiIG9mZnNldD0iMC4zNjc4MzI5MjY3OTEwNzciLz4mI3hhOzxzdG9wIHN0eWxlPSJzdG9wLWNvbG9yOiNGRkNCOTYiIG9mZnNldD0iMC4zNjg1OTMxMDM0ODM2MjMiLz4mI3hhOzxzdG9wIHN0eWxlPSJzdG9wLWNvbG9yOiNGRkNCOTciIG9mZnNldD0iMC4zNjk3OTE5MzkwNjg0MTIiLz4mI3hhOzxzdG9wIHN0eWxlPSJzdG9wLWNvbG9yOiNGRkNDOTgiIG9mZnNldD0iMC4zNzA5OTY4NzU4OTMxOCIvPiYjeGE7PHN0b3Agc3R5bGU9InN0b3AtY29sb3I6I0ZGQ0M5OSIgb2Zmc2V0PSIwLjM3MjMxODA3NzQzNTk4MSIvPiYjeGE7PHN0b3Agc3R5bGU9InN0b3AtY29sb3I6I0ZGQ0Q5QSIgb2Zmc2V0PSIwLjM3MzUzNTQwNDk1ODM2MyIvPiYjeGE7PHN0b3Agc3R5bGU9InN0b3AtY29sb3I6I0ZGQ0Q5QiIgb2Zmc2V0PSIwLjM3NDc1OTAyMzg4OTMzMyIvPiYjeGE7PHN0b3Agc3R5bGU9InN0b3AtY29sb3I6I0ZGQ0U5QyIgb2Zmc2V0PSIwLjM3NTk4ODYyMzgzODE4MyIvPiYjeGE7PHN0b3Agc3R5bGU9InN0b3AtY29sb3I6I0ZGQ0U5RCIgb2Zmc2V0PSIwLjM3NzIyNDY0MzAyMzEzNCIvPiYjeGE7PHN0b3Agc3R5bGU9InN0b3AtY29sb3I6I0ZGQ0Y5RSIgb2Zmc2V0PSIwLjM3ODQ2Njc2NTM2NzI2MSIvPiYjeGE7PHN0b3Agc3R5bGU9InN0b3AtY29sb3I6I0ZGQ0Y5RiIgb2Zmc2V0PSIwLjM3OTcxNTQzODcxMDczNSIvPiYjeGE7PHN0b3Agc3R5bGU9InN0b3AtY29sb3I6I0ZGQ0ZBMCIgb2Zmc2V0PSIwLjM4MDUxMzAxNjQzMDI5OCIvPiYjeGE7PHN0b3Agc3R5bGU9InN0b3AtY29sb3I6I0ZGRDBBMCIgb2Zmc2V0PSIwLjM4MTA4NDY3MjMxMDgzNSIvPiYjeGE7PHN0b3Agc3R5bGU9InN0b3AtY29sb3I6I0ZGRDBBMSIgb2Zmc2V0PSIwLjM4MjExNjg4MDIwNDgyMyIvPiYjeGE7PHN0b3Agc3R5bGU9InN0b3AtY29sb3I6I0ZGRDBBMiIgb2Zmc2V0PSIwLjM4MjkyMjQ4NTMzODMyNCIvPiYjeGE7PHN0b3Agc3R5bGU9InN0b3AtY29sb3I6I0ZGRDFBMiIgb2Zmc2V0PSIwLjM4MzYxNTQwMTAxMTk3OCIvPiYjeGE7PHN0b3Agc3R5bGU9InN0b3AtY29sb3I6I0ZGRDFBMyIgb2Zmc2V0PSIwLjM4NDY1ODM5NzM0OTI5MSIvPiYjeGE7PHN0b3Agc3R5bGU9InN0b3AtY29sb3I6I0ZGRDFBNCIgb2Zmc2V0PSIwLjM4NTQ3MjQ1MTkzNTQ0NiIvPiYjeGE7PHN0b3Agc3R5bGU9InN0b3AtY29sb3I6I0ZGRDJBNCIgb2Zmc2V0PSIwLjM4NjA1NTc3Mjg2NDk3MSIvPiYjeGE7PHN0b3Agc3R5bGU9InN0b3AtY29sb3I6I0ZGRDJBNSIgb2Zmc2V0PSIwLjM4NzEwOTQ0ODQwODMxOSIvPiYjeGE7PHN0b3Agc3R5bGU9InN0b3AtY29sb3I6I0ZGRDJBNiIgb2Zmc2V0PSIwLjM4ODA0OTM1NjQ2NjcxMiIvPiYjeGE7PHN0b3Agc3R5bGU9InN0b3AtY29sb3I6I0ZGRDNBNiIgb2Zmc2V0PSIwLjM4ODYzODg4MDIxODAyNyIvPiYjeGE7PHN0b3Agc3R5bGU9InN0b3AtY29sb3I6I0ZGRDNBNyIgb2Zmc2V0PSIwLjM4OTU4NTE2ODkzODUyNiIvPiYjeGE7PHN0b3Agc3R5bGU9InN0b3AtY29sb3I6I0ZGRDNBOCIgb2Zmc2V0PSIwLjM5MDUzNDgzNDY4MjU4NiIvPiYjeGE7PHN0b3Agc3R5bGU9InN0b3AtY29sb3I6I0ZGRDRBOCIgb2Zmc2V0PSIwLjM5MTEzMDMwNjcwNjM1MyIvPiYjeGE7PHN0b3Agc3R5bGU9InN0b3AtY29sb3I6I0ZGRDRBOSIgb2Zmc2V0PSIwLjM5MTk2NjY5MDcxNDcwMyIvPiYjeGE7PHN0b3Agc3R5bGU9InN0b3AtY29sb3I6I0ZGRDRBQSIgb2Zmc2V0PSIwLjM5MzA0NTkxOTQ0OTg1NSIvPiYjeGE7PHN0b3Agc3R5bGU9InN0b3AtY29sb3I6I0ZGRDVBQSIgb2Zmc2V0PSIwLjM5Mzc2ODAwNzA5MDUwNCIvPiYjeGE7PHN0b3Agc3R5bGU9InN0b3AtY29sb3I6I0ZGRDVBQiIgb2Zmc2V0PSIwLjM5NDYxMzUwMjE3NTQ1MyIvPiYjeGE7PHN0b3Agc3R5bGU9InN0b3AtY29sb3I6I0ZGRDVBQyIgb2Zmc2V0PSIwLjM5NTcwNDUzMDI2ODU5OCIvPiYjeGE7PHN0b3Agc3R5bGU9InN0b3AtY29sb3I6I0ZGRDZBQyIgb2Zmc2V0PSIwLjM5NjMxMjY3MDQ2MDIwOSIvPiYjeGE7PHN0b3Agc3R5bGU9InN0b3AtY29sb3I6I0ZGRDZBRCIgb2Zmc2V0PSIwLjM5NzA0NDg3Mjk5MDQzMiIvPiYjeGE7PHN0b3Agc3R5bGU9InN0b3AtY29sb3I6I0ZGRDZBRSIgb2Zmc2V0PSIwLjM5ODI2OTcwNzA2ODQ4NSIvPiYjeGE7PHN0b3Agc3R5bGU9InN0b3AtY29sb3I6I0ZGRDdBRiIgb2Zmc2V0PSIwLjM5OTUwMDcyMjMwNDcxMSIvPiYjeGE7PHN0b3Agc3R5bGU9InN0b3AtY29sb3I6I0ZGRDdCMCIgb2Zmc2V0PSIwLjQwMDczNzk4MTQwMjU3MiIvPiYjeGE7PHN0b3Agc3R5bGU9InN0b3AtY29sb3I6I0ZGRDdCMSIgb2Zmc2V0PSIwLjQwMTQ4MzEwNjUxNDgwOSIvPiYjeGE7PHN0b3Agc3R5bGU9InN0b3AtY29sb3I6I0ZGRDhCMSIgb2Zmc2V0PSIwLjQwMjEwNjE1ODQwMTk0MyIvPiYjeGE7PHN0b3Agc3R5bGU9InN0b3AtY29sb3I6I0ZGRDhCMiIgb2Zmc2V0PSIwLjQwMzIzMTQ4NjgxMTY0MiIvPiYjeGE7PHN0b3Agc3R5bGU9InN0b3AtY29sb3I6I0ZGRDhCMyIgb2Zmc2V0PSIwLjQwNDExMDA0MzU2MTgxNSIvPiYjeGE7PHN0b3Agc3R5bGU9InN0b3AtY29sb3I6I0ZGRDlCMyIgb2Zmc2V0PSIwLjQwNDczOTc0MzI5ODU1NCIvPiYjeGE7PHN0b3Agc3R5bGU9InN0b3AtY29sb3I6I0ZGRDlCNCIgb2Zmc2V0PSIwLjQwNTYyNDA2MzI1NDI0OSIvPiYjeGE7PHN0b3Agc3R5bGU9InN0b3AtY29sb3I6I0ZGRDlCNSIgb2Zmc2V0PSIwLjQwNjUxMTQ0NzAwNTQ2NSIvPiYjeGE7PHN0b3Agc3R5bGU9InN0b3AtY29sb3I6I0ZGREFCNSIgb2Zmc2V0PSIwLjQwNzE0NzI3NDQ0MDExNCIvPiYjeGE7PHN0b3Agc3R5bGU9InN0b3AtY29sb3I6I0ZGREFCNiIgb2Zmc2V0PSIwLjQwODA0MDUzODM4OTY2NiIvPiYjeGE7PHN0b3Agc3R5bGU9InN0b3AtY29sb3I6I0ZGREFCNyIgb2Zmc2V0PSIwLjQwOTE5MzQ0NTA0MjA0MyIvPiYjeGE7PHN0b3Agc3R5bGU9InN0b3AtY29sb3I6I0ZGREJCNyIgb2Zmc2V0PSIwLjQwOTgzNjE5NzQxODQwMSIvPiYjeGE7PHN0b3Agc3R5bGU9InN0b3AtY29sb3I6I0ZGREJCOCIgb2Zmc2V0PSIwLjQxMDYxMDIyMDA5NDA5MiIvPiYjeGE7PHN0b3Agc3R5bGU9InN0b3AtY29sb3I6I0ZGREJCOSIgb2Zmc2V0PSIwLjQxMTc3NTM2NDE3Njg4OSIvPiYjeGE7PHN0b3Agc3R5bGU9InN0b3AtY29sb3I6I0ZGRENCQSIgb2Zmc2V0PSIwLjQxMjk0NjMwODQxMDAzNCIvPiYjeGE7PHN0b3Agc3R5bGU9InN0b3AtY29sb3I6I0ZGRENCQiIgb2Zmc2V0PSIwLjQxNDI1Mzg2NzgxOTYwMSIvPiYjeGE7PHN0b3Agc3R5bGU9InN0b3AtY29sb3I6I0ZGRENCQyIgb2Zmc2V0PSIwLjQxNTA0MTQ5NzMzNzU0NiIvPiYjeGE7PHN0b3Agc3R5bGU9InN0b3AtY29sb3I6I0ZGRERCQyIgb2Zmc2V0PSIwLjQxNTU2ODI4Mzk5NTcxMyIvPiYjeGE7PHN0b3Agc3R5bGU9InN0b3AtY29sb3I6I0ZGRERCRCIgb2Zmc2V0PSIwLjQxNjYyNTI4Mzc0NTI2NiIvPiYjeGE7PHN0b3Agc3R5bGU9InN0b3AtY29sb3I6I0ZGRERCRSIgb2Zmc2V0PSIwLjQxNzU1MzUwOTcwMDQzMyIvPiYjeGE7PHN0b3Agc3R5bGU9InN0b3AtY29sb3I6I0ZGREVCRSIgb2Zmc2V0PSIwLjQxODIxODkzODkwNTI0OSIvPiYjeGE7PHN0b3Agc3R5bGU9InN0b3AtY29sb3I6I0ZGREVCRiIgb2Zmc2V0PSIwLjQxOTE1MzYwMDUxMzg4NCIvPiYjeGE7PHN0b3Agc3R5bGU9InN0b3AtY29sb3I6I0ZGREVDMCIgb2Zmc2V0PSIwLjQyMDA5MTY4NTM0Nzg5NyIvPiYjeGE7PHN0b3Agc3R5bGU9InN0b3AtY29sb3I6I0ZGREZDMCIgb2Zmc2V0PSIwLjQyMDc2Mzk2MTEzNjg4NSIvPiYjeGE7PHN0b3Agc3R5bGU9InN0b3AtY29sb3I6I0ZGREZDMSIgb2Zmc2V0PSIwLjQyMTcwODYxOTc5ODQwMyIvPiYjeGE7PHN0b3Agc3R5bGU9InN0b3AtY29sb3I6I0ZGREZDMiIgb2Zmc2V0PSIwLjQyMjc5MjIyNjk5MDMzMSIvPiYjeGE7PHN0b3Agc3R5bGU9InN0b3AtY29sb3I6I0ZGRTBDMiIgb2Zmc2V0PSIwLjQyMzMzNTg0MDM4MTcyOCIvPiYjeGE7PHN0b3Agc3R5bGU9InN0b3AtY29sb3I6I0ZGRTBDMyIgb2Zmc2V0PSIwLjQyNDE1Mzk5NjQxMzYwNyIvPiYjeGE7PHN0b3Agc3R5bGU9InN0b3AtY29sb3I6I0ZGRTBDNCIgb2Zmc2V0PSIwLjQyNTM4NTgyMzY1Nzc3OSIvPiYjeGE7PHN0b3Agc3R5bGU9InN0b3AtY29sb3I6I0ZGRTBDNSIgb2Zmc2V0PSIwLjQyNjA3MjczOTY5ODgzNiIvPiYjeGE7PHN0b3Agc3R5bGU9InN0b3AtY29sb3I6I0ZGRTFDNSIgb2Zmc2V0PSIwLjQyNjc2MTk4NDgzMjc1MSIvPiYjeGE7PHN0b3Agc3R5bGU9InN0b3AtY29sb3I6I0ZGRTFDNiIgb2Zmc2V0PSIwLjQyNzg2ODUzMTA4NDI2NSIvPiYjeGE7PHN0b3Agc3R5bGU9InN0b3AtY29sb3I6I0ZGRTFDNyIgb2Zmc2V0PSIwLjQyODcwMTU4ODcxODg0NiIvPiYjeGE7PHN0b3Agc3R5bGU9InN0b3AtY29sb3I6I0ZGRTJDNyIgb2Zmc2V0PSIwLjQyOTM5ODE4MTg5NjY2NCIvPiYjeGE7PHN0b3Agc3R5bGU9InN0b3AtY29sb3I6I0ZGRTJDOCIgb2Zmc2V0PSIwLjQzMDM3Njc2NzAzOTgyMyIvPiYjeGE7PHN0b3Agc3R5bGU9InN0b3AtY29sb3I6I0ZGRTJDOSIgb2Zmc2V0PSIwLjQzMTM1OTEwNTM1NzU0Ii8+JiN4YTs8c3RvcCBzdHlsZT0ic3RvcC1jb2xvcjojRkZFM0M5IiBvZmZzZXQ9IjAuNDMxOTIyMTY4MTU3ODciLz4mI3hhOzxzdG9wIHN0eWxlPSJzdG9wLWNvbG9yOiNGRkUzQ0EiIG9mZnNldD0iMC40MzI3Njk2OTc5NzA3OTIiLz4mI3hhOzxzdG9wIHN0eWxlPSJzdG9wLWNvbG9yOiNGRkUzQ0IiIG9mZnNldD0iMC40MzQwNDU5MjIzODM3MjkiLz4mI3hhOzxzdG9wIHN0eWxlPSJzdG9wLWNvbG9yOiNGRkU0Q0MiIG9mZnNldD0iMC40MzUxODYwODcyMjAwODYiLz4mI3hhOzxzdG9wIHN0eWxlPSJzdG9wLWNvbG9yOiNGRkU0Q0QiIG9mZnNldD0iMC40MzY0NzUzMDE5OTcxNjUiLz4mI3hhOzxzdG9wIHN0eWxlPSJzdG9wLWNvbG9yOiNGRkU0Q0UiIG9mZnNldD0iMC40MzczMzgxNTQ1MDM5NzkiLz4mI3hhOzxzdG9wIHN0eWxlPSJzdG9wLWNvbG9yOiNGRkU1Q0UiIG9mZnNldD0iMC40Mzc5MTU0MzA2NzA2ODgiLz4mI3hhOzxzdG9wIHN0eWxlPSJzdG9wLWNvbG9yOiNGRkU1Q0YiIG9mZnNldD0iMC40Mzg5Mjg4NjM2MTUyNDMiLz4mI3hhOzxzdG9wIHN0eWxlPSJzdG9wLWNvbG9yOiNGRkU1RDAiIG9mZnNldD0iMC40Mzk4MDA2MjQxODA5OTUiLz4mI3hhOzxzdG9wIHN0eWxlPSJzdG9wLWNvbG9yOiNGRkU2RDAiIG9mZnNldD0iMC40NDA1Mjk2OTYzMzA1MzUiLz4mI3hhOzxzdG9wIHN0eWxlPSJzdG9wLWNvbG9yOiNGRkU2RDEiIG9mZnNldD0iMC40NDE1NTQwNzI4MTExMzkiLz4mI3hhOzxzdG9wIHN0eWxlPSJzdG9wLWNvbG9yOiNGRkU2RDIiIG9mZnNldD0iMC40NDI1ODI1NjI2NzExNDUiLz4mI3hhOzxzdG9wIHN0eWxlPSJzdG9wLWNvbG9yOiNGRkU3RDIiIG9mZnNldD0iMC40NDMxNzIxNjQwNTI0MTEiLz4mI3hhOzxzdG9wIHN0eWxlPSJzdG9wLWNvbG9yOiNGRkU3RDMiIG9mZnNldD0iMC40NDM5MTE1NDkxMDU5NjkiLz4mI3hhOzxzdG9wIHN0eWxlPSJzdG9wLWNvbG9yOiNGRkU3RDQiIG9mZnNldD0iMC40NDUyNDc4NDcxNzA1NjQiLz4mI3hhOzxzdG9wIHN0eWxlPSJzdG9wLWNvbG9yOiNGRkU4RDUiIG9mZnNldD0iMC40NDY1OTEyMzE5MTIyMTkiLz4mI3hhOzxzdG9wIHN0eWxlPSJzdG9wLWNvbG9yOiNGRkU4RDYiIG9mZnNldD0iMC40NDc3OTE3MTY4MTI0MDIiLz4mI3hhOzxzdG9wIHN0eWxlPSJzdG9wLWNvbG9yOiNGRkU4RDciIG9mZnNldD0iMC40NDg2OTU3ODY2NzYyMyIvPiYjeGE7PHN0b3Agc3R5bGU9InN0b3AtY29sb3I6I0ZGRTlENyIgb2Zmc2V0PSIwLjQ0OTMwMDQ5MTI0MTkzOCIvPiYjeGE7PHN0b3Agc3R5bGU9InN0b3AtY29sb3I6I0ZGRTlEOCIgb2Zmc2V0PSIwLjQ1MDIxMDU1NzM3MjE1OCIvPiYjeGE7PHN0b3Agc3R5bGU9InN0b3AtY29sb3I6I0ZGRTlEOSIgb2Zmc2V0PSIwLjQ1MTI3NjI3ODAwMDQwMiIvPiYjeGE7PHN0b3Agc3R5bGU9InN0b3AtY29sb3I6I0ZGRUFEOSIgb2Zmc2V0PSIwLjQ1MTg4NzI5MzgyMjYxMSIvPiYjeGE7PHN0b3Agc3R5bGU9InN0b3AtY29sb3I6I0ZGRUFEQSIgb2Zmc2V0PSIwLjQ1MjY1MzYyMzUxNzAwOCIvPiYjeGE7PHN0b3Agc3R5bGU9InN0b3AtY29sb3I6I0ZGRUFEQiIgb2Zmc2V0PSIwLjQ1Mzg4NDM5Mzc4MjI2MiIvPiYjeGE7PHN0b3Agc3R5bGU9InN0b3AtY29sb3I6I0ZGRUFEQyIgb2Zmc2V0PSIwLjQ1NDY1NjU0NTI3ODE2NCIvPiYjeGE7PHN0b3Agc3R5bGU9InN0b3AtY29sb3I6I0ZGRUJEQyIgb2Zmc2V0PSIwLjQ1NTI3NjM1ODc5NzU5OCIvPiYjeGE7PHN0b3Agc3R5bGU9InN0b3AtY29sb3I6I0ZGRUJERCIgb2Zmc2V0PSIwLjQ1NjM2NDcyMjA0NzY5Ii8+JiN4YTs8c3RvcCBzdHlsZT0ic3RvcC1jb2xvcjojRkZFQkRFIiBvZmZzZXQ9IjAuNDU3MzAxMTg1NDE2Njc4Ii8+JiN4YTs8c3RvcCBzdHlsZT0ic3RvcC1jb2xvcjojRkZFQ0RFIiBvZmZzZXQ9IjAuNDU3OTI3NjMxMTMxNzY4Ii8+JiN4YTs8c3RvcCBzdHlsZT0ic3RvcC1jb2xvcjojRkZFQ0RGIiBvZmZzZXQ9IjAuNDU4ODcwNTI5Njk3NDU2Ii8+JiN4YTs8c3RvcCBzdHlsZT0ic3RvcC1jb2xvcjojRkZFQ0UwIiBvZmZzZXQ9IjAuNDYwMTMzMTUyOTM2MTczIi8+JiN4YTs8c3RvcCBzdHlsZT0ic3RvcC1jb2xvcjojRkZFREUxIiBvZmZzZXQ9IjAuNDYxNDAyMzQ1NjQ5MDI0Ii8+JiN4YTs8c3RvcCBzdHlsZT0ic3RvcC1jb2xvcjojRkZFREUyIiBvZmZzZXQ9IjAuNDYyNjc4MTc2NTU2Mjg5Ii8+JiN4YTs8c3RvcCBzdHlsZT0ic3RvcC1jb2xvcjojRkZFREUzIiBvZmZzZXQ9IjAuNDYzNDc4NzA5MDQ5NzA4Ii8+JiN4YTs8c3RvcCBzdHlsZT0ic3RvcC1jb2xvcjojRkZFRUUzIiBvZmZzZXQ9IjAuNDY0MTIxMzg0MjY2MzU1Ii8+JiN4YTs8c3RvcCBzdHlsZT0ic3RvcC1jb2xvcjojRkZFRUU0IiBvZmZzZXQ9IjAuNDY1MjUwMDMzMjc3ODM0Ii8+JiN4YTs8c3RvcCBzdHlsZT0ic3RvcC1jb2xvcjojRkZFRUU1IiBvZmZzZXQ9IjAuNDY2MzgzNjc3NzQ1NjQ4Ii8+JiN4YTs8c3RvcCBzdHlsZT0ic3RvcC1jb2xvcjojRkZFRkU1IiBvZmZzZXQ9IjAuNDY3MDMzNzc0OTQxODc1Ii8+JiN4YTs8c3RvcCBzdHlsZT0ic3RvcC1jb2xvcjojRkZFRkU2IiBvZmZzZXQ9IjAuNDY3ODQ5Mjk0OTU4ODQ2Ii8+JiN4YTs8c3RvcCBzdHlsZT0ic3RvcC1jb2xvcjojRkZFRkU3IiBvZmZzZXQ9IjAuNDY5MTU5Mzg2Mzk1NjUyIi8+JiN4YTs8c3RvcCBzdHlsZT0ic3RvcC1jb2xvcjojRkZGMEU4IiBvZmZzZXQ9IjAuNDcwNDc2NTUxOTM1MzQ0Ii8+JiN4YTs8c3RvcCBzdHlsZT0ic3RvcC1jb2xvcjojRkZGMEU5IiBvZmZzZXQ9IjAuNDcxODAwODY4Mzg5MTMzIi8+JiN4YTs8c3RvcCBzdHlsZT0ic3RvcC1jb2xvcjojRkZGMEVBIiBvZmZzZXQ9IjAuNDcyNjMxOTQ3ODI0MTA1Ii8+JiN4YTs8c3RvcCBzdHlsZT0ic3RvcC1jb2xvcjojRkZGMUVBIiBvZmZzZXQ9IjAuNDczMTMyMTg1NDQ1MDM2Ii8+JiN4YTs8c3RvcCBzdHlsZT0ic3RvcC1jb2xvcjojRkZGMUVCIiBvZmZzZXQ9IjAuNDc0MTM1ODY0NjExNjM5Ii8+JiN4YTs8c3RvcCBzdHlsZT0ic3RvcC1jb2xvcjojRkZGMUVDIiBvZmZzZXQ9IjAuNDc1MzExNjYyNjM5MjU5Ii8+JiN4YTs8c3RvcCBzdHlsZT0ic3RvcC1jb2xvcjojRkZGMkVDIiBvZmZzZXQ9IjAuNDc1OTg2MDIyMTAzNzA2Ii8+JiN4YTs8c3RvcCBzdHlsZT0ic3RvcC1jb2xvcjojRkZGMkVEIiBvZmZzZXQ9IjAuNDc2ODMyMDkwNzg2MzM0Ii8+JiN4YTs8c3RvcCBzdHlsZT0ic3RvcC1jb2xvcjojRkZGMkVFIiBvZmZzZXQ9IjAuNDc4MTkxNDYyNDkyODg3Ii8+JiN4YTs8c3RvcCBzdHlsZT0ic3RvcC1jb2xvcjojRkZGMkVGIiBvZmZzZXQ9IjAuNDc5MDQ0NjMzMTc5MzQzIi8+JiN4YTs8c3RvcCBzdHlsZT0ic3RvcC1jb2xvcjojRkZGM0VGIiBvZmZzZXQ9IjAuNDc5NTU4MjExMzIzMTEzIi8+JiN4YTs8c3RvcCBzdHlsZT0ic3RvcC1jb2xvcjojRkZGM0YwIiBvZmZzZXQ9IjAuNDgwNTg4NzQ1MDUxNjk1Ii8+JiN4YTs8c3RvcCBzdHlsZT0ic3RvcC1jb2xvcjojRkZGM0YxIiBvZmZzZXQ9IjAuNDgxNzk2MTM2NDA3ODc0Ii8+JiN4YTs8c3RvcCBzdHlsZT0ic3RvcC1jb2xvcjojRkZGNEYxIiBvZmZzZXQ9IjAuNDgyNDg4Njg0MTk4MTA0Ii8+JiN4YTs8c3RvcCBzdHlsZT0ic3RvcC1jb2xvcjojRkZGNEYyIiBvZmZzZXQ9IjAuNDgzMzU3NjU5MTcyMjQ4Ii8+JiN4YTs8c3RvcCBzdHlsZT0ic3RvcC1jb2xvcjojRkZGNEYzIiBvZmZzZXQ9IjAuNDg0NTc4ODY2NzI3NzM4Ii8+JiN4YTs8c3RvcCBzdHlsZT0ic3RvcC1jb2xvcjojRkZGNEY0IiBvZmZzZXQ9IjAuNDg1Mjc5MzY5NjU0MzMzIi8+JiN4YTs8c3RvcCBzdHlsZT0ic3RvcC1jb2xvcjojRkZGNUY0IiBvZmZzZXQ9IjAuNDg1OTgyMjI3MzcxNTkzIi8+JiN4YTs8c3RvcCBzdHlsZT0ic3RvcC1jb2xvcjojRkZGNUY1IiBvZmZzZXQ9IjAuNDg3MjE2OTc1NDU1NjY2Ii8+JiN4YTs8c3RvcCBzdHlsZT0ic3RvcC1jb2xvcjojRkZGNUY2IiBvZmZzZXQ9IjAuNDg4Mjc5OTQxNzQwMjgiLz4mI3hhOzxzdG9wIHN0eWxlPSJzdG9wLWNvbG9yOiNGRkY2RjYiIG9mZnNldD0iMC40ODg4MTMyMzEwMTc1NDYiLz4mI3hhOzxzdG9wIHN0eWxlPSJzdG9wLWNvbG9yOiNGRkY2RjciIG9mZnNldD0iMC40ODk3MDUwODA5Mjc4NzUiLz4mI3hhOzxzdG9wIHN0eWxlPSJzdG9wLWNvbG9yOiNGRkY2RjgiIG9mZnNldD0iMC40OTExMzgzMzM1NjgyNTkiLz4mI3hhOzxzdG9wIHN0eWxlPSJzdG9wLWNvbG9yOiNGRkY3RjkiIG9mZnNldD0iMC40OTIzOTkyMTkwNDc3NDIiLz4mI3hhOzxzdG9wIHN0eWxlPSJzdG9wLWNvbG9yOiNGRkY3RkEiIG9mZnNldD0iMC40OTM2NjY5Njk1NTQ3NTEiLz4mI3hhOzxzdG9wIHN0eWxlPSJzdG9wLWNvbG9yOiNGRkY3RkIiIG9mZnNldD0iMC40OTQ3NTg0NzM5MzQxOTMiLz4mI3hhOzxzdG9wIHN0eWxlPSJzdG9wLWNvbG9yOiNGRkY4RkIiIG9mZnNldD0iMC40OTUzMDYxMzA2NzgwOTQiLz4mI3hhOzxzdG9wIHN0eWxlPSJzdG9wLWNvbG9yOiNGRkY4RkMiIG9mZnNldD0iMC40OTYyMjIwOTI0MDkwNTEiLz4mI3hhOzxzdG9wIHN0eWxlPSJzdG9wLWNvbG9yOiNGRkY4RkQiIG9mZnNldD0iMC40OTc2OTQyNjk3NDcyMjkiLz4mI3hhOzxzdG9wIHN0eWxlPSJzdG9wLWNvbG9yOiNGRkY5RkUiIG9mZnNldD0iMC40OTg5ODk1ODkxMzAxMTkiLz4mI3hhOzxzdG9wIHN0eWxlPSJzdG9wLWNvbG9yOiNGRkY5RkYiIG9mZnNldD0iMC41MDAyOTIxNTQ2OTgwNiIvPiYjeGE7PHN0b3Agc3R5bGU9InN0b3AtY29sb3I6I0ZFRjlGRiIgb2Zmc2V0PSIwLjUwMTQxMzc3MTgxMTY4MiIvPiYjeGE7PHN0b3Agc3R5bGU9InN0b3AtY29sb3I6I0ZFRjhGRiIgb2Zmc2V0PSIwLjUwMTk3NjU5MTYxMTIzNiIvPiYjeGE7PHN0b3Agc3R5bGU9InN0b3AtY29sb3I6I0ZERjhGRiIgb2Zmc2V0PSIwLjUwMjkxODAwNTE1NTYyOCIvPiYjeGE7PHN0b3Agc3R5bGU9InN0b3AtY29sb3I6I0ZDRjhGRiIgb2Zmc2V0PSIwLjUwMzg2MjMzNDI1Nzk1NCIvPiYjeGE7PHN0b3Agc3R5bGU9InN0b3AtY29sb3I6I0ZDRjdGRiIgb2Zmc2V0PSIwLjUwNDYyMDkyOTIyNjY4OCIvPiYjeGE7PHN0b3Agc3R5bGU9InN0b3AtY29sb3I6I0ZCRjdGRiIgb2Zmc2V0PSIwLjUwNTc2Mjk2NzMxNTM2MyIvPiYjeGE7PHN0b3Agc3R5bGU9InN0b3AtY29sb3I6I0ZBRjZGRiIgb2Zmc2V0PSIwLjUwNzEwMjMxNDEzNjk2OCIvPiYjeGE7PHN0b3Agc3R5bGU9InN0b3AtY29sb3I6I0Y5RjZGRiIgb2Zmc2V0PSIwLjUwODI1NTc1MjY0NzMwNyIvPiYjeGE7PHN0b3Agc3R5bGU9InN0b3AtY29sb3I6I0Y5RjVGRiIgb2Zmc2V0PSIwLjUwODgzNDU5OTA1NjE1OCIvPiYjeGE7PHN0b3Agc3R5bGU9InN0b3AtY29sb3I6I0Y4RjVGRiIgb2Zmc2V0PSIwLjUwOTgwMjkxOTMwMzA3MiIvPiYjeGE7PHN0b3Agc3R5bGU9InN0b3AtY29sb3I6I0Y3RjVGRiIgb2Zmc2V0PSIwLjUxMDc3NDMyNDQyMjk4NiIvPiYjeGE7PHN0b3Agc3R5bGU9InN0b3AtY29sb3I6I0Y3RjRGRiIgb2Zmc2V0PSIwLjUxMTU1NDc2MjczNDk0MiIvPiYjeGE7PHN0b3Agc3R5bGU9InN0b3AtY29sb3I6I0Y2RjRGRiIgb2Zmc2V0PSIwLjUxMjcyOTgwODU0NTM1NyIvPiYjeGE7PHN0b3Agc3R5bGU9InN0b3AtY29sb3I6I0Y1RjRGRiIgb2Zmc2V0PSIwLjUxMzUxNjExNjgzMTM0MyIvPiYjeGE7PHN0b3Agc3R5bGU9InN0b3AtY29sb3I6I0Y1RjNGRiIgb2Zmc2V0PSIwLjUxNDMwNTM5MzM0NDcxMSIvPiYjeGE7PHN0b3Agc3R5bGU9InN0b3AtY29sb3I6I0Y0RjNGRiIgb2Zmc2V0PSIwLjUxNTQ5Mzc5NjYzMTEyNyIvPiYjeGE7PHN0b3Agc3R5bGU9InN0b3AtY29sb3I6I0Y0RjJGRiIgb2Zmc2V0PSIwLjUxNjI4OTA3NzMzMzkwOSIvPiYjeGE7PHN0b3Agc3R5bGU9InN0b3AtY29sb3I6I0YzRjJGRiIgb2Zmc2V0PSIwLjUxNzI4NzUxOTYwNTUzOCIvPiYjeGE7PHN0b3Agc3R5bGU9InN0b3AtY29sb3I6I0YyRjJGRiIgb2Zmc2V0PSIwLjUxODQ5MDI0NjI2NDE2OSIvPiYjeGE7PHN0b3Agc3R5bGU9InN0b3AtY29sb3I6I0YyRjFGRiIgb2Zmc2V0PSIwLjUxOTA5MzkyMjcxMDc5NiIvPiYjeGE7PHN0b3Agc3R5bGU9InN0b3AtY29sb3I6I0YxRjFGRiIgb2Zmc2V0PSIwLjUyMDEwMzk0MDQ1MjY1MSIvPiYjeGE7PHN0b3Agc3R5bGU9InN0b3AtY29sb3I6I0YwRjFGRiIgb2Zmc2V0PSIwLjUyMTExNzMxNDkyODI4NiIvPiYjeGE7PHN0b3Agc3R5bGU9InN0b3AtY29sb3I6I0YwRjBGRiIgb2Zmc2V0PSIwLjUyMTkzMTYyMTkxNTI0NiIvPiYjeGE7PHN0b3Agc3R5bGU9InN0b3AtY29sb3I6I0VGRjBGRiIgb2Zmc2V0PSIwLjUyMzM2MzAzNTY2OTU3MyIvPiYjeGE7PHN0b3Agc3R5bGU9InN0b3AtY29sb3I6I0VFRUZGRiIgb2Zmc2V0PSIwLjUyNTAwOTA1ODg2ODU3MSIvPiYjeGE7PHN0b3Agc3R5bGU9InN0b3AtY29sb3I6I0VERUZGRiIgb2Zmc2V0PSIwLjUyNjI1MDU1MzUxNzMzNyIvPiYjeGE7PHN0b3Agc3R5bGU9InN0b3AtY29sb3I6I0VERUVGRiIgb2Zmc2V0PSIwLjUyNzA4MTk3NTgyNzY4NiIvPiYjeGE7PHN0b3Agc3R5bGU9InN0b3AtY29sb3I6I0VDRUVGRiIgb2Zmc2V0PSIwLjUyODEyNTQwNDA1MDA2MSIvPiYjeGE7PHN0b3Agc3R5bGU9InN0b3AtY29sb3I6I0VCRUVGRiIgb2Zmc2V0PSIwLjUyOTE3MzAxNDY5MjQzIi8+JiN4YTs8c3RvcCBzdHlsZT0ic3RvcC1jb2xvcjojRUJFREZGIiBvZmZzZXQ9IjAuNTMwMDE0NDc1MTAyODYzIi8+JiN4YTs8c3RvcCBzdHlsZT0ic3RvcC1jb2xvcjojRUFFREZGIiBvZmZzZXQ9IjAuNTMxMjgyNTAxMjQxOTMyIi8+JiN4YTs8c3RvcCBzdHlsZT0ic3RvcC1jb2xvcjojRTlFQ0ZGIiBvZmZzZXQ9IjAuNTMyOTgzMDMwNDQyNDkyIi8+JiN4YTs8c3RvcCBzdHlsZT0ic3RvcC1jb2xvcjojRThFQ0ZGIiBvZmZzZXQ9IjAuNTM0NDgwNTYwNDcwMzA0Ii8+JiN4YTs8c3RvcCBzdHlsZT0ic3RvcC1jb2xvcjojRThFQkZGIiBvZmZzZXQ9IjAuNTM1MzQwMzA5Nzc5NTMzIi8+JiN4YTs8c3RvcCBzdHlsZT0ic3RvcC1jb2xvcjojRTdFQkZGIiBvZmZzZXQ9IjAuNTM2NDIwMDcyMTExNTU0Ii8+JiN4YTs8c3RvcCBzdHlsZT0ic3RvcC1jb2xvcjojRTZFQkZGIiBvZmZzZXQ9IjAuNTM3NzIxMTYzNzgxNjQzIi8+JiN4YTs8c3RvcCBzdHlsZT0ic3RvcC1jb2xvcjojRTZFQUZGIiBvZmZzZXQ9IjAuNTM4NTkyNjg3ODA3MTkzIi8+JiN4YTs8c3RvcCBzdHlsZT0ic3RvcC1jb2xvcjojRTVFQUZGIiBvZmZzZXQ9IjAuNTM5OTA2MjM0OTY1NTc0Ii8+JiN4YTs8c3RvcCBzdHlsZT0ic3RvcC1jb2xvcjojRTRFOUZGIiBvZmZzZXQ9IjAuNTQxNjY4MTc5NTYwODM1Ii8+JiN4YTs8c3RvcCBzdHlsZT0ic3RvcC1jb2xvcjojRTNFOUZGIiBvZmZzZXQ9IjAuNTQzMjIwMTUzODUwMzA2Ii8+JiN4YTs8c3RvcCBzdHlsZT0ic3RvcC1jb2xvcjojRTNFOEZGIiBvZmZzZXQ9IjAuNTQ0MTExMzEyMjIzMTk1Ii8+JiN4YTs8c3RvcCBzdHlsZT0ic3RvcC1jb2xvcjojRTJFOEZGIiBvZmZzZXQ9IjAuNTQ1MjMwNzE0NTE5NjM2Ii8+JiN4YTs8c3RvcCBzdHlsZT0ic3RvcC1jb2xvcjojRTFFOEZGIiBvZmZzZXQ9IjAuNTQ2NTc5Nzc3MTI3MTU2Ii8+JiN4YTs8c3RvcCBzdHlsZT0ic3RvcC1jb2xvcjojRTFFN0ZGIiBvZmZzZXQ9IjAuNTQ3NzEwMjQ2MDU5ODgzIi8+JiN4YTs8c3RvcCBzdHlsZT0ic3RvcC1jb2xvcjojRTBFN0ZGIiBvZmZzZXQ9IjAuNTQ5MzAxNzU4NzkxODg1Ii8+JiN4YTs8c3RvcCBzdHlsZT0ic3RvcC1jb2xvcjojREZFNkZGIiBvZmZzZXQ9IjAuNTUxMTMzMTUyMTI0MyIvPiYjeGE7PHN0b3Agc3R5bGU9InN0b3AtY29sb3I6I0RFRTZGRiIgb2Zmc2V0PSIwLjU1Mjc0NjcyMjYyOTM0MiIvPiYjeGE7PHN0b3Agc3R5bGU9InN0b3AtY29sb3I6I0RFRTVGRiIgb2Zmc2V0PSIwLjU1MzY3MzQyODk1OTc0NCIvPiYjeGE7PHN0b3Agc3R5bGU9InN0b3AtY29sb3I6I0RERTVGRiIgb2Zmc2V0PSIwLjU1NDgzNzcxMTI1MDU4MSIvPiYjeGE7PHN0b3Agc3R5bGU9InN0b3AtY29sb3I6I0RDRTVGRiIgb2Zmc2V0PSIwLjU1NjI0MTEwMzc2MDc0NiIvPiYjeGE7PHN0b3Agc3R5bGU9InN0b3AtY29sb3I6I0RDRTRGRiIgb2Zmc2V0PSIwLjU1NzQxNzM2MjU5MzY1OCIvPiYjeGE7PHN0b3Agc3R5bGU9InN0b3AtY29sb3I6I0RCRTRGRiIgb2Zmc2V0PSIwLjU1OTA3MzcxNTU4MzY1OSIvPiYjeGE7PHN0b3Agc3R5bGU9InN0b3AtY29sb3I6I0RBRTNGRiIgb2Zmc2V0PSIwLjU2MDk4MDI1NzEzNTAyIi8+JiN4YTs8c3RvcCBzdHlsZT0ic3RvcC1jb2xvcjojRDlFM0ZGIiBvZmZzZXQ9IjAuNTYyNjYwNTE1MzQ1ODkxIi8+JiN4YTs8c3RvcCBzdHlsZT0ic3RvcC1jb2xvcjojRDlFMkZGIiBvZmZzZXQ9IjAuNTYzNjI1NzIzNDU1ODEiLz4mI3hhOzxzdG9wIHN0eWxlPSJzdG9wLWNvbG9yOiNEOEUyRkYiIG9mZnNldD0iMC41NjUwODIxODU4NzMyODciLz4mI3hhOzxzdG9wIHN0eWxlPSJzdG9wLWNvbG9yOiNEN0UyRkYiIG9mZnNldD0iMC41NjY1NDU0NDM1MjAyNTgiLz4mI3hhOzxzdG9wIHN0eWxlPSJzdG9wLWNvbG9yOiNEN0UxRkYiIG9mZnNldD0iMC41Njc1MjY4MzE2NTIwNTUiLz4mI3hhOzxzdG9wIHN0eWxlPSJzdG9wLWNvbG9yOiNENkUxRkYiIG9mZnNldD0iMC41NjkyNTM1MzI2ODY1NDYiLz4mI3hhOzxzdG9wIHN0eWxlPSJzdG9wLWNvbG9yOiNENUUwRkYiIG9mZnNldD0iMC41NzE0OTE2OTU1NjczNjYiLz4mI3hhOzxzdG9wIHN0eWxlPSJzdG9wLWNvbG9yOiNENEUwRkYiIG9mZnNldD0iMC41NzMyNDU1OTI0ODg5NjYiLz4mI3hhOzxzdG9wIHN0eWxlPSJzdG9wLWNvbG9yOiNENERGRkYiIG9mZnNldD0iMC41NzQyNTQwMjc4MjI4OCIvPiYjeGE7PHN0b3Agc3R5bGU9InN0b3AtY29sb3I6I0QzREZGRiIgb2Zmc2V0PSIwLjU3NjAyOTgxMjkyNDg0NyIvPiYjeGE7PHN0b3Agc3R5bGU9InN0b3AtY29sb3I6I0QyREZGRiIgb2Zmc2V0PSIwLjU3NzU2MDQwMDkyMTU1MyIvPiYjeGE7PHN0b3Agc3R5bGU9InN0b3AtY29sb3I6I0QyREVGRiIgb2Zmc2V0PSIwLjU3ODU4NzIzMTQwMzc5Ii8+JiN4YTs8c3RvcCBzdHlsZT0ic3RvcC1jb2xvcjojRDFERUZGIiBvZmZzZXQ9IjAuNTgwMzk0MzM4MDk4MTkiLz4mI3hhOzxzdG9wIHN0eWxlPSJzdG9wLWNvbG9yOiNEMURERkYiIG9mZnNldD0iMC41ODE2OTI0NTA0MTMwNTEiLz4mI3hhOzxzdG9wIHN0eWxlPSJzdG9wLWNvbG9yOiNEMERERkYiIG9mZnNldD0iMC41ODI5OTg5MDU2NTMyOTYiLz4mI3hhOzxzdG9wIHN0eWxlPSJzdG9wLWNvbG9yOiNDRkRERkYiIG9mZnNldD0iMC41ODQ1NzQ1MzA4OTU3OTUiLz4mI3hhOzxzdG9wIHN0eWxlPSJzdG9wLWNvbG9yOiNDRkRDRkYiIG9mZnNldD0iMC41ODU4OTYwODUxMzEyNTQiLz4mI3hhOzxzdG9wIHN0eWxlPSJzdG9wLWNvbG9yOiNDRURDRkYiIG9mZnNldD0iMC41ODgwMjU5NzQxNjQzNTIiLz4mI3hhOzxzdG9wIHN0eWxlPSJzdG9wLWNvbG9yOiNDRERCRkYiIG9mZnNldD0iMC41OTA0NDMyMTMyMDAyMyIvPiYjeGE7PHN0b3Agc3R5bGU9InN0b3AtY29sb3I6I0NDREJGRiIgb2Zmc2V0PSIwLjU5MjMzOTk4MzMxOTAyOCIvPiYjeGE7PHN0b3Agc3R5bGU9InN0b3AtY29sb3I6I0NDREFGRiIgb2Zmc2V0PSIwLjU5MzcwMzkwMjg1NDc3Ii8+JiN4YTs8c3RvcCBzdHlsZT0ic3RvcC1jb2xvcjojQ0JEQUZGIiBvZmZzZXQ9IjAuNTk1NjI3NzQzNTQ5MjAyIi8+JiN4YTs8c3RvcCBzdHlsZT0ic3RvcC1jb2xvcjojQ0FEQUZGIiBvZmZzZXQ9IjAuNTk3Mjg2NzE0Nzk2MTg0Ii8+JiN4YTs8c3RvcCBzdHlsZT0ic3RvcC1jb2xvcjojQ0FEOUZGIiBvZmZzZXQ9IjAuNTk4NDAwMjYzMDc1NzQ0Ii8+JiN4YTs8c3RvcCBzdHlsZT0ic3RvcC1jb2xvcjojQzlEOUZGIiBvZmZzZXQ9IjAuNjAwNjQyNzM4NDMwNzEzIi8+JiN4YTs8c3RvcCBzdHlsZT0ic3RvcC1jb2xvcjojQzhEOEZGIiBvZmZzZXQ9IjAuNjAzNDc0MDUxOTQ4MDU0Ii8+JiN4YTs8c3RvcCBzdHlsZT0ic3RvcC1jb2xvcjojQzdEOEZGIiBvZmZzZXQ9IjAuNjA1NDc0NTI1NDI2OTIyIi8+JiN4YTs8c3RvcCBzdHlsZT0ic3RvcC1jb2xvcjojQzdEN0ZGIiBvZmZzZXQ9IjAuNjA2OTE0Njc0NDMzNTQ2Ii8+JiN4YTs8c3RvcCBzdHlsZT0ic3RvcC1jb2xvcjojQzZEN0ZGIiBvZmZzZXQ9IjAuNjA5MjM3MjE3MzAxMTUyIi8+JiN4YTs8c3RvcCBzdHlsZT0ic3RvcC1jb2xvcjojQzVENkZGIiBvZmZzZXQ9IjAuNjEyMTcwNjc4MDkxNDQ2Ii8+JiN4YTs8c3RvcCBzdHlsZT0ic3RvcC1jb2xvcjojQzRENkZGIiBvZmZzZXQ9IjAuNjE0NTQyMTQzMTU2NzUiLz4mI3hhOzxzdG9wIHN0eWxlPSJzdG9wLWNvbG9yOiNDNEQ1RkYiIG9mZnNldD0iMC42MTYwMzYzOTk4NDgzMDgiLz4mI3hhOzxzdG9wIHN0eWxlPSJzdG9wLWNvbG9yOiNDM0Q1RkYiIG9mZnNldD0iMC42MTgxNDU2MDA1MzEyOTkiLz4mI3hhOzxzdG9wIHN0eWxlPSJzdG9wLWNvbG9yOiNDMkQ1RkYiIG9mZnNldD0iMC42MTk5NjU0NzEwNDY5MTciLz4mI3hhOzxzdG9wIHN0eWxlPSJzdG9wLWNvbG9yOiNDMkQ0RkYiIG9mZnNldD0iMC42MjE0OTQ3MDExNDg0MDgiLz4mI3hhOzxzdG9wIHN0eWxlPSJzdG9wLWNvbG9yOiNDMUQ0RkYiIG9mZnNldD0iMC42MjM5NjAwMzkxNzI3OTIiLz4mI3hhOzxzdG9wIHN0eWxlPSJzdG9wLWNvbG9yOiNDMUQzRkYiIG9mZnNldD0iMC42MjU1MTI2MjkxNTgxODIiLz4mI3hhOzxzdG9wIHN0eWxlPSJzdG9wLWNvbG9yOiNDMEQzRkYiIG9mZnNldD0iMC42MjczOTE2OTA1NzY5OTciLz4mI3hhOzxzdG9wIHN0eWxlPSJzdG9wLWNvbG9yOiNCRkQzRkYiIG9mZnNldD0iMC42Mjk1OTkwNDk4MTYyNTQiLz4mI3hhOzxzdG9wIHN0eWxlPSJzdG9wLWNvbG9yOiNCRkQyRkYiIG9mZnNldD0iMC42MzExODk0MjkzMzk1NDIiLz4mI3hhOzxzdG9wIHN0eWxlPSJzdG9wLWNvbG9yOiNCRUQyRkYiIG9mZnNldD0iMC42MzM3NTYzODA0ODA0MTkiLz4mI3hhOzxzdG9wIHN0eWxlPSJzdG9wLWNvbG9yOiNCREQxRkYiIG9mZnNldD0iMC42MzczMjk4NjkyMDg5MzkiLz4mI3hhOzxzdG9wIHN0eWxlPSJzdG9wLWNvbG9yOiNCQ0QxRkYiIG9mZnNldD0iMC42Mzk5NTkwNzYzMTk4MjUiLz4mI3hhOzxzdG9wIHN0eWxlPSJzdG9wLWNvbG9yOiNCQ0QwRkYiIG9mZnNldD0iMC42NDE2MTg3MDYyNTgxMzMiLz4mI3hhOzxzdG9wIHN0eWxlPSJzdG9wLWNvbG9yOiNCQkQwRkYiIG9mZnNldD0iMC42NDQyOTg0NTcwMjY4OTciLz4mI3hhOzxzdG9wIHN0eWxlPSJzdG9wLWNvbG9yOiNCQUQwRkYiIG9mZnNldD0iMC42NDYzMjQ5NTE1NDk0MzYiLz4mI3hhOzxzdG9wIHN0eWxlPSJzdG9wLWNvbG9yOiNCQUNGRkYiIG9mZnNldD0iMC42NDgzNzIyMzM4NjIwNTQiLz4mI3hhOzxzdG9wIHN0eWxlPSJzdG9wLWNvbG9yOiNCOUNGRkYiIG9mZnNldD0iMC42NTExMjUwNjk0MDk2MTEiLz4mI3hhOzxzdG9wIHN0eWxlPSJzdG9wLWNvbG9yOiNCOUNFRkYiIG9mZnNldD0iMC42NTI4NjE5MDI0NDE4MTQiLz4mI3hhOzxzdG9wIHN0eWxlPSJzdG9wLWNvbG9yOiNCOENFRkYiIG9mZnNldD0iMC42NTUzMTY3OTY3MTMwMzYiLz4mI3hhOzxzdG9wIHN0eWxlPSJzdG9wLWNvbG9yOiNCN0NFRkYiIG9mZnNldD0iMC42NTc3OTMwNTE1ODAxMyIvPiYjeGE7PHN0b3Agc3R5bGU9InN0b3AtY29sb3I6I0I3Q0RGRiIgb2Zmc2V0PSIwLjY1OTkzODM1OTg1ODA3OCIvPiYjeGE7PHN0b3Agc3R5bGU9InN0b3AtY29sb3I6I0I2Q0RGRiIgb2Zmc2V0PSIwLjY2MjgyNzAyNjU0MjUxNiIvPiYjeGE7PHN0b3Agc3R5bGU9InN0b3AtY29sb3I6I0I2Q0NGRiIgb2Zmc2V0PSIwLjY2NTAxNTA5ODEwMDk1NyIvPiYjeGE7PHN0b3Agc3R5bGU9InN0b3AtY29sb3I6I0I1Q0NGRiIgb2Zmc2V0PSIwLjY2NzU5NjE1OTgyMTAzNSIvPiYjeGE7PHN0b3Agc3R5bGU9InN0b3AtY29sb3I6I0I0Q0NGRiIgb2Zmc2V0PSIwLjY3MDIwMDg0NDc3Mjk1Ii8+JiN4YTs8c3RvcCBzdHlsZT0ic3RvcC1jb2xvcjojQjRDQkZGIiBvZmZzZXQ9IjAuNjcyNDU4Njc2MjQ4Njk4Ii8+JiN4YTs8c3RvcCBzdHlsZT0ic3RvcC1jb2xvcjojQjNDQkZGIiBvZmZzZXQ9IjAuNjc1ODg0MjM3MDgxOTc1Ii8+JiN4YTs8c3RvcCBzdHlsZT0ic3RvcC1jb2xvcjojQjNDQUZGIiBvZmZzZXQ9IjAuNjc4MTkxOTEyMDA2Mzg3Ii8+JiN4YTs8c3RvcCBzdHlsZT0ic3RvcC1jb2xvcjojQjJDQUZGIiBvZmZzZXQ9IjAuNjgwNTI2NTgyMTk1NzcyIi8+JiN4YTs8c3RvcCBzdHlsZT0ic3RvcC1jb2xvcjojQjFDQUZGIiBvZmZzZXQ9IjAuNjgzNjY5NTg5NzgyMDgyIi8+JiN4YTs8c3RvcCBzdHlsZT0ic3RvcC1jb2xvcjojQjFDOUZGIiBvZmZzZXQ9IjAuNjg2MDU0OTg5NTIyMjcyIi8+JiN4YTs8c3RvcCBzdHlsZT0ic3RvcC1jb2xvcjojQjBDOUZGIiBvZmZzZXQ9IjAuNjg5NjgwNDM4NTUzNzc1Ii8+JiN4YTs8c3RvcCBzdHlsZT0ic3RvcC1jb2xvcjojQUZDOEZGIiBvZmZzZXQ9IjAuNjk0NTk1Njc4ODUzMTg1Ii8+JiN4YTs8c3RvcCBzdHlsZT0ic3RvcC1jb2xvcjojQUVDOEZGIiBvZmZzZXQ9IjAuNjk4MzQ0OTYxODE1Mjk1Ii8+JiN4YTs8c3RvcCBzdHlsZT0ic3RvcC1jb2xvcjojQUVDN0ZGIiBvZmZzZXQ9IjAuNzAwODc5MDQ2ODEzNjEiLz4mI3hhOzxzdG9wIHN0eWxlPSJzdG9wLWNvbG9yOiNBREM3RkYiIG9mZnNldD0iMC43MDQ3MzM2NjAzMTQwNCIvPiYjeGE7PHN0b3Agc3R5bGU9InN0b3AtY29sb3I6I0FDQzZGRiIgb2Zmc2V0PSIwLjcwOTk2NTE2NTQzMTcyMyIvPiYjeGE7PHN0b3Agc3R5bGU9InN0b3AtY29sb3I6I0FCQzZGRiIgb2Zmc2V0PSIwLjcxNDQwOTM3ODMyNDMwNyIvPiYjeGE7PHN0b3Agc3R5bGU9InN0b3AtY29sb3I6I0FCQzVGRiIgb2Zmc2V0PSIwLjcxNzU3MDE0NTU1MTgwNiIvPiYjeGE7PHN0b3Agc3R5bGU9InN0b3AtY29sb3I6I0FBQzVGRiIgb2Zmc2V0PSIwLjcyMTcwMDMzMzQwMTQ1MiIvPiYjeGE7PHN0b3Agc3R5bGU9InN0b3AtY29sb3I6I0E5QzRGRiIgb2Zmc2V0PSIwLjcyNzMxMzA0ODgxNzcwOCIvPiYjeGE7PHN0b3Agc3R5bGU9InN0b3AtY29sb3I6I0E4QzRGRiIgb2Zmc2V0PSIwLjczMjA4Nzg0OTM1Nzc2OSIvPiYjeGE7PHN0b3Agc3R5bGU9InN0b3AtY29sb3I6I0E4QzNGRiIgb2Zmc2V0PSIwLjczNTQ4Nzc3NjA2NzMyMSIvPiYjeGE7PHN0b3Agc3R5bGU9InN0b3AtY29sb3I6I0E3QzNGRiIgb2Zmc2V0PSIwLjczOTkzNTk3NzMxNjY1Ii8+JiN4YTs8c3RvcCBzdHlsZT0ic3RvcC1jb2xvcjojQTZDM0ZGIiBvZmZzZXQ9IjAuNzQzNDQyOTk3NzA3ODM1Ii8+JiN4YTs8c3RvcCBzdHlsZT0ic3RvcC1jb2xvcjojQTZDMkZGIiBvZmZzZXQ9IjAuNzQ3MDEzNTc3ODcyMDciLz4mI3hhOzxzdG9wIHN0eWxlPSJzdG9wLWNvbG9yOiNBNUMyRkYiIG9mZnNldD0iMC43NTIxOTQwMTY2OTkwMjIiLz4mI3hhOzxzdG9wIHN0eWxlPSJzdG9wLWNvbG9yOiNBNUMxRkYiIG9mZnNldD0iMC43NTU4ODgxNzQ4NjE2NjMiLz4mI3hhOzxzdG9wIHN0eWxlPSJzdG9wLWNvbG9yOiNBNEMxRkYiIG9mZnNldD0iMC43NjEyNzQ1NTE5MDIwMiIvPiYjeGE7PHN0b3Agc3R5bGU9InN0b3AtY29sb3I6I0EzQzBGRiIgb2Zmc2V0PSIwLjc2OTAwOTY1MzI5NTc3NyIvPiYjeGE7PHN0b3Agc3R5bGU9InN0b3AtY29sb3I6I0EyQzBGRiIgb2Zmc2V0PSIwLjc3NDY3OTg1MDQ1Mzg0OSIvPiYjeGE7PHN0b3Agc3R5bGU9InN0b3AtY29sb3I6I0EyQkZGRiIgb2Zmc2V0PSIwLjc3ODczNjgwNTM3MTA2MiIvPiYjeGE7PHN0b3Agc3R5bGU9InN0b3AtY29sb3I6I0ExQkZGRiIgb2Zmc2V0PSIwLjc4NTI1NzA4NTM0MjY5MyIvPiYjeGE7PHN0b3Agc3R5bGU9InN0b3AtY29sb3I6I0EwQkVGRiIgb2Zmc2V0PSIwLjc5MzgwNTU0NTUzMjMwMyIvPiYjeGE7PHN0b3Agc3R5bGU9InN0b3AtY29sb3I6IzlGQkVGRiIgb2Zmc2V0PSIwLjgwMDcyOTY4MjYzNjI3OCIvPiYjeGE7PHN0b3Agc3R5bGU9InN0b3AtY29sb3I6IzlGQkRGRiIgb2Zmc2V0PSIwLjgwNTI0NDMxNzU5MjA2NiIvPiYjeGE7PHN0b3Agc3R5bGU9InN0b3AtY29sb3I6IzlFQkRGRiIgb2Zmc2V0PSIwLjgxMjUzMjE0NDczNTAxMyIvPiYjeGE7PHN0b3Agc3R5bGU9InN0b3AtY29sb3I6IzlEQkNGRiIgb2Zmc2V0PSIwLjgyMjgwNjI0MzQ0NDcyOCIvPiYjeGE7PHN0b3Agc3R5bGU9InN0b3AtY29sb3I6IzlDQkNGRiIgb2Zmc2V0PSIwLjgzMDYxNzQwMjYyODgwMiIvPiYjeGE7PHN0b3Agc3R5bGU9InN0b3AtY29sb3I6IzlDQkJGRiIgb2Zmc2V0PSIwLjgzNjQ2ODA4NTA5NTc3OSIvPiYjeGE7PHN0b3Agc3R5bGU9InN0b3AtY29sb3I6IzlCQkJGRiIgb2Zmc2V0PSIwLjg0NDc2MjIzNzUzMTg5MSIvPiYjeGE7PHN0b3Agc3R5bGU9InN0b3AtY29sb3I6IzlBQkFGRiIgb2Zmc2V0PSIwLjg1NjUzNTQ3NjI3Mjc2NSIvPiYjeGE7PHN0b3Agc3R5bGU9InN0b3AtY29sb3I6Izk5QkFGRiIgb2Zmc2V0PSIwLjg2NjM1Mjk5MjE2MjQ1MSIvPiYjeGE7PHN0b3Agc3R5bGU9InN0b3AtY29sb3I6Izk5QjlGRiIgb2Zmc2V0PSIwLjg3MzEzOTc1MDE5NDY3NiIvPiYjeGE7PHN0b3Agc3R5bGU9InN0b3AtY29sb3I6Izk4QjlGRiIgb2Zmc2V0PSIwLjg4MzcxNDExNDIyMTkxNyIvPiYjeGE7PHN0b3Agc3R5bGU9InN0b3AtY29sb3I6Izk4QjhGRiIgb2Zmc2V0PSIwLjg5MTkwMDI3NzQ2ODQ4OCIvPiYjeGE7PHN0b3Agc3R5bGU9InN0b3AtY29sb3I6Izk3QjhGRiIgb2Zmc2V0PSIwLjkwMDQ0Nzc2ODI0MzA2NiIvPiYjeGE7PHN0b3Agc3R5bGU9InN0b3AtY29sb3I6Izk2QjhGRiIgb2Zmc2V0PSIwLjkxMTIzMTUxNTM3MTM1NiIvPiYjeGE7PHN0b3Agc3R5bGU9InN0b3AtY29sb3I6Izk2QjdGRiIgb2Zmc2V0PSIwLjkxOTQyNDExNzQxNTI0OCIvPiYjeGE7PHN0b3Agc3R5bGU9InN0b3AtY29sb3I6Izk1QjdGRiIgb2Zmc2V0PSIwLjkzMjI1NDk0NTQ5MjgwNCIvPiYjeGE7PHN0b3Agc3R5bGU9InN0b3AtY29sb3I6Izk1QjZGRiIgb2Zmc2V0PSIwLjk0MjI4Njc1NTE1MDEyIi8+JiN4YTs8c3RvcCBzdHlsZT0ic3RvcC1jb2xvcjojOTRCNkZGIiBvZmZzZXQ9IjAuOTU1MjYxOTYyMTA1MzExIi8+JiN4YTs8c3RvcCBzdHlsZT0ic3RvcC1jb2xvcjojOTNCNkZGIiBvZmZzZXQ9IjAuOTY4ODA0ODcwNzk2ODQ3Ii8+JiN4YTs8c3RvcCBzdHlsZT0ic3RvcC1jb2xvcjojOTNCNUZGIiBvZmZzZXQ9IjAuOTgwNTk3Njc3NTU2MjE0Ii8+JiN4YTs8c3RvcCBzdHlsZT0ic3RvcC1jb2xvcjojOTJCNUZGIiBvZmZzZXQ9IjAuOTk1NzE3ODQxNDI1MzU0Ii8+JiN4YTs8L2xpbmVhckdyYWRpZW50PiYjeGE7JiN4YTs8cmVjdCBoZWlnaHQ9IjE5NiIgd2lkdGg9Ijk4MCIgeT0iMTAiIHg9IjEwIi8+JiN4YTsmI3hhOzxsaW5lIGNsYXNzPSJncmlkIiB5Mj0iMjI2IiB5MT0iMjE2IiB4Mj0iNTIuNTM1NDMwNTk5MjUwNiIgeDE9IjUyLjUzNTQzMDU5OTI1MDYiLz4mI3hhOzxsaW5lIGNsYXNzPSJncmlkIiB5Mj0iMjI2IiB5MT0iMjE2IiB4Mj0iMjE4LjIzNjA2MzEyNzYzNCIgeDE9IjIxOC4yMzYwNjMxMjc2MzQiLz4mI3hhOzxsaW5lIGNsYXNzPSJncmlkIiB5Mj0iMjIxIiB5MT0iMjE2IiB4Mj0iMzE1LjE2NDcxOTUwMjUxNSIgeDE9IjMxNS4xNjQ3MTk1MDI1MTUiLz4mI3hhOzxsaW5lIGNsYXNzPSJncmlkIiB5Mj0iMjI2IiB5MT0iMjE2IiB4Mj0iMzgzLjkzNjY5NTY1NjAxOCIgeDE9IjM4My45MzY2OTU2NTYwMTgiLz4mI3hhOzxsaW5lIGNsYXNzPSJncmlkIiB5Mj0iMjIxIiB5MT0iMjE2IiB4Mj0iNDM3LjI4MDM4NDYwNzUxMiIgeDE9IjQzNy4yODAzODQ2MDc1MTIiLz4mI3hhOzxsaW5lIGNsYXNzPSJncmlkIiB5Mj0iMjIxIiB5MT0iMjE2IiB4Mj0iNDgwLjg2NTM1MjAzMDg5OSIgeDE9IjQ4MC44NjUzNTIwMzA4OTkiLz4mI3hhOzxsaW5lIGNsYXNzPSJncmlkIiB5Mj0iMjIxIiB5MT0iMjE2IiB4Mj0iNTE3LjcxNTkxNjkxNTg2NyIgeDE9IjUxNy43MTU5MTY5MTU4NjciLz4mI3hhOzxsaW5lIGNsYXNzPSJncmlkIiB5Mj0iMjI2IiB5MT0iMjE2IiB4Mj0iNTQ5LjYzNzMyODE4NDQwMiIgeDE9IjU0OS42MzczMjgxODQ0MDIiLz4mI3hhOzxsaW5lIGNsYXNzPSJncmlkIiB5Mj0iMjIxIiB5MT0iMjE2IiB4Mj0iNTc3Ljc5NDAwODQwNTc4IiB4MT0iNTc3Ljc5NDAwODQwNTc4Ii8+JiN4YTs8bGluZSBjbGFzcz0iZ3JpZCIgeTI9IjIyMSIgeTE9IjIxNiIgeDI9IjYwMi45ODEwMTcxMzU4OTUiIHgxPSI2MDIuOTgxMDE3MTM1ODk1Ii8+JiN4YTs8bGluZSBjbGFzcz0iZ3JpZCIgeTI9IjIyMSIgeTE9IjIxNiIgeDI9IjYyNS43NjU0Mzc5OTYxNDEiIHgxPSI2MjUuNzY1NDM3OTk2MTQxIi8+JiN4YTs8bGluZSBjbGFzcz0iZ3JpZCIgeTI9IjIyMSIgeTE9IjIxNiIgeDI9IjY0Ni41NjU5ODQ1NTkyODMiIHgxPSI2NDYuNTY1OTg0NTU5MjgzIi8+JiN4YTs8bGluZSBjbGFzcz0iZ3JpZCIgeTI9IjIyMSIgeTE9IjIxNiIgeDI9IjY2NS43MDA2MzI1MjgzODQiIHgxPSI2NjUuNzAwNjMyNTI4Mzg0Ii8+JiN4YTs8bGluZSBjbGFzcz0iZ3JpZCIgeTI9IjIyMSIgeTE9IjIxNiIgeDI9IjY4My40MTY1NDk0NDQyNTEiIHgxPSI2ODMuNDE2NTQ5NDQ0MjUxIi8+JiN4YTs8bGluZSBjbGFzcz0iZ3JpZCIgeTI9IjIyMSIgeTE9IjIxNiIgeDI9IjY5OS45MDk2NzM1MTA3NzYiIHgxPSI2OTkuOTA5NjczNTEwNzc2Ii8+JiN4YTs8bGluZSBjbGFzcz0iZ3JpZCIgeTI9IjIyNiIgeTE9IjIxNiIgeDI9IjcxNS4zMzc5NjA3MTI3ODYiIHgxPSI3MTUuMzM3OTYwNzEyNzg2Ii8+JiN4YTs8bGluZSBjbGFzcz0iZ3JpZCIgeTI9IjIyMSIgeTE9IjIxNiIgeDI9IjcyOS44MzA2MDg4MzA2OTciIHgxPSI3MjkuODMwNjA4ODMwNjk3Ii8+JiN4YTs8bGluZSBjbGFzcz0iZ3JpZCIgeTI9IjIyMSIgeTE9IjIxNiIgeDI9Ijc0My40OTQ2NDA5MzQxNjQiIHgxPSI3NDMuNDk0NjQwOTM0MTY0Ii8+JiN4YTs8bGluZSBjbGFzcz0iZ3JpZCIgeTI9IjIyMSIgeTE9IjIxNiIgeDI9Ijc1Ni40MTk3MDY1MTE1NzciIHgxPSI3NTYuNDE5NzA2NTExNTc3Ii8+JiN4YTs8bGluZSBjbGFzcz0iZ3JpZCIgeTI9IjIyMSIgeTE9IjIxNiIgeDI9Ijc2OC42ODE2NDk2NjQyNzkiIHgxPSI3NjguNjgxNjQ5NjY0Mjc5Ii8+JiN4YTs8bGluZSBjbGFzcz0iZ3JpZCIgeTI9IjIyMSIgeTE9IjIxNiIgeDI9Ijc4MC4zNDUyMDU4MTkxMzIiIHgxPSI3ODAuMzQ1MjA1ODE5MTMyIi8+JiN4YTs8bGluZSBjbGFzcz0iZ3JpZCIgeTI9IjIyMSIgeTE9IjIxNiIgeDI9Ijc5MS40NjYwNzA1MjQ1MjUiIHgxPSI3OTEuNDY2MDcwNTI0NTI1Ii8+JiN4YTs8bGluZSBjbGFzcz0iZ3JpZCIgeTI9IjIyMSIgeTE9IjIxNiIgeDI9IjgwMi4wOTI1MDc5OTkyMzEiIHgxPSI4MDIuMDkyNTA3OTk5MjMxIi8+JiN4YTs8bGluZSBjbGFzcz0iZ3JpZCIgeTI9IjIyMSIgeTE9IjIxNiIgeDI9IjgxMi4yNjY2MTcwODc2NjciIHgxPSI4MTIuMjY2NjE3MDg3NjY3Ii8+JiN4YTs8bGluZSBjbGFzcz0iZ3JpZCIgeTI9IjIyMSIgeTE9IjIxNiIgeDI9IjgyMi4wMjUzMzg2MTU3NzMiIHgxPSI4MjIuMDI1MzM4NjE1NzczIi8+JiN4YTs8bGluZSBjbGFzcz0iZ3JpZCIgeTI9IjIyMSIgeTE9IjIxNiIgeDI9IjgzMS40MDEyNjUwNTY3NjgiIHgxPSI4MzEuNDAxMjY1MDU2NzY4Ii8+JiN4YTs8bGluZSBjbGFzcz0iZ3JpZCIgeTI9IjIyMSIgeTE9IjIxNiIgeDI9Ijg0MC40MjMyOTczMDkwNDQiIHgxPSI4NDAuNDIzMjk3MzA5MDQ0Ii8+JiN4YTs8bGluZSBjbGFzcz0iZ3JpZCIgeTI9IjIyMSIgeTE9IjIxNiIgeDI9Ijg0OS4xMTcxODE5NzI2MzUiIHgxPSI4NDkuMTE3MTgxOTcyNjM1Ii8+JiN4YTs8bGluZSBjbGFzcz0iZ3JpZCIgeTI9IjIyMSIgeTE9IjIxNiIgeDI9Ijg1Ny41MDU5NTQzMDI3NTciIHgxPSI4NTcuNTA1OTU0MzAyNzU3Ii8+JiN4YTs8bGluZSBjbGFzcz0iZ3JpZCIgeTI9IjIyMSIgeTE9IjIxNiIgeDI9Ijg2NS42MTAzMDYwMzkxNiIgeDE9Ijg2NS42MTAzMDYwMzkxNiIvPiYjeGE7PGxpbmUgY2xhc3M9ImdyaWQiIHkyPSIyMjEiIHkxPSIyMTYiIHgyPSI4NzMuNDQ4ODkyOTAwMTQxIiB4MT0iODczLjQ0ODg5MjkwMDE0MSIvPiYjeGE7PGxpbmUgY2xhc3M9ImdyaWQiIHkyPSIyMjYiIHkxPSIyMTYiIHgyPSI4ODEuMDM4NTkzMjQxMTciIHgxPSI4ODEuMDM4NTkzMjQxMTciLz4mI3hhOzxsaW5lIGNsYXNzPSJncmlkIiB5Mj0iMjIxIiB5MT0iMjE2IiB4Mj0iODg4LjM5NDcyNjg5OTQwNiIgeDE9Ijg4OC4zOTQ3MjY4OTk0MDYiLz4mI3hhOzxsaW5lIGNsYXNzPSJncmlkIiB5Mj0iMjIxIiB5MT0iMjE2IiB4Mj0iODk1LjUzMTI0MTM1OTA4IiB4MT0iODk1LjUzMTI0MTM1OTA4Ii8+JiN4YTs8bGluZSBjbGFzcz0iZ3JpZCIgeTI9IjIyMSIgeTE9IjIxNiIgeDI9IjkwMi40NjA4NzA5MjQxMjgiIHgxPSI5MDIuNDYwODcwOTI0MTI4Ii8+JiN4YTs8bGluZSBjbGFzcz0iZ3JpZCIgeTI9IjIyMSIgeTE9IjIxNiIgeDI9IjkwOS4xOTUyNzM0NjI1NDciIHgxPSI5MDkuMTk1MjczNDYyNTQ3Ii8+JiN4YTs8bGluZSBjbGFzcz0iZ3JpZCIgeTI9IjIyMSIgeTE9IjIxNiIgeDI9IjkxNS43NDUxNDg0MTEwODUiIHgxPSI5MTUuNzQ1MTQ4NDExMDg1Ii8+JiN4YTs8bGluZSBjbGFzcz0iZ3JpZCIgeTI9IjIyMSIgeTE9IjIxNiIgeDI9IjkyMi4xMjAzMzkwMzk5NjEiIHgxPSI5MjIuMTIwMzM5MDM5OTYxIi8+JiN4YTs8bGluZSBjbGFzcz0iZ3JpZCIgeTI9IjIyMSIgeTE9IjIxNiIgeDI9IjkyOC4zMjk5MjE0MzE2NDgiIHgxPSI5MjguMzI5OTIxNDMxNjQ4Ii8+JiN4YTs8bGluZSBjbGFzcz0iZ3JpZCIgeTI9IjIyMSIgeTE9IjIxNiIgeDI9IjkzNC4zODIyODIxOTI2NjMiIHgxPSI5MzQuMzgyMjgyMTkyNjYzIi8+JiN4YTs8bGluZSBjbGFzcz0iZ3JpZCIgeTI9IjIyMSIgeTE9IjIxNiIgeDI9Ijk0MC4yODUxODY1NjgxNzciIHgxPSI5NDAuMjg1MTg2NTY4MTc3Ii8+JiN4YTs8bGluZSBjbGFzcz0iZ3JpZCIgeTI9IjIyMSIgeTE9IjIxNiIgeDI9Ijk0Ni4wNDU4MzgzNDc1MTYiIHgxPSI5NDYuMDQ1ODM4MzQ3NTE2Ii8+JiN4YTs8bGluZSBjbGFzcz0iZ3JpZCIgeTI9IjIyMSIgeTE9IjIxNiIgeDI9Ijk1MS42NzA5MzI3MTk4NjMiIHgxPSI5NTEuNjcwOTMyNzE5ODYzIi8+JiN4YTs8bGluZSBjbGFzcz0iZ3JpZCIgeTI9IjIyMSIgeTE9IjIxNiIgeDI9Ijk1Ny4xNjY3MDMwNTI5MDkiIHgxPSI5NTcuMTY2NzAzMDUyOTA5Ii8+JiN4YTs8bGluZSBjbGFzcz0iZ3JpZCIgeTI9IjIyMSIgeTE9IjIxNiIgeDI9Ijk2Mi41Mzg5NjI0MTQwNDEiIHgxPSI5NjIuNTM4OTYyNDE0MDQxIi8+JiN4YTs8bGluZSBjbGFzcz0iZ3JpZCIgeTI9IjIyMSIgeTE9IjIxNiIgeDI9Ijk2Ny43OTMxNDA1Mjc2MTQiIHgxPSI5NjcuNzkzMTQwNTI3NjE0Ii8+JiN4YTs8bGluZSBjbGFzcz0iZ3JpZCIgeTI9IjIyMSIgeTE9IjIxNiIgeDI9Ijk3Mi45MzQzMTY3NTczNDQiIHgxPSI5NzIuOTM0MzE2NzU3MzQ0Ii8+JiN4YTs8bGluZSBjbGFzcz0iZ3JpZCIgeTI9IjIyMSIgeTE9IjIxNiIgeDI9Ijk3Ny45NjcyNDk2MTYwNSIgeDE9Ijk3Ny45NjcyNDk2MTYwNSIvPiYjeGE7PGxpbmUgY2xhc3M9ImdyaWQiIHkyPSIyMjEiIHkxPSIyMTYiIHgyPSI5ODIuODk2NDAzMjMyNDg0IiB4MT0iOTgyLjg5NjQwMzIzMjQ4NCIvPiYjeGE7PGxpbmUgY2xhc3M9ImdyaWQiIHkyPSIyMjEiIHkxPSIyMTYiIHgyPSI5ODcuNzI1OTcxMTQ0MTU2IiB4MT0iOTg3LjcyNTk3MTE0NDE1NiIvPiYjeGE7JiN4YTs8bGluZSBjbGFzcz0iaGlkZGVuIiB5Mj0iMjI2IiB5MT0iMCIgeDI9IjUyLjUzNTQzMDU5OTI1MDYiIHgxPSI1Mi41MzU0MzA1OTkyNTA2Ii8+JiN4YTs8bGluZSBjbGFzcz0iaGlkZGVuIiB5Mj0iMjI2IiB5MT0iMCIgeDI9IjIxOC4yMzYwNjMxMjc2MzQiIHgxPSIyMTguMjM2MDYzMTI3NjM0Ii8+JiN4YTs8bGluZSBjbGFzcz0iaGlkZGVuIiB5Mj0iMjI2IiB5MT0iMCIgeDI9IjMxNS4xNjQ3MTk1MDI1MTUiIHgxPSIzMTUuMTY0NzE5NTAyNTE1Ii8+JiN4YTs8bGluZSBjbGFzcz0iaGlkZGVuIiB5Mj0iMjI2IiB5MT0iMCIgeDI9IjM4My45MzY2OTU2NTYwMTgiIHgxPSIzODMuOTM2Njk1NjU2MDE4Ii8+JiN4YTs8bGluZSBjbGFzcz0iaGlkZGVuIiB5Mj0iMjI2IiB5MT0iMCIgeDI9IjQzNy4yODAzODQ2MDc1MTIiIHgxPSI0MzcuMjgwMzg0NjA3NTEyIi8+JiN4YTs8bGluZSBjbGFzcz0iaGlkZGVuIiB5Mj0iMjI2IiB5MT0iMCIgeDI9IjQ4MC44NjUzNTIwMzA4OTkiIHgxPSI0ODAuODY1MzUyMDMwODk5Ii8+JiN4YTs8bGluZSBjbGFzcz0iaGlkZGVuIiB5Mj0iMjI2IiB5MT0iMCIgeDI9IjUxNy43MTU5MTY5MTU4NjciIHgxPSI1MTcuNzE1OTE2OTE1ODY3Ii8+JiN4YTs8bGluZSBjbGFzcz0iaGlkZGVuIiB5Mj0iMjI2IiB5MT0iMCIgeDI9IjU0OS42MzczMjgxODQ0MDIiIHgxPSI1NDkuNjM3MzI4MTg0NDAyIi8+JiN4YTs8bGluZSBjbGFzcz0iaGlkZGVuIiB5Mj0iMjI2IiB5MT0iMCIgeDI9IjU3Ny43OTQwMDg0MDU3OCIgeDE9IjU3Ny43OTQwMDg0MDU3OCIvPiYjeGE7PGxpbmUgY2xhc3M9ImhpZGRlbiIgeTI9IjIyNiIgeTE9IjAiIHgyPSI2MDIuOTgxMDE3MTM1ODk1IiB4MT0iNjAyLjk4MTAxNzEzNTg5NSIvPiYjeGE7PGxpbmUgY2xhc3M9ImhpZGRlbiIgeTI9IjIyNiIgeTE9IjAiIHgyPSI2MjUuNzY1NDM3OTk2MTQxIiB4MT0iNjI1Ljc2NTQzNzk5NjE0MSIvPiYjeGE7PGxpbmUgY2xhc3M9ImhpZGRlbiIgeTI9IjIyNiIgeTE9IjAiIHgyPSI2NDYuNTY1OTg0NTU5MjgzIiB4MT0iNjQ2LjU2NTk4NDU1OTI4MyIvPiYjeGE7PGxpbmUgY2xhc3M9ImhpZGRlbiIgeTI9IjIyNiIgeTE9IjAiIHgyPSI2NjUuNzAwNjMyNTI4Mzg0IiB4MT0iNjY1LjcwMDYzMjUyODM4NCIvPiYjeGE7PGxpbmUgY2xhc3M9ImhpZGRlbiIgeTI9IjIyNiIgeTE9IjAiIHgyPSI2ODMuNDE2NTQ5NDQ0MjUxIiB4MT0iNjgzLjQxNjU0OTQ0NDI1MSIvPiYjeGE7PGxpbmUgY2xhc3M9ImhpZGRlbiIgeTI9IjIyNiIgeTE9IjAiIHgyPSI2OTkuOTA5NjczNTEwNzc2IiB4MT0iNjk5LjkwOTY3MzUxMDc3NiIvPiYjeGE7PGxpbmUgY2xhc3M9ImhpZGRlbiIgeTI9IjIyNiIgeTE9IjAiIHgyPSI3MTUuMzM3OTYwNzEyNzg2IiB4MT0iNzE1LjMzNzk2MDcxMjc4NiIvPiYjeGE7PGxpbmUgY2xhc3M9ImhpZGRlbiIgeTI9IjIyNiIgeTE9IjAiIHgyPSI3MjkuODMwNjA4ODMwNjk3IiB4MT0iNzI5LjgzMDYwODgzMDY5NyIvPiYjeGE7PGxpbmUgY2xhc3M9ImhpZGRlbiIgeTI9IjIyNiIgeTE9IjAiIHgyPSI3NDMuNDk0NjQwOTM0MTY0IiB4MT0iNzQzLjQ5NDY0MDkzNDE2NCIvPiYjeGE7PGxpbmUgY2xhc3M9ImhpZGRlbiIgeTI9IjIyNiIgeTE9IjAiIHgyPSI3NTYuNDE5NzA2NTExNTc3IiB4MT0iNzU2LjQxOTcwNjUxMTU3NyIvPiYjeGE7PGxpbmUgY2xhc3M9ImhpZGRlbiIgeTI9IjIyNiIgeTE9IjAiIHgyPSI3NjguNjgxNjQ5NjY0Mjc5IiB4MT0iNzY4LjY4MTY0OTY2NDI3OSIvPiYjeGE7PGxpbmUgY2xhc3M9ImhpZGRlbiIgeTI9IjIyNiIgeTE9IjAiIHgyPSI3ODAuMzQ1MjA1ODE5MTMyIiB4MT0iNzgwLjM0NTIwNTgxOTEzMiIvPiYjeGE7PGxpbmUgY2xhc3M9ImhpZGRlbiIgeTI9IjIyNiIgeTE9IjAiIHgyPSI3OTEuNDY2MDcwNTI0NTI1IiB4MT0iNzkxLjQ2NjA3MDUyNDUyNSIvPiYjeGE7PGxpbmUgY2xhc3M9ImhpZGRlbiIgeTI9IjIyNiIgeTE9IjAiIHgyPSI4MDIuMDkyNTA3OTk5MjMxIiB4MT0iODAyLjA5MjUwNzk5OTIzMSIvPiYjeGE7PGxpbmUgY2xhc3M9ImhpZGRlbiIgeTI9IjIyNiIgeTE9IjAiIHgyPSI4MTIuMjY2NjE3MDg3NjY3IiB4MT0iODEyLjI2NjYxNzA4NzY2NyIvPiYjeGE7PGxpbmUgY2xhc3M9ImhpZGRlbiIgeTI9IjIyNiIgeTE9IjAiIHgyPSI4MjIuMDI1MzM4NjE1NzczIiB4MT0iODIyLjAyNTMzODYxNTc3MyIvPiYjeGE7PGxpbmUgY2xhc3M9ImhpZGRlbiIgeTI9IjIyNiIgeTE9IjAiIHgyPSI4MzEuNDAxMjY1MDU2NzY4IiB4MT0iODMxLjQwMTI2NTA1Njc2OCIvPiYjeGE7PGxpbmUgY2xhc3M9ImhpZGRlbiIgeTI9IjIyNiIgeTE9IjAiIHgyPSI4NDAuNDIzMjk3MzA5MDQ0IiB4MT0iODQwLjQyMzI5NzMwOTA0NCIvPiYjeGE7PGxpbmUgY2xhc3M9ImhpZGRlbiIgeTI9IjIyNiIgeTE9IjAiIHgyPSI4NDkuMTE3MTgxOTcyNjM1IiB4MT0iODQ5LjExNzE4MTk3MjYzNSIvPiYjeGE7PGxpbmUgY2xhc3M9ImhpZGRlbiIgeTI9IjIyNiIgeTE9IjAiIHgyPSI4NTcuNTA1OTU0MzAyNzU3IiB4MT0iODU3LjUwNTk1NDMwMjc1NyIvPiYjeGE7PGxpbmUgY2xhc3M9ImhpZGRlbiIgeTI9IjIyNiIgeTE9IjAiIHgyPSI4NjUuNjEwMzA2MDM5MTYiIHgxPSI4NjUuNjEwMzA2MDM5MTYiLz4mI3hhOzxsaW5lIGNsYXNzPSJoaWRkZW4iIHkyPSIyMjYiIHkxPSIwIiB4Mj0iODczLjQ0ODg5MjkwMDE0MSIgeDE9Ijg3My40NDg4OTI5MDAxNDEiLz4mI3hhOzxsaW5lIGNsYXNzPSJoaWRkZW4iIHkyPSIyMjYiIHkxPSIwIiB4Mj0iODgxLjAzODU5MzI0MTE3IiB4MT0iODgxLjAzODU5MzI0MTE3Ii8+JiN4YTs8bGluZSBjbGFzcz0iaGlkZGVuIiB5Mj0iMjI2IiB5MT0iMCIgeDI9Ijg4OC4zOTQ3MjY4OTk0MDYiIHgxPSI4ODguMzk0NzI2ODk5NDA2Ii8+JiN4YTs8bGluZSBjbGFzcz0iaGlkZGVuIiB5Mj0iMjI2IiB5MT0iMCIgeDI9Ijg5NS41MzEyNDEzNTkwOCIgeDE9Ijg5NS41MzEyNDEzNTkwOCIvPiYjeGE7PGxpbmUgY2xhc3M9ImhpZGRlbiIgeTI9IjIyNiIgeTE9IjAiIHgyPSI5MDIuNDYwODcwOTI0MTI4IiB4MT0iOTAyLjQ2MDg3MDkyNDEyOCIvPiYjeGE7PGxpbmUgY2xhc3M9ImhpZGRlbiIgeTI9IjIyNiIgeTE9IjAiIHgyPSI5MDkuMTk1MjczNDYyNTQ3IiB4MT0iOTA5LjE5NTI3MzQ2MjU0NyIvPiYjeGE7PGxpbmUgY2xhc3M9ImhpZGRlbiIgeTI9IjIyNiIgeTE9IjAiIHgyPSI5MTUuNzQ1MTQ4NDExMDg1IiB4MT0iOTE1Ljc0NTE0ODQxMTA4NSIvPiYjeGE7PGxpbmUgY2xhc3M9ImhpZGRlbiIgeTI9IjIyNiIgeTE9IjAiIHgyPSI5MjIuMTIwMzM5MDM5OTYxIiB4MT0iOTIyLjEyMDMzOTAzOTk2MSIvPiYjeGE7PGxpbmUgY2xhc3M9ImhpZGRlbiIgeTI9IjIyNiIgeTE9IjAiIHgyPSI5MjguMzI5OTIxNDMxNjQ4IiB4MT0iOTI4LjMyOTkyMTQzMTY0OCIvPiYjeGE7PGxpbmUgY2xhc3M9ImhpZGRlbiIgeTI9IjIyNiIgeTE9IjAiIHgyPSI5MzQuMzgyMjgyMTkyNjYzIiB4MT0iOTM0LjM4MjI4MjE5MjY2MyIvPiYjeGE7PGxpbmUgY2xhc3M9ImhpZGRlbiIgeTI9IjIyNiIgeTE9IjAiIHgyPSI5NDAuMjg1MTg2NTY4MTc3IiB4MT0iOTQwLjI4NTE4NjU2ODE3NyIvPiYjeGE7PGxpbmUgY2xhc3M9ImhpZGRlbiIgeTI9IjIyNiIgeTE9IjAiIHgyPSI5NDYuMDQ1ODM4MzQ3NTE2IiB4MT0iOTQ2LjA0NTgzODM0NzUxNiIvPiYjeGE7PGxpbmUgY2xhc3M9ImhpZGRlbiIgeTI9IjIyNiIgeTE9IjAiIHgyPSI5NTEuNjcwOTMyNzE5ODYzIiB4MT0iOTUxLjY3MDkzMjcxOTg2MyIvPiYjeGE7PGxpbmUgY2xhc3M9ImhpZGRlbiIgeTI9IjIyNiIgeTE9IjAiIHgyPSI5NTcuMTY2NzAzMDUyOTA5IiB4MT0iOTU3LjE2NjcwMzA1MjkwOSIvPiYjeGE7PGxpbmUgY2xhc3M9ImhpZGRlbiIgeTI9IjIyNiIgeTE9IjAiIHgyPSI5NjIuNTM4OTYyNDE0MDQxIiB4MT0iOTYyLjUzODk2MjQxNDA0MSIvPiYjeGE7PGxpbmUgY2xhc3M9ImhpZGRlbiIgeTI9IjIyNiIgeTE9IjAiIHgyPSI5NjcuNzkzMTQwNTI3NjE0IiB4MT0iOTY3Ljc5MzE0MDUyNzYxNCIvPiYjeGE7PGxpbmUgY2xhc3M9ImhpZGRlbiIgeTI9IjIyNiIgeTE9IjAiIHgyPSI5NzIuOTM0MzE2NzU3MzQ0IiB4MT0iOTcyLjkzNDMxNjc1NzM0NCIvPiYjeGE7PGxpbmUgY2xhc3M9ImhpZGRlbiIgeTI9IjIyNiIgeTE9IjAiIHgyPSI5NzcuOTY3MjQ5NjE2MDUiIHgxPSI5NzcuOTY3MjQ5NjE2MDUiLz4mI3hhOzxsaW5lIGNsYXNzPSJoaWRkZW4iIHkyPSIyMjYiIHkxPSIwIiB4Mj0iOTgyLjg5NjQwMzIzMjQ4NCIgeDE9Ijk4Mi44OTY0MDMyMzI0ODQiLz4mI3hhOzxsaW5lIGNsYXNzPSJoaWRkZW4iIHkyPSIyMjYiIHkxPSIwIiB4Mj0iOTg3LjcyNTk3MTE0NDE1NiIgeDE9Ijk4Ny43MjU5NzExNDQxNTYiLz4mI3hhOyYjeGE7PGxpbmUgY2xhc3M9ImdyaWQiIHkyPSIyMTYiIHkxPSIyMTYiIHgyPSI5OTAiIHgxPSIxMCIvPiYjeGE7JiN4YTs8Zz4mI3hhOwk8cGF0aCBkPSJNMzUuMzQ3NjU2MywyNTIuMzk2ODgxMXYtMTYuMTY3OTY4OGwtMi45NDE4OTQ1LDIuMjU0ODgyOHYtMy4yOTk4MDQ3bDIuOTQxODk0NS0yLjM2NDI1NzhoMi45MTQ1NTA4djE5LjU3NzE0ODQmIzEwOyYjOTsmIzk7SDM1LjM0NzY1NjN6Ii8+JiN4YTsJPHBhdGggZD0iTTUwLjE0MjA4OTgsMjUxLjQ2MjMxMDhjLTAuNzcwMDE5NSwwLjc0MjE4NzUtMS44OTY5NzI3LDEuMTU0Mjk2OS0zLjEwNjkzMzYsMS4xNTQyOTY5JiMxMDsmIzk7JiM5O3MtMi4zNjQ3NDYxLTAuNDEyMTA5NC0zLjEzNDc2NTYtMS4xNTQyOTY5Yy0wLjc3MDAxOTUtMC43NDMxNjQxLTEuMjM3MzA0Ny0xLjY3NzczNDQtMS4yMzczMDQ3LTMuMjQ1MTE3MnYtMTEuMjE4NzUmIzEwOyYjOTsmIzk7YzAtMS41NjY0MDYzLDAuNDY3Mjg1Mi0yLjUwMTk1MzEsMS4yMzczMDQ3LTMuMjQ0MTQwNnMxLjkyNDgwNDctMS4xNTQyOTY5LDMuMTM0NzY1Ni0xLjE1NDI5NjkmIzEwOyYjOTsmIzk7czIuMzM2OTE0MSwwLjQxMjEwOTQsMy4xMDY5MzM2LDEuMTU0Mjk2OXMxLjIzNzMwNDcsMS42Nzc3MzQ0LDEuMjM3MzA0NywzLjI0NDE0MDZ2MTEuMjE4NzUmIzEwOyYjOTsmIzk7QzUxLjM3OTM5NDUsMjQ5Ljc4NDU3NjQsNTAuOTEyMTA5NCwyNTAuNzE5MTQ2Nyw1MC4xNDIwODk4LDI1MS40NjIzMTA4eiBNNDguNDY0ODQzOCwyMzYuODg5MDY4NiYjMTA7JiM5OyYjOTtjMC0xLjEyNzkyOTctMC42MzIzMjQyLTEuNjc3NzM0NC0xLjQyOTY4NzUtMS42Nzc3MzQ0cy0xLjQ1NzUxOTUsMC41NDk4MDQ3LTEuNDU3NTE5NSwxLjY3NzczNDR2MTEuNDM4NDc2NiYjMTA7JiM5OyYjOTtjMCwxLjEyNjk1MzEsMC42NjAxNTYzLDEuNjc2NzU3OCwxLjQ1NzUxOTUsMS42NzY3NTc4czEuNDI5Njg3NS0wLjU0OTgwNDcsMS40Mjk2ODc1LTEuNjc2NzU3OFYyMzYuODg5MDY4NnoiLz4mI3hhOwk8cGF0aCBkPSJNNjEuMTY5NDMzNiwyNTEuNDYyMzEwOGMtMC43NzAwMTk1LDAuNzQyMTg3NS0xLjg5Njk3MjcsMS4xNTQyOTY5LTMuMTA2OTMzNiwxLjE1NDI5NjkmIzEwOyYjOTsmIzk7cy0yLjM2NDc0NjEtMC40MTIxMDk0LTMuMTM0NzY1Ni0xLjE1NDI5NjljLTAuNzcwMDE5NS0wLjc0MzE2NDEtMS4yMzczMDQ3LTEuNjc3NzM0NC0xLjIzNzMwNDctMy4yNDUxMTcydi0xMS4yMTg3NSYjMTA7JiM5OyYjOTtjMC0xLjU2NjQwNjMsMC40NjcyODUyLTIuNTAxOTUzMSwxLjIzNzMwNDctMy4yNDQxNDA2czEuOTI0ODA0Ny0xLjE1NDI5NjksMy4xMzQ3NjU2LTEuMTU0Mjk2OSYjMTA7JiM5OyYjOTtzMi4zMzY5MTQxLDAuNDEyMTA5NCwzLjEwNjkzMzYsMS4xNTQyOTY5czEuMjM3MzA0NywxLjY3NzczNDQsMS4yMzczMDQ3LDMuMjQ0MTQwNnYxMS4yMTg3NSYjMTA7JiM5OyYjOTtDNjIuNDA2NzM4MywyNDkuNzg0NTc2NCw2MS45Mzk0NTMxLDI1MC43MTkxNDY3LDYxLjE2OTQzMzYsMjUxLjQ2MjMxMDh6IE01OS40OTIxODc1LDIzNi44ODkwNjg2JiMxMDsmIzk7JiM5O2MwLTEuMTI3OTI5Ny0wLjYzMjMyNDItMS42Nzc3MzQ0LTEuNDI5Njg3NS0xLjY3NzczNDRzLTEuNDU3NTE5NSwwLjU0OTgwNDctMS40NTc1MTk1LDEuNjc3NzM0NHYxMS40Mzg0NzY2JiMxMDsmIzk7JiM5O2MwLDEuMTI2OTUzMSwwLjY2MDE1NjMsMS42NzY3NTc4LDEuNDU3NTE5NSwxLjY3Njc1NzhzMS40Mjk2ODc1LTAuNTQ5ODA0NywxLjQyOTY4NzUtMS42NzY3NTc4VjIzNi44ODkwNjg2eiIvPiYjeGE7CTxwYXRoIGQ9Ik03Mi4xOTY3NzczLDI1MS40NjIzMTA4Yy0wLjc3MDAxOTUsMC43NDIxODc1LTEuODk2OTcyNywxLjE1NDI5NjktMy4xMDY5MzM2LDEuMTU0Mjk2OSYjMTA7JiM5OyYjOTtzLTIuMzY0NzQ2MS0wLjQxMjEwOTQtMy4xMzQ3NjU2LTEuMTU0Mjk2OWMtMC43NzAwMTk1LTAuNzQzMTY0MS0xLjIzNzMwNDctMS42Nzc3MzQ0LTEuMjM3MzA0Ny0zLjI0NTExNzJ2LTExLjIxODc1JiMxMDsmIzk7JiM5O2MwLTEuNTY2NDA2MywwLjQ2NzI4NTItMi41MDE5NTMxLDEuMjM3MzA0Ny0zLjI0NDE0MDZzMS45MjQ4MDQ3LTEuMTU0Mjk2OSwzLjEzNDc2NTYtMS4xNTQyOTY5JiMxMDsmIzk7JiM5O3MyLjMzNjkxNDEsMC40MTIxMDk0LDMuMTA2OTMzNiwxLjE1NDI5NjlzMS4yMzczMDQ3LDEuNjc3NzM0NCwxLjIzNzMwNDcsMy4yNDQxNDA2djExLjIxODc1JiMxMDsmIzk7JiM5O0M3My40MzQwODIsMjQ5Ljc4NDU3NjQsNzIuOTY2Nzk2OSwyNTAuNzE5MTQ2Nyw3Mi4xOTY3NzczLDI1MS40NjIzMTA4eiBNNzAuNTE5NTMxMywyMzYuODg5MDY4NiYjMTA7JiM5OyYjOTtjMC0xLjEyNzkyOTctMC42MzIzMjQyLTEuNjc3NzM0NC0xLjQyOTY4NzUtMS42Nzc3MzQ0cy0xLjQ1NzUxOTUsMC41NDk4MDQ3LTEuNDU3NTE5NSwxLjY3NzczNDR2MTEuNDM4NDc2NiYjMTA7JiM5OyYjOTtjMCwxLjEyNjk1MzEsMC42NjAxNTYzLDEuNjc2NzU3OCwxLjQ1NzUxOTUsMS42NzY3NTc4czEuNDI5Njg3NS0wLjU0OTgwNDcsMS40Mjk2ODc1LTEuNjc2NzU3OFYyMzYuODg5MDY4NnoiLz4mI3hhOzwvZz4mI3hhOzxnPiYjeGE7CTxwYXRoIGQ9Ik05ODYuNDc4NTE1NiwyNTIuMzk2ODgxMWwtMy4xNjIxMDk0LTguMDU2NjQwNmwtMS40ODQzNzUsMy4wMjQ0MTQxdjUuMDMyMjI2NmgtMy4wODAwNzgxdi0xOS41NzcxNDg0aDMuMDgwMDc4MXY5LjIxMDkzNzUmIzEwOyYjOTsmIzk7bDQuMjYxNzE4OC05LjIxMDkzNzVoMy4xMDc0MjE5bC0zLjkzMTY0MDYsOC4xMTEzMjgxbDQuNTM2MTMyOCwxMS40NjU4MjAzSDk4Ni40Nzg1MTU2eiIvPiYjeGE7PC9nPiYjeGE7PGc+JiN4YTsJPHBhdGggZD0iTTE5Ny40NzM2MzI4LDI1Mi4zOTY4ODExdi0yLjQ3NDYwOTRsNC44OTQwNDMtOS41MTM2NzE5YzAuNDM5OTQxNC0wLjgyNTE5NTMsMC43OTczNjMzLTIuMDYyNSwwLjc5NzM2MzMtMy40OTIxODc1JiMxMDsmIzk7JiM5O2MwLTEuMTI2OTUzMS0wLjYwNDk4MDUtMS43MDUwNzgxLTEuNDAyMzQzOC0xLjcwNTA3ODFzLTEuNDU3MDMxMywwLjU0OTgwNDctMS40NTcwMzEzLDEuNjc3NzM0NHYxLjI2NDY0ODRoLTIuOTE0NTUwOHYtMS4xNTUyNzM0JiMxMDsmIzk7JiM5O2MwLTEuNTY2NDA2MywwLjQzOTk0MTQtMi41MDE5NTMxLDEuMjA5OTYwOS0zLjI0NDE0MDZjMC43Njk1MzEzLTAuNzQyMTg3NSwxLjk3OTQ5MjItMS4xNTQyOTY5LDMuMTYxNjIxMS0xLjE1NDI5NjkmIzEwOyYjOTsmIzk7YzEuMTgyNjE3MiwwLDIuMjI3NTM5MSwwLjMwMTc1NzgsMy4wMjQ5MDIzLDEuMDQzOTQ1M2MwLjc3MDAxOTUsMC43MTU4MjAzLDEuMjkxOTkyMiwxLjgxNTQyOTcsMS4yOTE5OTIyLDMuMzgyODEyNSYjMTA7JiM5OyYjOTtjMCwxLjQyOTY4NzUtMC40Mzk0NTMxLDMuMDc5MTAxNi0xLjA3MjI2NTYsNC4yODkwNjI1bC00LjQyNjc1NzgsOC40Njg3NWg1LjQ5OTAyMzR2Mi42MTIzMDQ3SDE5Ny40NzM2MzI4eiIvPiYjeGE7CTxwYXRoIGQ9Ik0yMTUuODQyMjg1MiwyNTEuNDYyMzEwOGMtMC43NzAwMTk1LDAuNzQyMTg3NS0xLjg5Njk3MjcsMS4xNTQyOTY5LTMuMTA2OTMzNiwxLjE1NDI5NjkmIzEwOyYjOTsmIzk7cy0yLjM2NDc0NjEtMC40MTIxMDk0LTMuMTM0NzY1Ni0xLjE1NDI5NjljLTAuNzcwMDE5NS0wLjc0MzE2NDEtMS4yMzczMDQ3LTEuNjc3NzM0NC0xLjIzNzMwNDctMy4yNDUxMTcydi0xMS4yMTg3NSYjMTA7JiM5OyYjOTtjMC0xLjU2NjQwNjMsMC40NjcyODUyLTIuNTAxOTUzMSwxLjIzNzMwNDctMy4yNDQxNDA2czEuOTI0ODA0Ny0xLjE1NDI5NjksMy4xMzQ3NjU2LTEuMTU0Mjk2OSYjMTA7JiM5OyYjOTtzMi4zMzY5MTQxLDAuNDEyMTA5NCwzLjEwNjkzMzYsMS4xNTQyOTY5czEuMjM3MzA0NywxLjY3NzczNDQsMS4yMzczMDQ3LDMuMjQ0MTQwNnYxMS4yMTg3NSYjMTA7JiM5OyYjOTtDMjE3LjA3OTU4OTgsMjQ5Ljc4NDU3NjQsMjE2LjYxMjMwNDcsMjUwLjcxOTE0NjcsMjE1Ljg0MjI4NTIsMjUxLjQ2MjMxMDh6IE0yMTQuMTY1MDM5MSwyMzYuODg5MDY4NiYjMTA7JiM5OyYjOTtjMC0xLjEyNzkyOTctMC42MzIzMjQyLTEuNjc3NzM0NC0xLjQyOTY4NzUtMS42Nzc3MzQ0cy0xLjQ1NzUxOTUsMC41NDk4MDQ3LTEuNDU3NTE5NSwxLjY3NzczNDR2MTEuNDM4NDc2NiYjMTA7JiM5OyYjOTtjMCwxLjEyNjk1MzEsMC42NjAxNTYzLDEuNjc2NzU3OCwxLjQ1NzUxOTUsMS42NzY3NTc4czEuNDI5Njg3NS0wLjU0OTgwNDcsMS40Mjk2ODc1LTEuNjc2NzU3OFYyMzYuODg5MDY4NnoiLz4mI3hhOwk8cGF0aCBkPSJNMjI2Ljg2OTYyODksMjUxLjQ2MjMxMDhjLTAuNzcwMDE5NSwwLjc0MjE4NzUtMS44OTY5NzI3LDEuMTU0Mjk2OS0zLjEwNjkzMzYsMS4xNTQyOTY5JiMxMDsmIzk7JiM5O3MtMi4zNjQ3NDYxLTAuNDEyMTA5NC0zLjEzNDc2NTYtMS4xNTQyOTY5Yy0wLjc3MDAxOTUtMC43NDMxNjQxLTEuMjM3MzA0Ny0xLjY3NzczNDQtMS4yMzczMDQ3LTMuMjQ1MTE3MnYtMTEuMjE4NzUmIzEwOyYjOTsmIzk7YzAtMS41NjY0MDYzLDAuNDY3Mjg1Mi0yLjUwMTk1MzEsMS4yMzczMDQ3LTMuMjQ0MTQwNnMxLjkyNDgwNDctMS4xNTQyOTY5LDMuMTM0NzY1Ni0xLjE1NDI5NjkmIzEwOyYjOTsmIzk7czIuMzM2OTE0MSwwLjQxMjEwOTQsMy4xMDY5MzM2LDEuMTU0Mjk2OXMxLjIzNzMwNDcsMS42Nzc3MzQ0LDEuMjM3MzA0NywzLjI0NDE0MDZ2MTEuMjE4NzUmIzEwOyYjOTsmIzk7QzIyOC4xMDY5MzM2LDI0OS43ODQ1NzY0LDIyNy42Mzk2NDg0LDI1MC43MTkxNDY3LDIyNi44Njk2Mjg5LDI1MS40NjIzMTA4eiBNMjI1LjE5MjM4MjgsMjM2Ljg4OTA2ODYmIzEwOyYjOTsmIzk7YzAtMS4xMjc5Mjk3LTAuNjMyMzI0Mi0xLjY3NzczNDQtMS40Mjk2ODc1LTEuNjc3NzM0NHMtMS40NTc1MTk1LDAuNTQ5ODA0Ny0xLjQ1NzUxOTUsMS42Nzc3MzQ0djExLjQzODQ3NjYmIzEwOyYjOTsmIzk7YzAsMS4xMjY5NTMxLDAuNjYwMTU2MywxLjY3Njc1NzgsMS40NTc1MTk1LDEuNjc2NzU3OHMxLjQyOTY4NzUtMC41NDk4MDQ3LDEuNDI5Njg3NS0xLjY3Njc1NzhWMjM2Ljg4OTA2ODZ6Ii8+JiN4YTsJPHBhdGggZD0iTTIzNy44OTY5NzI3LDI1MS40NjIzMTA4Yy0wLjc3MDAxOTUsMC43NDIxODc1LTEuODk2OTcyNywxLjE1NDI5NjktMy4xMDY5MzM2LDEuMTU0Mjk2OSYjMTA7JiM5OyYjOTtzLTIuMzY0NzQ2MS0wLjQxMjEwOTQtMy4xMzQ3NjU2LTEuMTU0Mjk2OWMtMC43NzAwMTk1LTAuNzQzMTY0MS0xLjIzNzMwNDctMS42Nzc3MzQ0LTEuMjM3MzA0Ny0zLjI0NTExNzJ2LTExLjIxODc1JiMxMDsmIzk7JiM5O2MwLTEuNTY2NDA2MywwLjQ2NzI4NTItMi41MDE5NTMxLDEuMjM3MzA0Ny0zLjI0NDE0MDZzMS45MjQ4MDQ3LTEuMTU0Mjk2OSwzLjEzNDc2NTYtMS4xNTQyOTY5JiMxMDsmIzk7JiM5O3MyLjMzNjkxNDEsMC40MTIxMDk0LDMuMTA2OTMzNiwxLjE1NDI5NjlzMS4yMzczMDQ3LDEuNjc3NzM0NCwxLjIzNzMwNDcsMy4yNDQxNDA2djExLjIxODc1JiMxMDsmIzk7JiM5O0MyMzkuMTM0Mjc3MywyNDkuNzg0NTc2NCwyMzguNjY2OTkyMiwyNTAuNzE5MTQ2NywyMzcuODk2OTcyNywyNTEuNDYyMzEwOHogTTIzNi4yMTk3MjY2LDIzNi44ODkwNjg2JiMxMDsmIzk7JiM5O2MwLTEuMTI3OTI5Ny0wLjYzMjMyNDItMS42Nzc3MzQ0LTEuNDI5Njg3NS0xLjY3NzczNDRzLTEuNDU3NTE5NSwwLjU0OTgwNDctMS40NTc1MTk1LDEuNjc3NzM0NHYxMS40Mzg0NzY2JiMxMDsmIzk7JiM5O2MwLDEuMTI2OTUzMSwwLjY2MDE1NjMsMS42NzY3NTc4LDEuNDU3NTE5NSwxLjY3Njc1NzhzMS40Mjk2ODc1LTAuNTQ5ODA0NywxLjQyOTY4NzUtMS42NzY3NTc4VjIzNi44ODkwNjg2eiIvPiYjeGE7PC9nPiYjeGE7PGc+JiN4YTsJPHBhdGggZD0iTTM3MC45MDAzOTA2LDI0OS4zNDUxMjMzdjMuMDUxNzU3OGgtMi45MTQ1NTA4di0zLjA1MTc1NzhoLTUuNDQzODQ3N3YtMi42MTIzMDQ3bDUuMDMxNzM4My0xMy45MTMwODU5aDIuODMyMDMxMyYjMTA7JiM5OyYjOTtsLTQuODY2Njk5MiwxMy45MTMwODU5aDIuNDQ2Nzc3M3YtMy40OTIxODc1aDIuOTE0NTUwOHYzLjQ5MjE4NzVoMS4zNDc2NTYzdjIuNjEyMzA0N0gzNzAuOTAwMzkwNnoiLz4mI3hhOwk8cGF0aCBkPSJNMzgxLjU0Mjk2ODgsMjUxLjQ2MjMxMDhjLTAuNzcwMDE5NSwwLjc0MjE4NzUtMS44OTY5NzI3LDEuMTU0Mjk2OS0zLjEwNjkzMzYsMS4xNTQyOTY5JiMxMDsmIzk7JiM5O3MtMi4zNjQ3NDYxLTAuNDEyMTA5NC0zLjEzNDc2NTYtMS4xNTQyOTY5Yy0wLjc3MDAxOTUtMC43NDMxNjQxLTEuMjM3MzA0Ny0xLjY3NzczNDQtMS4yMzczMDQ3LTMuMjQ1MTE3MnYtMTEuMjE4NzUmIzEwOyYjOTsmIzk7YzAtMS41NjY0MDYzLDAuNDY3Mjg1Mi0yLjUwMTk1MzEsMS4yMzczMDQ3LTMuMjQ0MTQwNnMxLjkyNDgwNDctMS4xNTQyOTY5LDMuMTM0NzY1Ni0xLjE1NDI5NjkmIzEwOyYjOTsmIzk7czIuMzM2OTE0MSwwLjQxMjEwOTQsMy4xMDY5MzM2LDEuMTU0Mjk2OXMxLjIzNzMwNDcsMS42Nzc3MzQ0LDEuMjM3MzA0NywzLjI0NDE0MDZ2MTEuMjE4NzUmIzEwOyYjOTsmIzk7QzM4Mi43ODAyNzM0LDI0OS43ODQ1NzY0LDM4Mi4zMTI5ODgzLDI1MC43MTkxNDY3LDM4MS41NDI5Njg4LDI1MS40NjIzMTA4eiBNMzc5Ljg2NTcyMjcsMjM2Ljg4OTA2ODYmIzEwOyYjOTsmIzk7YzAtMS4xMjc5Mjk3LTAuNjMyMzI0Mi0xLjY3NzczNDQtMS40Mjk2ODc1LTEuNjc3NzM0NHMtMS40NTc1MTk1LDAuNTQ5ODA0Ny0xLjQ1NzUxOTUsMS42Nzc3MzQ0djExLjQzODQ3NjYmIzEwOyYjOTsmIzk7YzAsMS4xMjY5NTMxLDAuNjYwMTU2MywxLjY3Njc1NzgsMS40NTc1MTk1LDEuNjc2NzU3OHMxLjQyOTY4NzUtMC41NDk4MDQ3LDEuNDI5Njg3NS0xLjY3Njc1NzhWMjM2Ljg4OTA2ODZ6Ii8+JiN4YTsJPHBhdGggZD0iTTM5Mi41NzAzMTI1LDI1MS40NjIzMTA4Yy0wLjc3MDAxOTUsMC43NDIxODc1LTEuODk2OTcyNywxLjE1NDI5NjktMy4xMDY5MzM2LDEuMTU0Mjk2OSYjMTA7JiM5OyYjOTtzLTIuMzY0NzQ2MS0wLjQxMjEwOTQtMy4xMzQ3NjU2LTEuMTU0Mjk2OWMtMC43NzAwMTk1LTAuNzQzMTY0MS0xLjIzNzMwNDctMS42Nzc3MzQ0LTEuMjM3MzA0Ny0zLjI0NTExNzJ2LTExLjIxODc1JiMxMDsmIzk7JiM5O2MwLTEuNTY2NDA2MywwLjQ2NzI4NTItMi41MDE5NTMxLDEuMjM3MzA0Ny0zLjI0NDE0MDZzMS45MjQ4MDQ3LTEuMTU0Mjk2OSwzLjEzNDc2NTYtMS4xNTQyOTY5JiMxMDsmIzk7JiM5O3MyLjMzNjkxNDEsMC40MTIxMDk0LDMuMTA2OTMzNiwxLjE1NDI5NjlzMS4yMzczMDQ3LDEuNjc3NzM0NCwxLjIzNzMwNDcsMy4yNDQxNDA2djExLjIxODc1JiMxMDsmIzk7JiM5O0MzOTMuODA3NjE3MiwyNDkuNzg0NTc2NCwzOTMuMzQwMzMyLDI1MC43MTkxNDY3LDM5Mi41NzAzMTI1LDI1MS40NjIzMTA4eiBNMzkwLjg5MzA2NjQsMjM2Ljg4OTA2ODYmIzEwOyYjOTsmIzk7YzAtMS4xMjc5Mjk3LTAuNjMyMzI0Mi0xLjY3NzczNDQtMS40Mjk2ODc1LTEuNjc3NzM0NHMtMS40NTc1MTk1LDAuNTQ5ODA0Ny0xLjQ1NzUxOTUsMS42Nzc3MzQ0djExLjQzODQ3NjYmIzEwOyYjOTsmIzk7YzAsMS4xMjY5NTMxLDAuNjYwMTU2MywxLjY3Njc1NzgsMS40NTc1MTk1LDEuNjc2NzU3OHMxLjQyOTY4NzUtMC41NDk4MDQ3LDEuNDI5Njg3NS0xLjY3Njc1NzhWMjM2Ljg4OTA2ODZ6Ii8+JiN4YTsJPHBhdGggZD0iTTQwMy41OTc2NTYzLDI1MS40NjIzMTA4Yy0wLjc3MDAxOTUsMC43NDIxODc1LTEuODk2OTcyNywxLjE1NDI5NjktMy4xMDY5MzM2LDEuMTU0Mjk2OSYjMTA7JiM5OyYjOTtzLTIuMzY0NzQ2MS0wLjQxMjEwOTQtMy4xMzQ3NjU2LTEuMTU0Mjk2OWMtMC43NzAwMTk1LTAuNzQzMTY0MS0xLjIzNzMwNDctMS42Nzc3MzQ0LTEuMjM3MzA0Ny0zLjI0NTExNzJ2LTExLjIxODc1JiMxMDsmIzk7JiM5O2MwLTEuNTY2NDA2MywwLjQ2NzI4NTItMi41MDE5NTMxLDEuMjM3MzA0Ny0zLjI0NDE0MDZzMS45MjQ4MDQ3LTEuMTU0Mjk2OSwzLjEzNDc2NTYtMS4xNTQyOTY5JiMxMDsmIzk7JiM5O3MyLjMzNjkxNDEsMC40MTIxMDk0LDMuMTA2OTMzNiwxLjE1NDI5NjlzMS4yMzczMDQ3LDEuNjc3NzM0NCwxLjIzNzMwNDcsMy4yNDQxNDA2djExLjIxODc1JiMxMDsmIzk7JiM5O0M0MDQuODM0OTYwOSwyNDkuNzg0NTc2NCw0MDQuMzY3Njc1OCwyNTAuNzE5MTQ2Nyw0MDMuNTk3NjU2MywyNTEuNDYyMzEwOHogTTQwMS45MjA0MTAyLDIzNi44ODkwNjg2JiMxMDsmIzk7JiM5O2MwLTEuMTI3OTI5Ny0wLjYzMjMyNDItMS42Nzc3MzQ0LTEuNDI5Njg3NS0xLjY3NzczNDRzLTEuNDU3NTE5NSwwLjU0OTgwNDctMS40NTc1MTk1LDEuNjc3NzM0NHYxMS40Mzg0NzY2JiMxMDsmIzk7JiM5O2MwLDEuMTI2OTUzMSwwLjY2MDE1NjMsMS42NzY3NTc4LDEuNDU3NTE5NSwxLjY3Njc1NzhzMS40Mjk2ODc1LTAuNTQ5ODA0NywxLjQyOTY4NzUtMS42NzY3NTc4VjIzNi44ODkwNjg2eiIvPiYjeGE7PC9nPiYjeGE7PGc+JiN4YTsJPHBhdGggZD0iTTUzNi4yMTY3OTY5LDI1MS40NjIzMTA4Yy0wLjc0MjE4NzUsMC43NDIxODc1LTEuOTI0ODA0NywxLjE1NDI5NjktMy4xMDc0MjE5LDEuMTU0Mjk2OSYjMTA7JiM5OyYjOTtjLTEuMjA5OTYwOSwwLTIuMzY0MjU3OC0wLjQxMjEwOTQtMy4xMzQ3NjU2LTEuMTU0Mjk2OWMtMS4xNTQyOTY5LTEuMTU1MjczNC0xLjI5MTk5MjItMi40NDcyNjU2LTEuMjkxOTkyMi00LjU5MTc5NjkmIzEwOyYjOTsmIzk7YzAtMS42NTAzOTA2LDAuMTEwMzUxNi0yLjYxMjMwNDcsMC41NzcxNDg0LTMuNDY0ODQzOGMwLjI3NTM5MDYtMC40OTUxMTcyLDAuNjYwMTU2My0wLjg3OTg4MjgsMS4xNTUyNzM0LTEuMjM3MzA0NyYjMTA7JiM5OyYjOTtjLTAuNDY3NzczNC0wLjM1NzQyMTktMC44MjUxOTUzLTAuNzQyMTg3NS0xLjA3MjI2NTYtMS4yMDk5NjA5Yy0wLjQxMzA4NTktMC44NTI1MzkxLTAuNTIyNDYwOS0xLjczMjQyMTktMC41MjI0NjA5LTMuMDUxNzU3OCYjMTA7JiM5OyYjOTtjMC0xLjkyNDgwNDcsMC4yNzQ0MTQxLTMuMTg5NDUzMSwxLjI2NDY0ODQtNC4xNzk2ODc1YzAuNzY5NTMxMy0wLjc2OTUzMTMsMS44MTQ0NTMxLTEuMTI2OTUzMSwyLjk5NzA3MDMtMS4xMjY5NTMxJiMxMDsmIzk7JiM5O3MyLjI4MjIyNjYsMC4zNTc0MjE5LDMuMDI0NDE0MSwxLjEyNjk1MzFjMC45OTAyMzQ0LDAuOTkwMjM0NCwxLjI2NDY0ODQsMi4yNTQ4ODI4LDEuMjY0NjQ4NCw0LjE3OTY4NzUmIzEwOyYjOTsmIzk7YzAsMS4zMTkzMzU5LTAuMTA5Mzc1LDIuMTk5MjE4OC0wLjUyMjQ2MDksMy4wNTE3NTc4Yy0wLjI0NzA3MDMsMC40Njc3NzM0LTAuNjA0NDkyMiwwLjg1MjUzOTEtMS4wNzIyNjU2LDEuMjA5OTYwOSYjMTA7JiM5OyYjOTtjMC40OTUxMTcyLDAuMzU3NDIxOSwwLjg3OTg4MjgsMC43NDIxODc1LDEuMTU1MjczNCwxLjIzNzMwNDdjMC40Njc3NzM0LDAuODUyNTM5MSwwLjU3NzE0ODQsMS44MTQ0NTMxLDAuNTc3MTQ4NCwzLjQ2NDg0MzgmIzEwOyYjOTsmIzk7QzUzNy41MDg3ODkxLDI0OS4wMTUwNDUyLDUzNy4zNzEwOTM4LDI1MC4zMDcwMzc0LDUzNi4yMTY3OTY5LDI1MS40NjIzMTA4eiBNNTM0LjE1NDI5NjksMjQzLjg0NTEyMzMmIzEwOyYjOTsmIzk7Yy0wLjI0NzA3MDMtMC4zMDE3NTc4LTAuNjMxODM1OS0wLjQ2Njc5NjktMS4wNDQ5MjE5LTAuNDY2Nzk2OWMtMC40MTIxMDk0LDAtMC44MjUxOTUzLDAuMTY1MDM5MS0xLjA3MjI2NTYsMC40NjY3OTY5JiMxMDsmIzk7JiM5O2MtMC4zODQ3NjU2LDAuNDk1MTE3Mi0wLjQzOTQ1MzEsMS4yMzczMDQ3LTAuNDM5NDUzMSwyLjg2MDM1MTZjMCwxLjUzOTA2MjUsMC4wNTQ2ODc1LDIuMzM2OTE0MSwwLjQzOTQ1MzEsMi44MzIwMzEzJiMxMDsmIzk7JiM5O2MwLjI0NzA3MDMsMC4zMDE3NTc4LDAuNjYwMTU2MywwLjQ2Njc5NjksMS4wNzIyNjU2LDAuNDY2Nzk2OWMwLjQxMzA4NTksMCwwLjc5Nzg1MTYtMC4xNjUwMzkxLDEuMDQ0OTIxOS0wLjQ2Njc5NjkmIzEwOyYjOTsmIzk7YzAuMzg0NzY1Ni0wLjQ5NTExNzIsMC40NDA0Mjk3LTEuMjkyOTY4OCwwLjQ0MDQyOTctMi44MzIwMzEzJiMxMDsmIzk7JiM5O0M1MzQuNTk0NzI2NiwyNDUuMDgyNDI4LDUzNC41MzkwNjI1LDI0NC4zNDAyNDA1LDUzNC4xNTQyOTY5LDI0My44NDUxMjMzeiBNNTMzLjk4OTI1NzgsMjM1LjU0MTQxMjQmIzEwOyYjOTsmIzk7Yy0wLjIxOTcyNjYtMC4yMTk3MjY2LTAuNTIyNDYwOS0wLjMzMDA3ODEtMC44Nzk4ODI4LTAuMzMwMDc4MXMtMC42ODc1LDAuMTEwMzUxNi0wLjkwNzIyNjYsMC4zMzAwNzgxJiMxMDsmIzk7JiM5O2MtMC4zMzAwNzgxLDAuMzU3NDIxOS0wLjQ2Nzc3MzQsMC44NTI1MzkxLTAuNDY3NzczNCwyLjUzMDI3MzRjMCwxLjY3Njc1NzgsMC4xNjUwMzkxLDIuMTcxODc1LDAuNDk1MTE3MiwyLjUyOTI5NjkmIzEwOyYjOTsmIzk7YzAuMjE5NzI2NiwwLjIxOTcyNjYsMC41MjI0NjA5LDAuMzMwMDc4MSwwLjg3OTg4MjgsMC4zMzAwNzgxczAuNjYwMTU2My0wLjExMDM1MTYsMC44Nzk4ODI4LTAuMzMwMDc4MSYjMTA7JiM5OyYjOTtjMC4zMzAwNzgxLTAuMzU3NDIxOSwwLjQ2Nzc3MzQtMC44NTI1MzkxLDAuNDY3NzczNC0yLjUyOTI5NjkmIzEwOyYjOTsmIzk7QzUzNC40NTcwMzEzLDIzNi4zOTM5NTE0LDUzNC4zMTkzMzU5LDIzNS44OTg4MzQyLDUzMy45ODkyNTc4LDIzNS41NDE0MTI0eiIvPiYjeGE7CTxwYXRoIGQ9Ik01NDcuMjQ0MTQwNiwyNTEuNDYyMzEwOGMtMC43NzA1MDc4LDAuNzQyMTg3NS0xLjg5NzQ2MDksMS4xNTQyOTY5LTMuMTA3NDIxOSwxLjE1NDI5NjkmIzEwOyYjOTsmIzk7cy0yLjM2NDI1NzgtMC40MTIxMDk0LTMuMTM0NzY1Ni0xLjE1NDI5NjljLTAuNzY5NTMxMy0wLjc0MzE2NDEtMS4yMzczMDQ3LTEuNjc3NzM0NC0xLjIzNzMwNDctMy4yNDUxMTcydi0xMS4yMTg3NSYjMTA7JiM5OyYjOTtjMC0xLjU2NjQwNjMsMC40Njc3NzM0LTIuNTAxOTUzMSwxLjIzNzMwNDctMy4yNDQxNDA2YzAuNzcwNTA3OC0wLjc0MjE4NzUsMS45MjQ4MDQ3LTEuMTU0Mjk2OSwzLjEzNDc2NTYtMS4xNTQyOTY5JiMxMDsmIzk7JiM5O3MyLjMzNjkxNDEsMC40MTIxMDk0LDMuMTA3NDIxOSwxLjE1NDI5NjljMC43Njk1MzEzLDAuNzQyMTg3NSwxLjIzNzMwNDcsMS42Nzc3MzQ0LDEuMjM3MzA0NywzLjI0NDE0MDZ2MTEuMjE4NzUmIzEwOyYjOTsmIzk7QzU0OC40ODE0NDUzLDI0OS43ODQ1NzY0LDU0OC4wMTM2NzE5LDI1MC43MTkxNDY3LDU0Ny4yNDQxNDA2LDI1MS40NjIzMTA4eiBNNTQ1LjU2NjQwNjMsMjM2Ljg4OTA2ODYmIzEwOyYjOTsmIzk7YzAtMS4xMjc5Mjk3LTAuNjMxODM1OS0xLjY3NzczNDQtMS40Mjk2ODc1LTEuNjc3NzM0NGMtMC43OTY4NzUsMC0xLjQ1NzAzMTMsMC41NDk4MDQ3LTEuNDU3MDMxMywxLjY3NzczNDR2MTEuNDM4NDc2NiYjMTA7JiM5OyYjOTtjMCwxLjEyNjk1MzEsMC42NjAxNTYzLDEuNjc2NzU3OCwxLjQ1NzAzMTMsMS42NzY3NTc4YzAuNzk3ODUxNiwwLDEuNDI5Njg3NS0wLjU0OTgwNDcsMS40Mjk2ODc1LTEuNjc2NzU3OFYyMzYuODg5MDY4NnoiLz4mI3hhOwk8cGF0aCBkPSJNNTU4LjI3MTQ4NDQsMjUxLjQ2MjMxMDhjLTAuNzcwNTA3OCwwLjc0MjE4NzUtMS44OTc0NjA5LDEuMTU0Mjk2OS0zLjEwNzQyMTksMS4xNTQyOTY5JiMxMDsmIzk7JiM5O3MtMi4zNjQyNTc4LTAuNDEyMTA5NC0zLjEzNDc2NTYtMS4xNTQyOTY5Yy0wLjc2OTUzMTMtMC43NDMxNjQxLTEuMjM3MzA0Ny0xLjY3NzczNDQtMS4yMzczMDQ3LTMuMjQ1MTE3MnYtMTEuMjE4NzUmIzEwOyYjOTsmIzk7YzAtMS41NjY0MDYzLDAuNDY3NzczNC0yLjUwMTk1MzEsMS4yMzczMDQ3LTMuMjQ0MTQwNmMwLjc3MDUwNzgtMC43NDIxODc1LDEuOTI0ODA0Ny0xLjE1NDI5NjksMy4xMzQ3NjU2LTEuMTU0Mjk2OSYjMTA7JiM5OyYjOTtzMi4zMzY5MTQxLDAuNDEyMTA5NCwzLjEwNzQyMTksMS4xNTQyOTY5YzAuNzY5NTMxMywwLjc0MjE4NzUsMS4yMzczMDQ3LDEuNjc3NzM0NCwxLjIzNzMwNDcsMy4yNDQxNDA2djExLjIxODc1JiMxMDsmIzk7JiM5O0M1NTkuNTA4Nzg5MSwyNDkuNzg0NTc2NCw1NTkuMDQxMDE1NiwyNTAuNzE5MTQ2Nyw1NTguMjcxNDg0NCwyNTEuNDYyMzEwOHogTTU1Ni41OTM3NSwyMzYuODg5MDY4NiYjMTA7JiM5OyYjOTtjMC0xLjEyNzkyOTctMC42MzE4MzU5LTEuNjc3NzM0NC0xLjQyOTY4NzUtMS42Nzc3MzQ0Yy0wLjc5Njg3NSwwLTEuNDU3MDMxMywwLjU0OTgwNDctMS40NTcwMzEzLDEuNjc3NzM0NHYxMS40Mzg0NzY2JiMxMDsmIzk7JiM5O2MwLDEuMTI2OTUzMSwwLjY2MDE1NjMsMS42NzY3NTc4LDEuNDU3MDMxMywxLjY3Njc1NzhjMC43OTc4NTE2LDAsMS40Mjk2ODc1LTAuNTQ5ODA0NywxLjQyOTY4NzUtMS42NzY3NTc4VjIzNi44ODkwNjg2eiIvPiYjeGE7CTxwYXRoIGQ9Ik01NjkuMjk4ODI4MSwyNTEuNDYyMzEwOGMtMC43NzA1MDc4LDAuNzQyMTg3NS0xLjg5NzQ2MDksMS4xNTQyOTY5LTMuMTA3NDIxOSwxLjE1NDI5NjkmIzEwOyYjOTsmIzk7cy0yLjM2NDI1NzgtMC40MTIxMDk0LTMuMTM0NzY1Ni0xLjE1NDI5NjljLTAuNzY5NTMxMy0wLjc0MzE2NDEtMS4yMzczMDQ3LTEuNjc3NzM0NC0xLjIzNzMwNDctMy4yNDUxMTcydi0xMS4yMTg3NSYjMTA7JiM5OyYjOTtjMC0xLjU2NjQwNjMsMC40Njc3NzM0LTIuNTAxOTUzMSwxLjIzNzMwNDctMy4yNDQxNDA2YzAuNzcwNTA3OC0wLjc0MjE4NzUsMS45MjQ4MDQ3LTEuMTU0Mjk2OSwzLjEzNDc2NTYtMS4xNTQyOTY5JiMxMDsmIzk7JiM5O3MyLjMzNjkxNDEsMC40MTIxMDk0LDMuMTA3NDIxOSwxLjE1NDI5NjljMC43Njk1MzEzLDAuNzQyMTg3NSwxLjIzNzMwNDcsMS42Nzc3MzQ0LDEuMjM3MzA0NywzLjI0NDE0MDZ2MTEuMjE4NzUmIzEwOyYjOTsmIzk7QzU3MC41MzYxMzI4LDI0OS43ODQ1NzY0LDU3MC4wNjgzNTk0LDI1MC43MTkxNDY3LDU2OS4yOTg4MjgxLDI1MS40NjIzMTA4eiBNNTY3LjYyMTA5MzgsMjM2Ljg4OTA2ODYmIzEwOyYjOTsmIzk7YzAtMS4xMjc5Mjk3LTAuNjMxODM1OS0xLjY3NzczNDQtMS40Mjk2ODc1LTEuNjc3NzM0NGMtMC43OTY4NzUsMC0xLjQ1NzAzMTMsMC41NDk4MDQ3LTEuNDU3MDMxMywxLjY3NzczNDR2MTEuNDM4NDc2NiYjMTA7JiM5OyYjOTtjMCwxLjEyNjk1MzEsMC42NjAxNTYzLDEuNjc2NzU3OCwxLjQ1NzAzMTMsMS42NzY3NTc4YzAuNzk3ODUxNiwwLDEuNDI5Njg3NS0wLjU0OTgwNDcsMS40Mjk2ODc1LTEuNjc2NzU3OFYyMzYuODg5MDY4NnoiLz4mI3hhOzwvZz4mI3hhOzxnPiYjeGE7CTxwYXRoIGQ9Ik02OTIuNjM2NzE4OCwyNTIuMzk2ODgxMXYtMTYuMTY3OTY4OGwtMi45NDE0MDYzLDIuMjU0ODgyOHYtMy4yOTk4MDQ3bDIuOTQxNDA2My0yLjM2NDI1NzhoMi45MTQwNjI1djE5LjU3NzE0ODQmIzEwOyYjOTsmIzk7SDY5Mi42MzY3MTg4eiIvPiYjeGE7CTxwYXRoIGQ9Ik03MDcuNzg4MDg1OSwyNTEuMDQ5MjI0OWMtMC43NzA1MDc4LDEuMTAwNTg1OS0yLjA4OTg0MzgsMS41NjczODI4LTMuNDkyMTg3NSwxLjU2NzM4MjgmIzEwOyYjOTsmIzk7Yy0xLjU2NzM4MjgsMC0yLjc0OTAyMzQtMC41NzcxNDg0LTMuNDM2NTIzNC0xLjU2NzM4MjhjLTAuNzQyMTg3NS0xLjA5OTYwOTQtMC45NjI4OTA2LTIuMjI2NTYyNS0wLjk2Mjg5MDYtNC41OTE3OTY5JiMxMDsmIzk7JiM5O2MwLTEuNzU5NzY1NiwwLjMwMjczNDQtMy4zNTQ0OTIyLDAuNzk3ODUxNi00LjYxOTE0MDZsMy40MzY1MjM0LTkuMDE4NTU0N2gzLjAyNTM5MDZsLTMuMjE3NzczNCw3LjkxODk0NTMmIzEwOyYjOTsmIzk7YzAuMzMwMDc4MS0wLjI0ODA0NjksMC43OTc4NTE2LTAuMzMwMDc4MSwxLjIwOTk2MDktMC4zMzAwNzgxYzEuMDE3NTc4MSwwLDEuOTUyMTQ4NCwwLjM4NDc2NTYsMi41ODQ5NjA5LDEuMjA5OTYwOSYjMTA7JiM5OyYjOTtjMC43MTQ4NDM4LDAuOTA3MjI2NiwwLjk4OTI1NzgsMS45NTIxNDg0LDAuOTg5MjU3OCw0LjgzODg2NzImIzEwOyYjOTsmIzk7QzcwOC43MjI2NTYzLDI0OS4wNjk3MzI3LDcwOC40MTk5MjE5LDI1MC4xNDE5OTgzLDcwNy43ODgwODU5LDI1MS4wNDkyMjQ5eiBNNzA1LjM2OTE0MDYsMjQzLjI5NTMxODYmIzEwOyYjOTsmIzk7Yy0wLjI0ODA0NjktMC4zMzAwNzgxLTAuNjMyODEyNS0wLjQ5NTExNzItMS4wNDQ5MjE5LTAuNDk1MTE3MmMtMC40MTMwODU5LDAtMC44MjYxNzE5LDAuMTY1MDM5MS0xLjA3MjI2NTYsMC40OTUxMTcyJiMxMDsmIzk7JiM5O2MtMC40MTMwODU5LDAuNTIyNDYwOS0wLjQ0MDQyOTcsMS41NjczODI4LTAuNDQwNDI5NywzLjEwNzQyMTlzMC4wMjczNDM4LDIuNTg0OTYwOSwwLjQ0MDQyOTcsMy4xMDc0MjE5JiMxMDsmIzk7JiM5O2MwLjI0NjA5MzgsMC4zMjkxMDE2LDAuNjU5MTc5NywwLjQ5NDE0MDYsMS4wNzIyNjU2LDAuNDk0MTQwNmMwLjQxMjEwOTQsMCwwLjc5Njg3NS0wLjE2NTAzOTEsMS4wNDQ5MjE5LTAuNDk0MTQwNiYjMTA7JiM5OyYjOTtjMC40MTIxMDk0LTAuNTIyNDYwOSwwLjQzOTQ1MzEtMS41NjczODI4LDAuNDM5NDUzMS0zLjEwNzQyMTlTNzA1Ljc4MTI1LDI0My44MTc3Nzk1LDcwNS4zNjkxNDA2LDI0My4yOTUzMTg2eiIvPiYjeGE7CTxwYXRoIGQ9Ik03MTguNDU4MDA3OCwyNTEuNDYyMzEwOGMtMC43NzA1MDc4LDAuNzQyMTg3NS0xLjg5NzQ2MDksMS4xNTQyOTY5LTMuMTA2NDQ1MywxLjE1NDI5NjkmIzEwOyYjOTsmIzk7Yy0xLjIxMDkzNzUsMC0yLjM2NTIzNDQtMC40MTIxMDk0LTMuMTM0NzY1Ni0xLjE1NDI5NjljLTAuNzcwNTA3OC0wLjc0MzE2NDEtMS4yMzgyODEzLTEuNjc3NzM0NC0xLjIzODI4MTMtMy4yNDUxMTcydi0xMS4yMTg3NSYjMTA7JiM5OyYjOTtjMC0xLjU2NjQwNjMsMC40Njc3NzM0LTIuNTAxOTUzMSwxLjIzODI4MTMtMy4yNDQxNDA2YzAuNzY5NTMxMy0wLjc0MjE4NzUsMS45MjM4MjgxLTEuMTU0Mjk2OSwzLjEzNDc2NTYtMS4xNTQyOTY5JiMxMDsmIzk7JiM5O2MxLjIwODk4NDQsMCwyLjMzNTkzNzUsMC40MTIxMDk0LDMuMTA2NDQ1MywxLjE1NDI5NjlzMS4yMzczMDQ3LDEuNjc3NzM0NCwxLjIzNzMwNDcsMy4yNDQxNDA2djExLjIxODc1JiMxMDsmIzk7JiM5O0M3MTkuNjk1MzEyNSwyNDkuNzg0NTc2NCw3MTkuMjI4NTE1NiwyNTAuNzE5MTQ2Nyw3MTguNDU4MDA3OCwyNTEuNDYyMzEwOHogTTcxNi43ODEyNSwyMzYuODg5MDY4NiYjMTA7JiM5OyYjOTtjMC0xLjEyNzkyOTctMC42MzI4MTI1LTEuNjc3NzM0NC0xLjQyOTY4NzUtMS42Nzc3MzQ0Yy0wLjc5Nzg1MTYsMC0xLjQ1ODAwNzgsMC41NDk4MDQ3LTEuNDU4MDA3OCwxLjY3NzczNDR2MTEuNDM4NDc2NiYjMTA7JiM5OyYjOTtjMCwxLjEyNjk1MzEsMC42NjAxNTYzLDEuNjc2NzU3OCwxLjQ1ODAwNzgsMS42NzY3NTc4YzAuNzk2ODc1LDAsMS40Mjk2ODc1LTAuNTQ5ODA0NywxLjQyOTY4NzUtMS42NzY3NTc4VjIzNi44ODkwNjg2eiIvPiYjeGE7CTxwYXRoIGQ9Ik03MjkuNDg1MzUxNiwyNTEuNDYyMzEwOGMtMC43NzA1MDc4LDAuNzQyMTg3NS0xLjg5NzQ2MDksMS4xNTQyOTY5LTMuMTA2NDQ1MywxLjE1NDI5NjkmIzEwOyYjOTsmIzk7Yy0xLjIxMDkzNzUsMC0yLjM2NTIzNDQtMC40MTIxMDk0LTMuMTM0NzY1Ni0xLjE1NDI5NjljLTAuNzcwNTA3OC0wLjc0MzE2NDEtMS4yMzgyODEzLTEuNjc3NzM0NC0xLjIzODI4MTMtMy4yNDUxMTcydi0xMS4yMTg3NSYjMTA7JiM5OyYjOTtjMC0xLjU2NjQwNjMsMC40Njc3NzM0LTIuNTAxOTUzMSwxLjIzODI4MTMtMy4yNDQxNDA2YzAuNzY5NTMxMy0wLjc0MjE4NzUsMS45MjM4MjgxLTEuMTU0Mjk2OSwzLjEzNDc2NTYtMS4xNTQyOTY5JiMxMDsmIzk7JiM5O2MxLjIwODk4NDQsMCwyLjMzNTkzNzUsMC40MTIxMDk0LDMuMTA2NDQ1MywxLjE1NDI5NjlzMS4yMzczMDQ3LDEuNjc3NzM0NCwxLjIzNzMwNDcsMy4yNDQxNDA2djExLjIxODc1JiMxMDsmIzk7JiM5O0M3MzAuNzIyNjU2MywyNDkuNzg0NTc2NCw3MzAuMjU1ODU5NCwyNTAuNzE5MTQ2Nyw3MjkuNDg1MzUxNiwyNTEuNDYyMzEwOHogTTcyNy44MDg1OTM4LDIzNi44ODkwNjg2JiMxMDsmIzk7JiM5O2MwLTEuMTI3OTI5Ny0wLjYzMjgxMjUtMS42Nzc3MzQ0LTEuNDI5Njg3NS0xLjY3NzczNDRjLTAuNzk3ODUxNiwwLTEuNDU4MDA3OCwwLjU0OTgwNDctMS40NTgwMDc4LDEuNjc3NzM0NHYxMS40Mzg0NzY2JiMxMDsmIzk7JiM5O2MwLDEuMTI2OTUzMSwwLjY2MDE1NjMsMS42NzY3NTc4LDEuNDU4MDA3OCwxLjY3Njc1NzhjMC43OTY4NzUsMCwxLjQyOTY4NzUtMC41NDk4MDQ3LDEuNDI5Njg3NS0xLjY3Njc1NzhWMjM2Ljg4OTA2ODZ6Ii8+JiN4YTsJPHBhdGggZD0iTTc0MC41MTI2OTUzLDI1MS40NjIzMTA4Yy0wLjc3MDUwNzgsMC43NDIxODc1LTEuODk3NDYwOSwxLjE1NDI5NjktMy4xMDY0NDUzLDEuMTU0Mjk2OSYjMTA7JiM5OyYjOTtjLTEuMjEwOTM3NSwwLTIuMzY1MjM0NC0wLjQxMjEwOTQtMy4xMzQ3NjU2LTEuMTU0Mjk2OWMtMC43NzA1MDc4LTAuNzQzMTY0MS0xLjIzODI4MTMtMS42Nzc3MzQ0LTEuMjM4MjgxMy0zLjI0NTExNzJ2LTExLjIxODc1JiMxMDsmIzk7JiM5O2MwLTEuNTY2NDA2MywwLjQ2Nzc3MzQtMi41MDE5NTMxLDEuMjM4MjgxMy0zLjI0NDE0MDZjMC43Njk1MzEzLTAuNzQyMTg3NSwxLjkyMzgyODEtMS4xNTQyOTY5LDMuMTM0NzY1Ni0xLjE1NDI5NjkmIzEwOyYjOTsmIzk7YzEuMjA4OTg0NCwwLDIuMzM1OTM3NSwwLjQxMjEwOTQsMy4xMDY0NDUzLDEuMTU0Mjk2OVM3NDEuNzUsMjM1LjQzMjAzNzQsNzQxLjc1LDIzNi45OTg0NDM2djExLjIxODc1JiMxMDsmIzk7JiM5O0M3NDEuNzUsMjQ5Ljc4NDU3NjQsNzQxLjI4MzIwMzEsMjUwLjcxOTE0NjcsNzQwLjUxMjY5NTMsMjUxLjQ2MjMxMDh6IE03MzguODM1OTM3NSwyMzYuODg5MDY4NiYjMTA7JiM5OyYjOTtjMC0xLjEyNzkyOTctMC42MzI4MTI1LTEuNjc3NzM0NC0xLjQyOTY4NzUtMS42Nzc3MzQ0Yy0wLjc5Nzg1MTYsMC0xLjQ1ODAwNzgsMC41NDk4MDQ3LTEuNDU4MDA3OCwxLjY3NzczNDR2MTEuNDM4NDc2NiYjMTA7JiM5OyYjOTtjMCwxLjEyNjk1MzEsMC42NjAxNTYzLDEuNjc2NzU3OCwxLjQ1ODAwNzgsMS42NzY3NTc4YzAuNzk2ODc1LDAsMS40Mjk2ODc1LTAuNTQ5ODA0NywxLjQyOTY4NzUtMS42NzY3NTc4VjIzNi44ODkwNjg2eiIvPiYjeGE7PC9nPiYjeGE7PGc+JiN4YTsJPHBhdGggZD0iTTg2Mi4xMDQ0OTIyLDI1MS40ODk2NTQ1Yy0wLjc3MDUwNzgsMC43MTQ4NDM4LTEuOTUyMTQ4NCwxLjEyNjk1MzEtMy4xMzQ3NjU2LDEuMTI2OTUzMSYjMTA7JiM5OyYjOTtzLTIuMzkyNTc4MS0wLjM4NDc2NTYtMy4xNjIxMDk0LTEuMTU0Mjk2OWMtMC43Njk1MzEzLTAuNzQzMTY0MS0xLjIwOTk2MDktMS42NTAzOTA2LTEuMjA5OTYwOS0zLjI0NTExNzJ2LTEuMTU0Mjk2OWgyLjkxNTAzOTEmIzEwOyYjOTsmIzk7djEuMjY0NjQ4NGMwLDEuMTI2OTUzMSwwLjYzMTgzNTksMS42NzY3NTc4LDEuNDU3MDMxMywxLjY3Njc1NzhjMC4zODQ3NjU2LDAsMC43NDIxODc1LTAuMTA5Mzc1LDEuMDE3NTc4MS0wLjQ2Njc5NjkmIzEwOyYjOTsmIzk7YzAuMzMwMDc4MS0wLjM4NDc2NTYsMC40OTUxMTcyLTEuMDQ0OTIxOSwwLjQ5NTExNzItMi43MjI2NTYzYzAtMi4wODk4NDM4LTAuMTEwMzUxNi0yLjYzOTY0ODQtMC40NDA0Mjk3LTMuMDUxNzU3OCYjMTA7JiM5OyYjOTtjLTAuMjE5NzI2Ni0wLjMwMjczNDQtMC42MDQ0OTIyLTAuNDk1MTE3Mi0xLjA5OTYwOTQtMC40OTUxMTcyaC0wLjk2Mjg5MDZ2LTIuNDQ3MjY1NmgwLjk2Mjg5MDYmIzEwOyYjOTsmIzk7YzAuNDEyMTA5NCwwLDAuNzQyMTg3NS0wLjE2NTAzOTEsMC45MzQ1NzAzLTAuMzg0NzY1NmMwLjM4NDc2NTYtMC40Njc3NzM0LDAuNDQwNDI5Ny0xLjA0NDkyMTksMC40NDA0Mjk3LTIuNDc0NjA5NCYjMTA7JiM5OyYjOTtjMC0xLjM3NS0wLjA4MzAwNzgtMS45MjQ4MDQ3LTAuMzg1NzQyMi0yLjMwOTU3MDNjLTAuMjE5NzI2Ni0wLjI3NTM5MDYtMC41MjI0NjA5LTAuNDQwNDI5Ny0wLjk2MTkxNDEtMC40NDA0Mjk3JiMxMDsmIzk7JiM5O2MtMC43Njk1MzEzLDAtMS4zMjAzMTI1LDAuNTIyNDYwOS0xLjMyMDMxMjUsMS41NjczODI4djEuMzc1aC0yLjkxNDA2MjV2LTEuMTgyNjE3MiYjMTA7JiM5OyYjOTtjMC0xLjUxMTcxODgsMC40Mzk0NTMxLTIuNDc0NjA5NCwxLjIwOTk2MDktMy4yNDQxNDA2YzAuNzY5NTMxMy0wLjc2OTUzMTMsMS44NDE3OTY5LTEuMTI2OTUzMSwzLjAyNDQxNDEtMS4xMjY5NTMxJiMxMDsmIzk7JiM5O2MxLjI5MTk5MjIsMCwyLjMwOTU3MDMsMC40MTIxMDk0LDIuOTk3MDcwMywxLjA5OTYwOTRjMC44Nzk4ODI4LDAuODUyNTM5MSwxLjI2NDY0ODQsMi4xNDQ1MzEzLDEuMjY0NjQ4NCw0LjA2OTMzNTkmIzEwOyYjOTsmIzk7YzAsMS4zNDc2NTYzLTAuMDU0Njg3NSwyLjI1NDg4MjgtMC40OTUxMTcyLDMuMTA3NDIxOWMtMC4yNDcwNzAzLDAuNDY2Nzk2OS0wLjYwNDQ5MjIsMC44Nzk4ODI4LTEuMDcyMjY1NiwxLjE1NDI5NjkmIzEwOyYjOTsmIzk7YzAuNDk1MTE3MiwwLjM1NzQyMTksMC44Nzk4ODI4LDAuNzE0ODQzOCwxLjEyNzkyOTcsMS4xODI2MTcyYzAuNTQ5ODA0NywwLjkzNDU3MDMsMC42MDQ0OTIyLDEuOTI0ODA0NywwLjYwNDQ5MjIsMy42MDE1NjI1JiMxMDsmIzk7JiM5O0M4NjMuMzk2NDg0NCwyNDkuMTUyNzQwNSw4NjMuMjU4Nzg5MSwyNTAuMzYxNzI0OSw4NjIuMTA0NDkyMiwyNTEuNDg5NjU0NXoiLz4mI3hhOwk8cGF0aCBkPSJNODY1Ljc5MDAzOTEsMjUyLjM5Njg4MTF2LTIuNDc0NjA5NGw0Ljg5MzU1NDctOS41MTM2NzE5YzAuNDQwNDI5Ny0wLjgyNTE5NTMsMC43OTc4NTE2LTIuMDYyNSwwLjc5Nzg1MTYtMy40OTIxODc1JiMxMDsmIzk7JiM5O2MwLTEuMTI2OTUzMS0wLjYwNTQ2ODgtMS43MDUwNzgxLTEuNDAyMzQzOC0xLjcwNTA3ODFjLTAuNzk3ODUxNiwwLTEuNDU3MDMxMywwLjU0OTgwNDctMS40NTcwMzEzLDEuNjc3NzM0NHYxLjI2NDY0ODRoLTIuOTE1MDM5MSYjMTA7JiM5OyYjOTt2LTEuMTU1MjczNGMwLTEuNTY2NDA2MywwLjQ0MDQyOTctMi41MDE5NTMxLDEuMjA5OTYwOS0zLjI0NDE0MDZzMS45Nzk0OTIyLTEuMTU0Mjk2OSwzLjE2MjEwOTQtMS4xNTQyOTY5JiMxMDsmIzk7JiM5O3MyLjIyNzUzOTEsMC4zMDE3NTc4LDMuMDI0NDE0MSwxLjA0Mzk0NTNjMC43NzA1MDc4LDAuNzE1ODIwMywxLjI5MTk5MjIsMS44MTU0Mjk3LDEuMjkxOTkyMiwzLjM4MjgxMjUmIzEwOyYjOTsmIzk7YzAsMS40Mjk2ODc1LTAuNDM5NDUzMSwzLjA3OTEwMTYtMS4wNzIyNjU2LDQuMjg5MDYyNWwtNC40MjY3NTc4LDguNDY4NzVoNS40OTkwMjM0djIuNjEyMzA0N0g4NjUuNzkwMDM5MXoiLz4mI3hhOwk8cGF0aCBkPSJNODg0LjE1ODIwMzEsMjUxLjQ2MjMxMDhjLTAuNzY5NTMxMywwLjc0MjE4NzUtMS44OTY0ODQ0LDEuMTU0Mjk2OS0zLjEwNjQ0NTMsMS4xNTQyOTY5JiMxMDsmIzk7JiM5O3MtMi4zNjUyMzQ0LTAuNDEyMTA5NC0zLjEzNDc2NTYtMS4xNTQyOTY5Yy0wLjc3MDUwNzgtMC43NDMxNjQxLTEuMjM3MzA0Ny0xLjY3NzczNDQtMS4yMzczMDQ3LTMuMjQ1MTE3MnYtMTEuMjE4NzUmIzEwOyYjOTsmIzk7YzAtMS41NjY0MDYzLDAuNDY2Nzk2OS0yLjUwMTk1MzEsMS4yMzczMDQ3LTMuMjQ0MTQwNmMwLjc2OTUzMTMtMC43NDIxODc1LDEuOTI0ODA0Ny0xLjE1NDI5NjksMy4xMzQ3NjU2LTEuMTU0Mjk2OSYjMTA7JiM5OyYjOTtzMi4zMzY5MTQxLDAuNDEyMTA5NCwzLjEwNjQ0NTMsMS4xNTQyOTY5YzAuNzcwNTA3OCwwLjc0MjE4NzUsMS4yMzczMDQ3LDEuNjc3NzM0NCwxLjIzNzMwNDcsMy4yNDQxNDA2djExLjIxODc1JiMxMDsmIzk7JiM5O0M4ODUuMzk1NTA3OCwyNDkuNzg0NTc2NCw4ODQuOTI4NzEwOSwyNTAuNzE5MTQ2Nyw4ODQuMTU4MjAzMSwyNTEuNDYyMzEwOHogTTg4Mi40ODE0NDUzLDIzNi44ODkwNjg2JiMxMDsmIzk7JiM5O2MwLTEuMTI3OTI5Ny0wLjYzMjgxMjUtMS42Nzc3MzQ0LTEuNDI5Njg3NS0xLjY3NzczNDRjLTAuNzk3ODUxNiwwLTEuNDU4MDA3OCwwLjU0OTgwNDctMS40NTgwMDc4LDEuNjc3NzM0NHYxMS40Mzg0NzY2JiMxMDsmIzk7JiM5O2MwLDEuMTI2OTUzMSwwLjY2MDE1NjMsMS42NzY3NTc4LDEuNDU4MDA3OCwxLjY3Njc1NzhjMC43OTY4NzUsMCwxLjQyOTY4NzUtMC41NDk4MDQ3LDEuNDI5Njg3NS0xLjY3Njc1NzhWMjM2Ljg4OTA2ODZ6Ii8+JiN4YTsJPHBhdGggZD0iTTg5NS4xODU1NDY5LDI1MS40NjIzMTA4Yy0wLjc2OTUzMTMsMC43NDIxODc1LTEuODk2NDg0NCwxLjE1NDI5NjktMy4xMDY0NDUzLDEuMTU0Mjk2OSYjMTA7JiM5OyYjOTtzLTIuMzY1MjM0NC0wLjQxMjEwOTQtMy4xMzQ3NjU2LTEuMTU0Mjk2OWMtMC43NzA1MDc4LTAuNzQzMTY0MS0xLjIzNzMwNDctMS42Nzc3MzQ0LTEuMjM3MzA0Ny0zLjI0NTExNzJ2LTExLjIxODc1JiMxMDsmIzk7JiM5O2MwLTEuNTY2NDA2MywwLjQ2Njc5NjktMi41MDE5NTMxLDEuMjM3MzA0Ny0zLjI0NDE0MDZjMC43Njk1MzEzLTAuNzQyMTg3NSwxLjkyNDgwNDctMS4xNTQyOTY5LDMuMTM0NzY1Ni0xLjE1NDI5NjkmIzEwOyYjOTsmIzk7czIuMzM2OTE0MSwwLjQxMjEwOTQsMy4xMDY0NDUzLDEuMTU0Mjk2OWMwLjc3MDUwNzgsMC43NDIxODc1LDEuMjM3MzA0NywxLjY3NzczNDQsMS4yMzczMDQ3LDMuMjQ0MTQwNnYxMS4yMTg3NSYjMTA7JiM5OyYjOTtDODk2LjQyMjg1MTYsMjQ5Ljc4NDU3NjQsODk1Ljk1NjA1NDcsMjUwLjcxOTE0NjcsODk1LjE4NTU0NjksMjUxLjQ2MjMxMDh6IE04OTMuNTA4Nzg5MSwyMzYuODg5MDY4NiYjMTA7JiM5OyYjOTtjMC0xLjEyNzkyOTctMC42MzI4MTI1LTEuNjc3NzM0NC0xLjQyOTY4NzUtMS42Nzc3MzQ0Yy0wLjc5Nzg1MTYsMC0xLjQ1ODAwNzgsMC41NDk4MDQ3LTEuNDU4MDA3OCwxLjY3NzczNDR2MTEuNDM4NDc2NiYjMTA7JiM5OyYjOTtjMCwxLjEyNjk1MzEsMC42NjAxNTYzLDEuNjc2NzU3OCwxLjQ1ODAwNzgsMS42NzY3NTc4YzAuNzk2ODc1LDAsMS40Mjk2ODc1LTAuNTQ5ODA0NywxLjQyOTY4NzUtMS42NzY3NTc4VjIzNi44ODkwNjg2eiIvPiYjeGE7CTxwYXRoIGQ9Ik05MDYuMjEyODkwNiwyNTEuNDYyMzEwOGMtMC43Njk1MzEzLDAuNzQyMTg3NS0xLjg5NjQ4NDQsMS4xNTQyOTY5LTMuMTA2NDQ1MywxLjE1NDI5NjkmIzEwOyYjOTsmIzk7cy0yLjM2NTIzNDQtMC40MTIxMDk0LTMuMTM0NzY1Ni0xLjE1NDI5NjljLTAuNzcwNTA3OC0wLjc0MzE2NDEtMS4yMzczMDQ3LTEuNjc3NzM0NC0xLjIzNzMwNDctMy4yNDUxMTcydi0xMS4yMTg3NSYjMTA7JiM5OyYjOTtjMC0xLjU2NjQwNjMsMC40NjY3OTY5LTIuNTAxOTUzMSwxLjIzNzMwNDctMy4yNDQxNDA2YzAuNzY5NTMxMy0wLjc0MjE4NzUsMS45MjQ4MDQ3LTEuMTU0Mjk2OSwzLjEzNDc2NTYtMS4xNTQyOTY5JiMxMDsmIzk7JiM5O3MyLjMzNjkxNDEsMC40MTIxMDk0LDMuMTA2NDQ1MywxLjE1NDI5NjljMC43NzA1MDc4LDAuNzQyMTg3NSwxLjIzNzMwNDcsMS42Nzc3MzQ0LDEuMjM3MzA0NywzLjI0NDE0MDZ2MTEuMjE4NzUmIzEwOyYjOTsmIzk7QzkwNy40NTAxOTUzLDI0OS43ODQ1NzY0LDkwNi45ODMzOTg0LDI1MC43MTkxNDY3LDkwNi4yMTI4OTA2LDI1MS40NjIzMTA4eiBNOTA0LjUzNjEzMjgsMjM2Ljg4OTA2ODYmIzEwOyYjOTsmIzk7YzAtMS4xMjc5Mjk3LTAuNjMyODEyNS0xLjY3NzczNDQtMS40Mjk2ODc1LTEuNjc3NzM0NGMtMC43OTc4NTE2LDAtMS40NTgwMDc4LDAuNTQ5ODA0Ny0xLjQ1ODAwNzgsMS42Nzc3MzQ0djExLjQzODQ3NjYmIzEwOyYjOTsmIzk7YzAsMS4xMjY5NTMxLDAuNjYwMTU2MywxLjY3Njc1NzgsMS40NTgwMDc4LDEuNjc2NzU3OGMwLjc5Njg3NSwwLDEuNDI5Njg3NS0wLjU0OTgwNDcsMS40Mjk2ODc1LTEuNjc2NzU3OFYyMzYuODg5MDY4NnoiLz4mI3hhOzwvZz4mI3hhOzwvc3ZnPg==;" vertex="1" parent="1">
          <mxGeometry x="470" y="510" width="493.44" height="130" as="geometry" />
        </mxCell>
        <mxCell id="sAv-Mwyu1UvNk6a1ePmx-1" value="" style="rounded=0;whiteSpace=wrap;html=1;fillColor=#F82022;strokeColor=none;" vertex="1" parent="1">
          <mxGeometry x="479" y="640" width="40" height="40" as="geometry" />
        </mxCell>
        <mxCell id="sAv-Mwyu1UvNk6a1ePmx-4" value="" style="rounded=0;whiteSpace=wrap;html=1;fillColor=#F95E0F;strokeColor=none;" vertex="1" parent="1">
          <mxGeometry x="519" y="640" width="40" height="40" as="geometry" />
        </mxCell>
        <mxCell id="sAv-Mwyu1UvNk6a1ePmx-5" value="" style="rounded=0;whiteSpace=wrap;html=1;fillColor=#F97F0E;strokeColor=none;" vertex="1" parent="1">
          <mxGeometry x="559" y="640" width="40" height="40" as="geometry" />
        </mxCell>
        <mxCell id="sAv-Mwyu1UvNk6a1ePmx-6" value="" style="rounded=0;whiteSpace=wrap;html=1;fillColor=#FBC384;strokeColor=none;" vertex="1" parent="1">
          <mxGeometry x="599" y="640" width="40" height="40" as="geometry" />
        </mxCell>
        <mxCell id="sAv-Mwyu1UvNk6a1ePmx-7" value="" style="rounded=0;whiteSpace=wrap;html=1;fillColor=#FDE1C4;strokeColor=none;" vertex="1" parent="1">
          <mxGeometry x="639" y="640" width="40" height="40" as="geometry" />
        </mxCell>
        <mxCell id="sAv-Mwyu1UvNk6a1ePmx-8" value="" style="rounded=0;whiteSpace=wrap;html=1;fillColor=#FAF6FF;strokeColor=none;" vertex="1" parent="1">
          <mxGeometry x="720" y="640" width="40" height="40" as="geometry" />
        </mxCell>
        <mxCell id="sAv-Mwyu1UvNk6a1ePmx-9" value="" style="rounded=0;whiteSpace=wrap;html=1;fillColor=#FEECDF;strokeColor=none;" vertex="1" parent="1">
          <mxGeometry x="679" y="640" width="40" height="40" as="geometry" />
        </mxCell>
        <mxCell id="sAv-Mwyu1UvNk6a1ePmx-10" value="" style="rounded=0;whiteSpace=wrap;html=1;fillColor=#CFD9FF;strokeColor=none;" vertex="1" parent="1">
          <mxGeometry x="760" y="640" width="40" height="40" as="geometry" />
        </mxCell>
        <mxCell id="sAv-Mwyu1UvNk6a1ePmx-11" value="" style="rounded=0;whiteSpace=wrap;html=1;fillColor=#B8CAFF;strokeColor=none;" vertex="1" parent="1">
          <mxGeometry x="800" y="640" width="40" height="40" as="geometry" />
        </mxCell>
        <mxCell id="sAv-Mwyu1UvNk6a1ePmx-12" value="" style="rounded=0;whiteSpace=wrap;html=1;fillColor=#AABFFF;strokeColor=none;" vertex="1" parent="1">
          <mxGeometry x="840" y="640" width="40" height="40" as="geometry" />
        </mxCell>
        <mxCell id="sAv-Mwyu1UvNk6a1ePmx-13" value="" style="rounded=0;whiteSpace=wrap;html=1;fillColor=#A2B9FF;strokeColor=none;" vertex="1" parent="1">
          <mxGeometry x="880" y="640" width="40" height="40" as="geometry" />
        </mxCell>
        <mxCell id="sAv-Mwyu1UvNk6a1ePmx-14" value="" style="rounded=0;whiteSpace=wrap;html=1;fillColor=#9CB5FF;strokeColor=none;" vertex="1" parent="1">
          <mxGeometry x="920" y="640" width="40" height="40" as="geometry" />
        </mxCell>
        <mxCell id="sAv-Mwyu1UvNk6a1ePmx-15" value="" style="rounded=0;whiteSpace=wrap;html=1;fillColor=#99B3FF;strokeColor=none;" vertex="1" parent="1">
          <mxGeometry x="960" y="640" width="40" height="40" as="geometry" />
        </mxCell>
      </root>
    </mxGraphModel>
  </diagram>
</mxfile>
